%TF.GenerationSoftware,KiCad,Pcbnew,9.0.0*%
%TF.CreationDate,2025-06-11T13:28:55+03:00*%
%TF.ProjectId,motorControlBoard,6d6f746f-7243-46f6-9e74-726f6c426f61,rev?*%
%TF.SameCoordinates,Original*%
%TF.FileFunction,Legend,Top*%
%TF.FilePolarity,Positive*%
%FSLAX46Y46*%
G04 Gerber Fmt 4.6, Leading zero omitted, Abs format (unit mm)*
G04 Created by KiCad (PCBNEW 9.0.0) date 2025-06-11 13:28:55*
%MOMM*%
%LPD*%
G01*
G04 APERTURE LIST*
%ADD10C,0.150000*%
%ADD11C,0.120000*%
G04 APERTURE END LIST*
D10*
X133991905Y-62494819D02*
X133991905Y-61494819D01*
X133991905Y-61494819D02*
X134230000Y-61494819D01*
X134230000Y-61494819D02*
X134372857Y-61542438D01*
X134372857Y-61542438D02*
X134468095Y-61637676D01*
X134468095Y-61637676D02*
X134515714Y-61732914D01*
X134515714Y-61732914D02*
X134563333Y-61923390D01*
X134563333Y-61923390D02*
X134563333Y-62066247D01*
X134563333Y-62066247D02*
X134515714Y-62256723D01*
X134515714Y-62256723D02*
X134468095Y-62351961D01*
X134468095Y-62351961D02*
X134372857Y-62447200D01*
X134372857Y-62447200D02*
X134230000Y-62494819D01*
X134230000Y-62494819D02*
X133991905Y-62494819D01*
X135515714Y-62494819D02*
X134944286Y-62494819D01*
X135230000Y-62494819D02*
X135230000Y-61494819D01*
X135230000Y-61494819D02*
X135134762Y-61637676D01*
X135134762Y-61637676D02*
X135039524Y-61732914D01*
X135039524Y-61732914D02*
X134944286Y-61780533D01*
X135874819Y-75166666D02*
X135398628Y-75499999D01*
X135874819Y-75738094D02*
X134874819Y-75738094D01*
X134874819Y-75738094D02*
X134874819Y-75357142D01*
X134874819Y-75357142D02*
X134922438Y-75261904D01*
X134922438Y-75261904D02*
X134970057Y-75214285D01*
X134970057Y-75214285D02*
X135065295Y-75166666D01*
X135065295Y-75166666D02*
X135208152Y-75166666D01*
X135208152Y-75166666D02*
X135303390Y-75214285D01*
X135303390Y-75214285D02*
X135351009Y-75261904D01*
X135351009Y-75261904D02*
X135398628Y-75357142D01*
X135398628Y-75357142D02*
X135398628Y-75738094D01*
X135874819Y-74214285D02*
X135874819Y-74785713D01*
X135874819Y-74499999D02*
X134874819Y-74499999D01*
X134874819Y-74499999D02*
X135017676Y-74595237D01*
X135017676Y-74595237D02*
X135112914Y-74690475D01*
X135112914Y-74690475D02*
X135160533Y-74785713D01*
X118405714Y-43539104D02*
X118881904Y-43539104D01*
X118310476Y-43824819D02*
X118643809Y-42824819D01*
X118643809Y-42824819D02*
X118977142Y-43824819D01*
X119834285Y-43824819D02*
X119262857Y-43824819D01*
X119548571Y-43824819D02*
X119548571Y-42824819D01*
X119548571Y-42824819D02*
X119453333Y-42967676D01*
X119453333Y-42967676D02*
X119358095Y-43062914D01*
X119358095Y-43062914D02*
X119262857Y-43110533D01*
X117858095Y-83464819D02*
X117858095Y-84274342D01*
X117858095Y-84274342D02*
X117905714Y-84369580D01*
X117905714Y-84369580D02*
X117953333Y-84417200D01*
X117953333Y-84417200D02*
X118048571Y-84464819D01*
X118048571Y-84464819D02*
X118239047Y-84464819D01*
X118239047Y-84464819D02*
X118334285Y-84417200D01*
X118334285Y-84417200D02*
X118381904Y-84369580D01*
X118381904Y-84369580D02*
X118429523Y-84274342D01*
X118429523Y-84274342D02*
X118429523Y-83464819D01*
X118858095Y-84417200D02*
X119000952Y-84464819D01*
X119000952Y-84464819D02*
X119239047Y-84464819D01*
X119239047Y-84464819D02*
X119334285Y-84417200D01*
X119334285Y-84417200D02*
X119381904Y-84369580D01*
X119381904Y-84369580D02*
X119429523Y-84274342D01*
X119429523Y-84274342D02*
X119429523Y-84179104D01*
X119429523Y-84179104D02*
X119381904Y-84083866D01*
X119381904Y-84083866D02*
X119334285Y-84036247D01*
X119334285Y-84036247D02*
X119239047Y-83988628D01*
X119239047Y-83988628D02*
X119048571Y-83941009D01*
X119048571Y-83941009D02*
X118953333Y-83893390D01*
X118953333Y-83893390D02*
X118905714Y-83845771D01*
X118905714Y-83845771D02*
X118858095Y-83750533D01*
X118858095Y-83750533D02*
X118858095Y-83655295D01*
X118858095Y-83655295D02*
X118905714Y-83560057D01*
X118905714Y-83560057D02*
X118953333Y-83512438D01*
X118953333Y-83512438D02*
X119048571Y-83464819D01*
X119048571Y-83464819D02*
X119286666Y-83464819D01*
X119286666Y-83464819D02*
X119429523Y-83512438D01*
X120191428Y-83941009D02*
X120334285Y-83988628D01*
X120334285Y-83988628D02*
X120381904Y-84036247D01*
X120381904Y-84036247D02*
X120429523Y-84131485D01*
X120429523Y-84131485D02*
X120429523Y-84274342D01*
X120429523Y-84274342D02*
X120381904Y-84369580D01*
X120381904Y-84369580D02*
X120334285Y-84417200D01*
X120334285Y-84417200D02*
X120239047Y-84464819D01*
X120239047Y-84464819D02*
X119858095Y-84464819D01*
X119858095Y-84464819D02*
X119858095Y-83464819D01*
X119858095Y-83464819D02*
X120191428Y-83464819D01*
X120191428Y-83464819D02*
X120286666Y-83512438D01*
X120286666Y-83512438D02*
X120334285Y-83560057D01*
X120334285Y-83560057D02*
X120381904Y-83655295D01*
X120381904Y-83655295D02*
X120381904Y-83750533D01*
X120381904Y-83750533D02*
X120334285Y-83845771D01*
X120334285Y-83845771D02*
X120286666Y-83893390D01*
X120286666Y-83893390D02*
X120191428Y-83941009D01*
X120191428Y-83941009D02*
X119858095Y-83941009D01*
X146666666Y-64404819D02*
X146666666Y-65119104D01*
X146666666Y-65119104D02*
X146619047Y-65261961D01*
X146619047Y-65261961D02*
X146523809Y-65357200D01*
X146523809Y-65357200D02*
X146380952Y-65404819D01*
X146380952Y-65404819D02*
X146285714Y-65404819D01*
X147571428Y-64738152D02*
X147571428Y-65404819D01*
X147333333Y-64357200D02*
X147095238Y-65071485D01*
X147095238Y-65071485D02*
X147714285Y-65071485D01*
X146666666Y-51379819D02*
X146666666Y-52094104D01*
X146666666Y-52094104D02*
X146619047Y-52236961D01*
X146619047Y-52236961D02*
X146523809Y-52332200D01*
X146523809Y-52332200D02*
X146380952Y-52379819D01*
X146380952Y-52379819D02*
X146285714Y-52379819D01*
X147095238Y-51475057D02*
X147142857Y-51427438D01*
X147142857Y-51427438D02*
X147238095Y-51379819D01*
X147238095Y-51379819D02*
X147476190Y-51379819D01*
X147476190Y-51379819D02*
X147571428Y-51427438D01*
X147571428Y-51427438D02*
X147619047Y-51475057D01*
X147619047Y-51475057D02*
X147666666Y-51570295D01*
X147666666Y-51570295D02*
X147666666Y-51665533D01*
X147666666Y-51665533D02*
X147619047Y-51808390D01*
X147619047Y-51808390D02*
X147047619Y-52379819D01*
X147047619Y-52379819D02*
X147666666Y-52379819D01*
X143833333Y-26359580D02*
X143785714Y-26407200D01*
X143785714Y-26407200D02*
X143642857Y-26454819D01*
X143642857Y-26454819D02*
X143547619Y-26454819D01*
X143547619Y-26454819D02*
X143404762Y-26407200D01*
X143404762Y-26407200D02*
X143309524Y-26311961D01*
X143309524Y-26311961D02*
X143261905Y-26216723D01*
X143261905Y-26216723D02*
X143214286Y-26026247D01*
X143214286Y-26026247D02*
X143214286Y-25883390D01*
X143214286Y-25883390D02*
X143261905Y-25692914D01*
X143261905Y-25692914D02*
X143309524Y-25597676D01*
X143309524Y-25597676D02*
X143404762Y-25502438D01*
X143404762Y-25502438D02*
X143547619Y-25454819D01*
X143547619Y-25454819D02*
X143642857Y-25454819D01*
X143642857Y-25454819D02*
X143785714Y-25502438D01*
X143785714Y-25502438D02*
X143833333Y-25550057D01*
X144214286Y-25550057D02*
X144261905Y-25502438D01*
X144261905Y-25502438D02*
X144357143Y-25454819D01*
X144357143Y-25454819D02*
X144595238Y-25454819D01*
X144595238Y-25454819D02*
X144690476Y-25502438D01*
X144690476Y-25502438D02*
X144738095Y-25550057D01*
X144738095Y-25550057D02*
X144785714Y-25645295D01*
X144785714Y-25645295D02*
X144785714Y-25740533D01*
X144785714Y-25740533D02*
X144738095Y-25883390D01*
X144738095Y-25883390D02*
X144166667Y-26454819D01*
X144166667Y-26454819D02*
X144785714Y-26454819D01*
X146666666Y-37879819D02*
X146666666Y-38594104D01*
X146666666Y-38594104D02*
X146619047Y-38736961D01*
X146619047Y-38736961D02*
X146523809Y-38832200D01*
X146523809Y-38832200D02*
X146380952Y-38879819D01*
X146380952Y-38879819D02*
X146285714Y-38879819D01*
X147047619Y-37879819D02*
X147666666Y-37879819D01*
X147666666Y-37879819D02*
X147333333Y-38260771D01*
X147333333Y-38260771D02*
X147476190Y-38260771D01*
X147476190Y-38260771D02*
X147571428Y-38308390D01*
X147571428Y-38308390D02*
X147619047Y-38356009D01*
X147619047Y-38356009D02*
X147666666Y-38451247D01*
X147666666Y-38451247D02*
X147666666Y-38689342D01*
X147666666Y-38689342D02*
X147619047Y-38784580D01*
X147619047Y-38784580D02*
X147571428Y-38832200D01*
X147571428Y-38832200D02*
X147476190Y-38879819D01*
X147476190Y-38879819D02*
X147190476Y-38879819D01*
X147190476Y-38879819D02*
X147095238Y-38832200D01*
X147095238Y-38832200D02*
X147047619Y-38784580D01*
X150704819Y-85283333D02*
X151419104Y-85283333D01*
X151419104Y-85283333D02*
X151561961Y-85330952D01*
X151561961Y-85330952D02*
X151657200Y-85426190D01*
X151657200Y-85426190D02*
X151704819Y-85569047D01*
X151704819Y-85569047D02*
X151704819Y-85664285D01*
X151704819Y-84283333D02*
X151704819Y-84854761D01*
X151704819Y-84569047D02*
X150704819Y-84569047D01*
X150704819Y-84569047D02*
X150847676Y-84664285D01*
X150847676Y-84664285D02*
X150942914Y-84759523D01*
X150942914Y-84759523D02*
X150990533Y-84854761D01*
X108584819Y-31451904D02*
X109394342Y-31451904D01*
X109394342Y-31451904D02*
X109489580Y-31404285D01*
X109489580Y-31404285D02*
X109537200Y-31356666D01*
X109537200Y-31356666D02*
X109584819Y-31261428D01*
X109584819Y-31261428D02*
X109584819Y-31070952D01*
X109584819Y-31070952D02*
X109537200Y-30975714D01*
X109537200Y-30975714D02*
X109489580Y-30928095D01*
X109489580Y-30928095D02*
X109394342Y-30880476D01*
X109394342Y-30880476D02*
X108584819Y-30880476D01*
X109584819Y-29880476D02*
X109584819Y-30451904D01*
X109584819Y-30166190D02*
X108584819Y-30166190D01*
X108584819Y-30166190D02*
X108727676Y-30261428D01*
X108727676Y-30261428D02*
X108822914Y-30356666D01*
X108822914Y-30356666D02*
X108870533Y-30451904D01*
X120333333Y-26359580D02*
X120285714Y-26407200D01*
X120285714Y-26407200D02*
X120142857Y-26454819D01*
X120142857Y-26454819D02*
X120047619Y-26454819D01*
X120047619Y-26454819D02*
X119904762Y-26407200D01*
X119904762Y-26407200D02*
X119809524Y-26311961D01*
X119809524Y-26311961D02*
X119761905Y-26216723D01*
X119761905Y-26216723D02*
X119714286Y-26026247D01*
X119714286Y-26026247D02*
X119714286Y-25883390D01*
X119714286Y-25883390D02*
X119761905Y-25692914D01*
X119761905Y-25692914D02*
X119809524Y-25597676D01*
X119809524Y-25597676D02*
X119904762Y-25502438D01*
X119904762Y-25502438D02*
X120047619Y-25454819D01*
X120047619Y-25454819D02*
X120142857Y-25454819D01*
X120142857Y-25454819D02*
X120285714Y-25502438D01*
X120285714Y-25502438D02*
X120333333Y-25550057D01*
X121285714Y-26454819D02*
X120714286Y-26454819D01*
X121000000Y-26454819D02*
X121000000Y-25454819D01*
X121000000Y-25454819D02*
X120904762Y-25597676D01*
X120904762Y-25597676D02*
X120809524Y-25692914D01*
X120809524Y-25692914D02*
X120714286Y-25740533D01*
X132044819Y-31451904D02*
X132854342Y-31451904D01*
X132854342Y-31451904D02*
X132949580Y-31404285D01*
X132949580Y-31404285D02*
X132997200Y-31356666D01*
X132997200Y-31356666D02*
X133044819Y-31261428D01*
X133044819Y-31261428D02*
X133044819Y-31070952D01*
X133044819Y-31070952D02*
X132997200Y-30975714D01*
X132997200Y-30975714D02*
X132949580Y-30928095D01*
X132949580Y-30928095D02*
X132854342Y-30880476D01*
X132854342Y-30880476D02*
X132044819Y-30880476D01*
X132140057Y-30451904D02*
X132092438Y-30404285D01*
X132092438Y-30404285D02*
X132044819Y-30309047D01*
X132044819Y-30309047D02*
X132044819Y-30070952D01*
X132044819Y-30070952D02*
X132092438Y-29975714D01*
X132092438Y-29975714D02*
X132140057Y-29928095D01*
X132140057Y-29928095D02*
X132235295Y-29880476D01*
X132235295Y-29880476D02*
X132330533Y-29880476D01*
X132330533Y-29880476D02*
X132473390Y-29928095D01*
X132473390Y-29928095D02*
X133044819Y-30499523D01*
X133044819Y-30499523D02*
X133044819Y-29880476D01*
X133583333Y-82959580D02*
X133535714Y-83007200D01*
X133535714Y-83007200D02*
X133392857Y-83054819D01*
X133392857Y-83054819D02*
X133297619Y-83054819D01*
X133297619Y-83054819D02*
X133154762Y-83007200D01*
X133154762Y-83007200D02*
X133059524Y-82911961D01*
X133059524Y-82911961D02*
X133011905Y-82816723D01*
X133011905Y-82816723D02*
X132964286Y-82626247D01*
X132964286Y-82626247D02*
X132964286Y-82483390D01*
X132964286Y-82483390D02*
X133011905Y-82292914D01*
X133011905Y-82292914D02*
X133059524Y-82197676D01*
X133059524Y-82197676D02*
X133154762Y-82102438D01*
X133154762Y-82102438D02*
X133297619Y-82054819D01*
X133297619Y-82054819D02*
X133392857Y-82054819D01*
X133392857Y-82054819D02*
X133535714Y-82102438D01*
X133535714Y-82102438D02*
X133583333Y-82150057D01*
X134440476Y-82388152D02*
X134440476Y-83054819D01*
X134202381Y-82007200D02*
X133964286Y-82721485D01*
X133964286Y-82721485D02*
X134583333Y-82721485D01*
D11*
%TO.C,D1*%
X132170000Y-64455000D02*
X132170000Y-67545000D01*
X132170000Y-64455170D02*
G75*
G02*
X137720000Y-65999952I2560000J-1544830D01*
G01*
X137720000Y-66000048D02*
G75*
G02*
X132170000Y-67544830I-2990000J48D01*
G01*
X137230000Y-66000000D02*
G75*
G02*
X132230000Y-66000000I-2500000J0D01*
G01*
X132230000Y-66000000D02*
G75*
G02*
X137230000Y-66000000I2500000J0D01*
G01*
%TO.C,R1*%
X133500000Y-77870000D02*
X133500000Y-76920000D01*
X132580000Y-76920000D02*
X134420000Y-76920000D01*
X134420000Y-76920000D02*
X134420000Y-73080000D01*
X132580000Y-73080000D02*
X132580000Y-76920000D01*
X134420000Y-73080000D02*
X132580000Y-73080000D01*
X133500000Y-72130000D02*
X133500000Y-73080000D01*
%TO.C,A1*%
X110100000Y-44510000D02*
X110100000Y-47180000D01*
X110100000Y-49720000D02*
X110100000Y-87950000D01*
X110100000Y-87950000D02*
X115180000Y-87950000D01*
X112770000Y-47180000D02*
X110100000Y-47180000D01*
X112770000Y-49720000D02*
X110100000Y-49720000D01*
X112770000Y-49720000D02*
X112770000Y-47180000D01*
X112770000Y-49720000D02*
X112770000Y-85280000D01*
X112770000Y-85280000D02*
X110100000Y-85280000D01*
X115180000Y-80070000D02*
X123060000Y-80070000D01*
X115180000Y-90490000D02*
X115180000Y-80070000D01*
X123060000Y-80070000D02*
X123060000Y-90490000D01*
X123060000Y-90490000D02*
X115180000Y-90490000D01*
X125470000Y-47180000D02*
X125470000Y-85280000D01*
X125470000Y-47180000D02*
X128140000Y-47180000D01*
X125470000Y-85280000D02*
X128140000Y-85280000D01*
X128140000Y-44510000D02*
X110100000Y-44510000D01*
X128140000Y-87950000D02*
X123060000Y-87950000D01*
X128140000Y-87950000D02*
X128140000Y-44510000D01*
%TO.C,J4*%
X139150000Y-65750000D02*
X139150000Y-67000000D01*
X139440000Y-66040000D02*
X139440000Y-72010000D01*
X139440000Y-72010000D02*
X154560000Y-72010000D01*
X139450000Y-66050000D02*
X139450000Y-66800000D01*
X139450000Y-66800000D02*
X141250000Y-66800000D01*
X139450000Y-68300000D02*
X140200000Y-68300000D01*
X140200000Y-68300000D02*
X140200000Y-71250000D01*
X140200000Y-71250000D02*
X147000000Y-71250000D01*
X140400000Y-65750000D02*
X139150000Y-65750000D01*
X141250000Y-66050000D02*
X139450000Y-66050000D01*
X141250000Y-66800000D02*
X141250000Y-66050000D01*
X142750000Y-66050000D02*
X142750000Y-66800000D01*
X142750000Y-66800000D02*
X151250000Y-66800000D01*
X151250000Y-66050000D02*
X142750000Y-66050000D01*
X151250000Y-66800000D02*
X151250000Y-66050000D01*
X152750000Y-66050000D02*
X152750000Y-66800000D01*
X152750000Y-66800000D02*
X154550000Y-66800000D01*
X153800000Y-68300000D02*
X153800000Y-71250000D01*
X153800000Y-71250000D02*
X147000000Y-71250000D01*
X154550000Y-66050000D02*
X152750000Y-66050000D01*
X154550000Y-66800000D02*
X154550000Y-66050000D01*
X154550000Y-68300000D02*
X153800000Y-68300000D01*
X154560000Y-66040000D02*
X139440000Y-66040000D01*
X154560000Y-72010000D02*
X154560000Y-66040000D01*
%TO.C,J2*%
X139150000Y-52725000D02*
X139150000Y-53975000D01*
X139440000Y-53015000D02*
X139440000Y-58985000D01*
X139440000Y-58985000D02*
X154560000Y-58985000D01*
X139450000Y-53025000D02*
X139450000Y-53775000D01*
X139450000Y-53775000D02*
X141250000Y-53775000D01*
X139450000Y-55275000D02*
X140200000Y-55275000D01*
X140200000Y-55275000D02*
X140200000Y-58225000D01*
X140200000Y-58225000D02*
X147000000Y-58225000D01*
X140400000Y-52725000D02*
X139150000Y-52725000D01*
X141250000Y-53025000D02*
X139450000Y-53025000D01*
X141250000Y-53775000D02*
X141250000Y-53025000D01*
X142750000Y-53025000D02*
X142750000Y-53775000D01*
X142750000Y-53775000D02*
X151250000Y-53775000D01*
X151250000Y-53025000D02*
X142750000Y-53025000D01*
X151250000Y-53775000D02*
X151250000Y-53025000D01*
X152750000Y-53025000D02*
X152750000Y-53775000D01*
X152750000Y-53775000D02*
X154550000Y-53775000D01*
X153800000Y-55275000D02*
X153800000Y-58225000D01*
X153800000Y-58225000D02*
X147000000Y-58225000D01*
X154550000Y-53025000D02*
X152750000Y-53025000D01*
X154550000Y-53775000D02*
X154550000Y-53025000D01*
X154550000Y-55275000D02*
X153800000Y-55275000D01*
X154560000Y-53015000D02*
X139440000Y-53015000D01*
X154560000Y-58985000D02*
X154560000Y-53015000D01*
%TO.C,C2*%
X141380000Y-22445000D02*
X141380000Y-22130000D01*
X141380000Y-24870000D02*
X141380000Y-24555000D01*
X146620000Y-22130000D02*
X141380000Y-22130000D01*
X146620000Y-22445000D02*
X146620000Y-22130000D01*
X146620000Y-24870000D02*
X141380000Y-24870000D01*
X146620000Y-24870000D02*
X146620000Y-24555000D01*
%TO.C,J3*%
X139150000Y-39225000D02*
X139150000Y-40475000D01*
X139440000Y-39515000D02*
X139440000Y-45485000D01*
X139440000Y-45485000D02*
X154560000Y-45485000D01*
X139450000Y-39525000D02*
X139450000Y-40275000D01*
X139450000Y-40275000D02*
X141250000Y-40275000D01*
X139450000Y-41775000D02*
X140200000Y-41775000D01*
X140200000Y-41775000D02*
X140200000Y-44725000D01*
X140200000Y-44725000D02*
X147000000Y-44725000D01*
X140400000Y-39225000D02*
X139150000Y-39225000D01*
X141250000Y-39525000D02*
X139450000Y-39525000D01*
X141250000Y-40275000D02*
X141250000Y-39525000D01*
X142750000Y-39525000D02*
X142750000Y-40275000D01*
X142750000Y-40275000D02*
X151250000Y-40275000D01*
X151250000Y-39525000D02*
X142750000Y-39525000D01*
X151250000Y-40275000D02*
X151250000Y-39525000D01*
X152750000Y-39525000D02*
X152750000Y-40275000D01*
X152750000Y-40275000D02*
X154550000Y-40275000D01*
X153800000Y-41775000D02*
X153800000Y-44725000D01*
X153800000Y-44725000D02*
X147000000Y-44725000D01*
X154550000Y-39525000D02*
X152750000Y-39525000D01*
X154550000Y-40275000D02*
X154550000Y-39525000D01*
X154550000Y-41775000D02*
X153800000Y-41775000D01*
X154560000Y-39515000D02*
X139440000Y-39515000D01*
X154560000Y-45485000D02*
X154560000Y-39515000D01*
%TO.C,J1*%
X140700000Y-76450000D02*
X140700000Y-75400000D01*
X140900000Y-75600000D02*
X143500000Y-75600000D01*
X140900000Y-90300000D02*
X140900000Y-75600000D01*
X141750000Y-75400000D02*
X140700000Y-75400000D01*
X147400000Y-75600000D02*
X150100000Y-75600000D01*
X150100000Y-75600000D02*
X150100000Y-77500000D01*
X150100000Y-81500000D02*
X150100000Y-90300000D01*
X150100000Y-90300000D02*
X140900000Y-90300000D01*
%TO.C,U1*%
X110130000Y-28040000D02*
X110130000Y-29690000D01*
X110130000Y-31690000D02*
X110130000Y-33340000D01*
X110130000Y-33340000D02*
X130570000Y-33340000D01*
X130570000Y-28040000D02*
X110130000Y-28040000D01*
X130570000Y-33340000D02*
X130570000Y-28040000D01*
X110130000Y-29690000D02*
G75*
G02*
X110130000Y-31690000I0J-1000000D01*
G01*
%TO.C,C1*%
X117880000Y-22445000D02*
X117880000Y-22130000D01*
X117880000Y-24870000D02*
X117880000Y-24555000D01*
X123120000Y-22130000D02*
X117880000Y-22130000D01*
X123120000Y-22445000D02*
X123120000Y-22130000D01*
X123120000Y-24870000D02*
X117880000Y-24870000D01*
X123120000Y-24870000D02*
X123120000Y-24555000D01*
%TO.C,U2*%
X133590000Y-28040000D02*
X133590000Y-29690000D01*
X133590000Y-31690000D02*
X133590000Y-33340000D01*
X133590000Y-33340000D02*
X154030000Y-33340000D01*
X154030000Y-28040000D02*
X133590000Y-28040000D01*
X154030000Y-33340000D02*
X154030000Y-28040000D01*
X133590000Y-29690000D02*
G75*
G02*
X133590000Y-31690000I0J-1000000D01*
G01*
%TO.C,C4*%
X130249759Y-85161000D02*
X130879759Y-85161000D01*
X130564759Y-84846000D02*
X130564759Y-85476000D01*
X133750000Y-83770000D02*
X133750000Y-90230000D01*
X133790000Y-83770000D02*
X133790000Y-90230000D01*
X133830000Y-83770000D02*
X133830000Y-90230000D01*
X133870000Y-83772000D02*
X133870000Y-90228000D01*
X133910000Y-83773000D02*
X133910000Y-90227000D01*
X133950000Y-83776000D02*
X133950000Y-90224000D01*
X133990000Y-83778000D02*
X133990000Y-85960000D01*
X133990000Y-88040000D02*
X133990000Y-90222000D01*
X134030000Y-83782000D02*
X134030000Y-85960000D01*
X134030000Y-88040000D02*
X134030000Y-90218000D01*
X134070000Y-83785000D02*
X134070000Y-85960000D01*
X134070000Y-88040000D02*
X134070000Y-90215000D01*
X134110000Y-83789000D02*
X134110000Y-85960000D01*
X134110000Y-88040000D02*
X134110000Y-90211000D01*
X134150000Y-83794000D02*
X134150000Y-85960000D01*
X134150000Y-88040000D02*
X134150000Y-90206000D01*
X134190000Y-83799000D02*
X134190000Y-85960000D01*
X134190000Y-88040000D02*
X134190000Y-90201000D01*
X134230000Y-83805000D02*
X134230000Y-85960000D01*
X134230000Y-88040000D02*
X134230000Y-90195000D01*
X134270000Y-83811000D02*
X134270000Y-85960000D01*
X134270000Y-88040000D02*
X134270000Y-90189000D01*
X134310000Y-83818000D02*
X134310000Y-85960000D01*
X134310000Y-88040000D02*
X134310000Y-90182000D01*
X134350000Y-83825000D02*
X134350000Y-85960000D01*
X134350000Y-88040000D02*
X134350000Y-90175000D01*
X134390000Y-83833000D02*
X134390000Y-85960000D01*
X134390000Y-88040000D02*
X134390000Y-90167000D01*
X134430000Y-83841000D02*
X134430000Y-85960000D01*
X134430000Y-88040000D02*
X134430000Y-90159000D01*
X134471000Y-83850000D02*
X134471000Y-85960000D01*
X134471000Y-88040000D02*
X134471000Y-90150000D01*
X134511000Y-83859000D02*
X134511000Y-85960000D01*
X134511000Y-88040000D02*
X134511000Y-90141000D01*
X134551000Y-83869000D02*
X134551000Y-85960000D01*
X134551000Y-88040000D02*
X134551000Y-90131000D01*
X134591000Y-83879000D02*
X134591000Y-85960000D01*
X134591000Y-88040000D02*
X134591000Y-90121000D01*
X134631000Y-83890000D02*
X134631000Y-85960000D01*
X134631000Y-88040000D02*
X134631000Y-90110000D01*
X134671000Y-83902000D02*
X134671000Y-85960000D01*
X134671000Y-88040000D02*
X134671000Y-90098000D01*
X134711000Y-83914000D02*
X134711000Y-85960000D01*
X134711000Y-88040000D02*
X134711000Y-90086000D01*
X134751000Y-83926000D02*
X134751000Y-85960000D01*
X134751000Y-88040000D02*
X134751000Y-90074000D01*
X134791000Y-83939000D02*
X134791000Y-85960000D01*
X134791000Y-88040000D02*
X134791000Y-90061000D01*
X134831000Y-83953000D02*
X134831000Y-85960000D01*
X134831000Y-88040000D02*
X134831000Y-90047000D01*
X134871000Y-83967000D02*
X134871000Y-85960000D01*
X134871000Y-88040000D02*
X134871000Y-90033000D01*
X134911000Y-83982000D02*
X134911000Y-85960000D01*
X134911000Y-88040000D02*
X134911000Y-90018000D01*
X134951000Y-83998000D02*
X134951000Y-85960000D01*
X134951000Y-88040000D02*
X134951000Y-90002000D01*
X134991000Y-84014000D02*
X134991000Y-85960000D01*
X134991000Y-88040000D02*
X134991000Y-89986000D01*
X135031000Y-84030000D02*
X135031000Y-85960000D01*
X135031000Y-88040000D02*
X135031000Y-89970000D01*
X135071000Y-84048000D02*
X135071000Y-85960000D01*
X135071000Y-88040000D02*
X135071000Y-89952000D01*
X135111000Y-84066000D02*
X135111000Y-85960000D01*
X135111000Y-88040000D02*
X135111000Y-89934000D01*
X135151000Y-84084000D02*
X135151000Y-85960000D01*
X135151000Y-88040000D02*
X135151000Y-89916000D01*
X135191000Y-84104000D02*
X135191000Y-85960000D01*
X135191000Y-88040000D02*
X135191000Y-89896000D01*
X135231000Y-84124000D02*
X135231000Y-85960000D01*
X135231000Y-88040000D02*
X135231000Y-89876000D01*
X135271000Y-84144000D02*
X135271000Y-85960000D01*
X135271000Y-88040000D02*
X135271000Y-89856000D01*
X135311000Y-84166000D02*
X135311000Y-85960000D01*
X135311000Y-88040000D02*
X135311000Y-89834000D01*
X135351000Y-84188000D02*
X135351000Y-85960000D01*
X135351000Y-88040000D02*
X135351000Y-89812000D01*
X135391000Y-84210000D02*
X135391000Y-85960000D01*
X135391000Y-88040000D02*
X135391000Y-89790000D01*
X135431000Y-84234000D02*
X135431000Y-85960000D01*
X135431000Y-88040000D02*
X135431000Y-89766000D01*
X135471000Y-84258000D02*
X135471000Y-85960000D01*
X135471000Y-88040000D02*
X135471000Y-89742000D01*
X135511000Y-84284000D02*
X135511000Y-85960000D01*
X135511000Y-88040000D02*
X135511000Y-89716000D01*
X135551000Y-84310000D02*
X135551000Y-85960000D01*
X135551000Y-88040000D02*
X135551000Y-89690000D01*
X135591000Y-84336000D02*
X135591000Y-85960000D01*
X135591000Y-88040000D02*
X135591000Y-89664000D01*
X135631000Y-84364000D02*
X135631000Y-85960000D01*
X135631000Y-88040000D02*
X135631000Y-89636000D01*
X135671000Y-84393000D02*
X135671000Y-85960000D01*
X135671000Y-88040000D02*
X135671000Y-89607000D01*
X135711000Y-84422000D02*
X135711000Y-85960000D01*
X135711000Y-88040000D02*
X135711000Y-89578000D01*
X135751000Y-84452000D02*
X135751000Y-85960000D01*
X135751000Y-88040000D02*
X135751000Y-89548000D01*
X135791000Y-84484000D02*
X135791000Y-85960000D01*
X135791000Y-88040000D02*
X135791000Y-89516000D01*
X135831000Y-84516000D02*
X135831000Y-85960000D01*
X135831000Y-88040000D02*
X135831000Y-89484000D01*
X135871000Y-84550000D02*
X135871000Y-85960000D01*
X135871000Y-88040000D02*
X135871000Y-89450000D01*
X135911000Y-84584000D02*
X135911000Y-85960000D01*
X135911000Y-88040000D02*
X135911000Y-89416000D01*
X135951000Y-84620000D02*
X135951000Y-85960000D01*
X135951000Y-88040000D02*
X135951000Y-89380000D01*
X135991000Y-84657000D02*
X135991000Y-85960000D01*
X135991000Y-88040000D02*
X135991000Y-89343000D01*
X136031000Y-84695000D02*
X136031000Y-85960000D01*
X136031000Y-88040000D02*
X136031000Y-89305000D01*
X136071000Y-84735000D02*
X136071000Y-89265000D01*
X136111000Y-84776000D02*
X136111000Y-89224000D01*
X136151000Y-84818000D02*
X136151000Y-89182000D01*
X136191000Y-84863000D02*
X136191000Y-89137000D01*
X136231000Y-84908000D02*
X136231000Y-89092000D01*
X136271000Y-84956000D02*
X136271000Y-89044000D01*
X136311000Y-85005000D02*
X136311000Y-88995000D01*
X136351000Y-85056000D02*
X136351000Y-88944000D01*
X136391000Y-85110000D02*
X136391000Y-88890000D01*
X136431000Y-85166000D02*
X136431000Y-88834000D01*
X136471000Y-85224000D02*
X136471000Y-88776000D01*
X136511000Y-85286000D02*
X136511000Y-88714000D01*
X136551000Y-85350000D02*
X136551000Y-88650000D01*
X136591000Y-85419000D02*
X136591000Y-88581000D01*
X136631000Y-85491000D02*
X136631000Y-88509000D01*
X136671000Y-85568000D02*
X136671000Y-88432000D01*
X136711000Y-85650000D02*
X136711000Y-88350000D01*
X136751000Y-85738000D02*
X136751000Y-88262000D01*
X136791000Y-85835000D02*
X136791000Y-88165000D01*
X136831000Y-85941000D02*
X136831000Y-88059000D01*
X136871000Y-86060000D02*
X136871000Y-87940000D01*
X136911000Y-86198000D02*
X136911000Y-87802000D01*
X136951000Y-86367000D02*
X136951000Y-87633000D01*
X136991000Y-86598000D02*
X136991000Y-87402000D01*
X137020000Y-87000000D02*
G75*
G02*
X130480000Y-87000000I-3270000J0D01*
G01*
X130480000Y-87000000D02*
G75*
G02*
X137020000Y-87000000I3270000J0D01*
G01*
%TD*%
M02*
