%TF.GenerationSoftware,KiCad,Pcbnew,9.0.0*%
%TF.CreationDate,2025-06-10T08:07:58+03:00*%
%TF.ProjectId,motorControlBoard,6d6f746f-7243-46f6-9e74-726f6c426f61,rev?*%
%TF.SameCoordinates,Original*%
%TF.FileFunction,Copper,L1,Top*%
%TF.FilePolarity,Positive*%
%FSLAX46Y46*%
G04 Gerber Fmt 4.6, Leading zero omitted, Abs format (unit mm)*
G04 Created by KiCad (PCBNEW 9.0.0) date 2025-06-10 08:07:58*
%MOMM*%
%LPD*%
G01*
G04 APERTURE LIST*
G04 Aperture macros list*
%AMRoundRect*
0 Rectangle with rounded corners*
0 $1 Rounding radius*
0 $2 $3 $4 $5 $6 $7 $8 $9 X,Y pos of 4 corners*
0 Add a 4 corners polygon primitive as box body*
4,1,4,$2,$3,$4,$5,$6,$7,$8,$9,$2,$3,0*
0 Add four circle primitives for the rounded corners*
1,1,$1+$1,$2,$3*
1,1,$1+$1,$4,$5*
1,1,$1+$1,$6,$7*
1,1,$1+$1,$8,$9*
0 Add four rect primitives between the rounded corners*
20,1,$1+$1,$2,$3,$4,$5,0*
20,1,$1+$1,$4,$5,$6,$7,0*
20,1,$1+$1,$6,$7,$8,$9,0*
20,1,$1+$1,$8,$9,$2,$3,0*%
G04 Aperture macros list end*
%TA.AperFunction,ComponentPad*%
%ADD10RoundRect,0.250000X-0.550000X-0.550000X0.550000X-0.550000X0.550000X0.550000X-0.550000X0.550000X0*%
%TD*%
%TA.AperFunction,ComponentPad*%
%ADD11C,1.600000*%
%TD*%
%TA.AperFunction,ComponentPad*%
%ADD12R,1.600000X1.600000*%
%TD*%
%TA.AperFunction,ComponentPad*%
%ADD13O,1.600000X1.600000*%
%TD*%
%TA.AperFunction,ComponentPad*%
%ADD14R,3.500000X3.500000*%
%TD*%
%TA.AperFunction,ComponentPad*%
%ADD15RoundRect,0.750000X1.000000X-0.750000X1.000000X0.750000X-1.000000X0.750000X-1.000000X-0.750000X0*%
%TD*%
%TA.AperFunction,ComponentPad*%
%ADD16RoundRect,0.875000X0.875000X-0.875000X0.875000X0.875000X-0.875000X0.875000X-0.875000X-0.875000X0*%
%TD*%
%TA.AperFunction,ComponentPad*%
%ADD17RoundRect,0.250000X-0.725000X0.600000X-0.725000X-0.600000X0.725000X-0.600000X0.725000X0.600000X0*%
%TD*%
%TA.AperFunction,ComponentPad*%
%ADD18O,1.950000X1.700000*%
%TD*%
%TA.AperFunction,Conductor*%
%ADD19C,0.500000*%
%TD*%
%TA.AperFunction,Conductor*%
%ADD20C,0.200000*%
%TD*%
%TA.AperFunction,Conductor*%
%ADD21C,0.800000*%
%TD*%
G04 APERTURE END LIST*
D10*
%TO.P,U2,1,I1*%
%TO.N,Net-(A1-D8)*%
X68500000Y-63840000D03*
D11*
%TO.P,U2,2,I2*%
%TO.N,Net-(A1-D9)*%
X68500000Y-66380000D03*
%TO.P,U2,3,I3*%
%TO.N,Net-(A1-D10)*%
X68500000Y-68920000D03*
%TO.P,U2,4,I4*%
%TO.N,Net-(A1-D11)*%
X68500000Y-71460000D03*
%TO.P,U2,5,I5*%
%TO.N,unconnected-(U2-I5-Pad5)*%
X68500000Y-74000000D03*
%TO.P,U2,6,I6*%
%TO.N,unconnected-(U2-I6-Pad6)*%
X68500000Y-76540000D03*
%TO.P,U2,7,I7*%
%TO.N,unconnected-(U2-I7-Pad7)*%
X68500000Y-79080000D03*
%TO.P,U2,8,GND*%
%TO.N,GND*%
X68500000Y-81620000D03*
%TO.P,U2,9,COM*%
%TO.N,Net-(A1-VIN)*%
X76120000Y-81620000D03*
%TO.P,U2,10,O7*%
%TO.N,unconnected-(U2-O7-Pad10)*%
X76120000Y-79080000D03*
%TO.P,U2,11,O6*%
%TO.N,unconnected-(U2-O6-Pad11)*%
X76120000Y-76540000D03*
%TO.P,U2,12,O5*%
%TO.N,unconnected-(U2-O5-Pad12)*%
X76120000Y-74000000D03*
%TO.P,U2,13,O4*%
%TO.N,Net-(U2-O4)*%
X76120000Y-71460000D03*
%TO.P,U2,14,O3*%
%TO.N,Net-(U2-O3)*%
X76120000Y-68920000D03*
%TO.P,U2,15,O2*%
%TO.N,Net-(U2-O2)*%
X76120000Y-66380000D03*
%TO.P,U2,16,O1*%
%TO.N,Net-(U2-O1)*%
X76120000Y-63840000D03*
%TD*%
%TO.P,C2,1*%
%TO.N,Net-(A1-VIN)*%
X75000000Y-85500000D03*
%TO.P,C2,2*%
%TO.N,GND*%
X70000000Y-85500000D03*
%TD*%
D12*
%TO.P,A1,1,D1/TX*%
%TO.N,unconnected-(A1-D1{slash}TX-Pad1)*%
X92890000Y-54950000D03*
D13*
%TO.P,A1,2,D0/RX*%
%TO.N,unconnected-(A1-D0{slash}RX-Pad2)*%
X92890000Y-57490000D03*
%TO.P,A1,3,~{RESET}*%
%TO.N,unconnected-(A1-~{RESET}-Pad3)*%
X92890000Y-60030000D03*
%TO.P,A1,4,GND*%
%TO.N,GND*%
X92890000Y-62570000D03*
%TO.P,A1,5,D2*%
%TO.N,Net-(A1-D2)*%
X92890000Y-65110000D03*
%TO.P,A1,6,D3*%
%TO.N,Net-(A1-D3)*%
X92890000Y-67650000D03*
%TO.P,A1,7,D4*%
%TO.N,Net-(A1-D4)*%
X92890000Y-70190000D03*
%TO.P,A1,8,D5*%
%TO.N,Net-(A1-D5)*%
X92890000Y-72730000D03*
%TO.P,A1,9,D6*%
%TO.N,unconnected-(A1-D6-Pad9)*%
X92890000Y-75270000D03*
%TO.P,A1,10,D7*%
%TO.N,unconnected-(A1-D7-Pad10)*%
X92890000Y-77810000D03*
%TO.P,A1,11,D8*%
%TO.N,Net-(A1-D8)*%
X92890000Y-80350000D03*
%TO.P,A1,12,D9*%
%TO.N,Net-(A1-D9)*%
X92890000Y-82890000D03*
%TO.P,A1,13,D10*%
%TO.N,Net-(A1-D10)*%
X92890000Y-85430000D03*
%TO.P,A1,14,D11*%
%TO.N,Net-(A1-D11)*%
X92890000Y-87970000D03*
%TO.P,A1,15,D12*%
%TO.N,unconnected-(A1-D12-Pad15)*%
X92890000Y-90510000D03*
%TO.P,A1,16,D13*%
%TO.N,unconnected-(A1-D13-Pad16)*%
X108130000Y-90510000D03*
%TO.P,A1,17,3V3*%
%TO.N,unconnected-(A1-3V3-Pad17)*%
X108130000Y-87970000D03*
%TO.P,A1,18,AREF*%
%TO.N,unconnected-(A1-AREF-Pad18)*%
X108130000Y-85430000D03*
%TO.P,A1,19,A0*%
%TO.N,Net-(A1-A0)*%
X108130000Y-82890000D03*
%TO.P,A1,20,A1*%
%TO.N,Net-(A1-A1)*%
X108130000Y-80350000D03*
%TO.P,A1,21,A2*%
%TO.N,Net-(A1-A2)*%
X108130000Y-77810000D03*
%TO.P,A1,22,A3*%
%TO.N,Net-(A1-A3)*%
X108130000Y-75270000D03*
%TO.P,A1,23,A4*%
%TO.N,unconnected-(A1-A4-Pad23)*%
X108130000Y-72730000D03*
%TO.P,A1,24,A5*%
%TO.N,unconnected-(A1-A5-Pad24)*%
X108130000Y-70190000D03*
%TO.P,A1,25,A6*%
%TO.N,unconnected-(A1-A6-Pad25)*%
X108130000Y-67650000D03*
%TO.P,A1,26,A7*%
%TO.N,unconnected-(A1-A7-Pad26)*%
X108130000Y-65110000D03*
%TO.P,A1,27,+5V*%
%TO.N,unconnected-(A1-+5V-Pad27)*%
X108130000Y-62570000D03*
%TO.P,A1,28,~{RESET}*%
%TO.N,unconnected-(A1-~{RESET}-Pad28)*%
X108130000Y-60030000D03*
%TO.P,A1,29,GND*%
%TO.N,GND*%
X108130000Y-57490000D03*
%TO.P,A1,30,VIN*%
%TO.N,Net-(A1-VIN)*%
X108130000Y-54950000D03*
%TD*%
D10*
%TO.P,U1,1,I1*%
%TO.N,Net-(A1-D2)*%
X68695000Y-38610000D03*
D11*
%TO.P,U1,2,I2*%
%TO.N,Net-(A1-D3)*%
X68695000Y-41150000D03*
%TO.P,U1,3,I3*%
%TO.N,Net-(A1-D4)*%
X68695000Y-43690000D03*
%TO.P,U1,4,I4*%
%TO.N,Net-(A1-D5)*%
X68695000Y-46230000D03*
%TO.P,U1,5,I5*%
%TO.N,unconnected-(U1-I5-Pad5)*%
X68695000Y-48770000D03*
%TO.P,U1,6,I6*%
%TO.N,unconnected-(U1-I6-Pad6)*%
X68695000Y-51310000D03*
%TO.P,U1,7,I7*%
%TO.N,unconnected-(U1-I7-Pad7)*%
X68695000Y-53850000D03*
%TO.P,U1,8,GND*%
%TO.N,GND*%
X68695000Y-56390000D03*
%TO.P,U1,9,COM*%
%TO.N,Net-(A1-VIN)*%
X76315000Y-56390000D03*
%TO.P,U1,10,O7*%
%TO.N,unconnected-(U1-O7-Pad10)*%
X76315000Y-53850000D03*
%TO.P,U1,11,O6*%
%TO.N,unconnected-(U1-O6-Pad11)*%
X76315000Y-51310000D03*
%TO.P,U1,12,O5*%
%TO.N,unconnected-(U1-O5-Pad12)*%
X76315000Y-48770000D03*
%TO.P,U1,13,O4*%
%TO.N,Net-(U1-O4)*%
X76315000Y-46230000D03*
%TO.P,U1,14,O3*%
%TO.N,Net-(U1-O3)*%
X76315000Y-43690000D03*
%TO.P,U1,15,O2*%
%TO.N,Net-(U1-O2)*%
X76315000Y-41150000D03*
%TO.P,U1,16,O1*%
%TO.N,Net-(U1-O1)*%
X76315000Y-38610000D03*
%TD*%
D14*
%TO.P,J1,1*%
%TO.N,Net-(A1-VIN)*%
X119000000Y-100500000D03*
D15*
%TO.P,J1,2*%
%TO.N,GND*%
X119000000Y-106500000D03*
D16*
%TO.P,J1,3*%
%TO.N,N/C*%
X123700000Y-103500000D03*
%TD*%
D11*
%TO.P,C3,1*%
%TO.N,Net-(A1-VIN)*%
X74500000Y-110500000D03*
%TO.P,C3,2*%
%TO.N,GND*%
X69500000Y-110500000D03*
%TD*%
D12*
%TO.P,C4,1*%
%TO.N,Net-(A1-VIN)*%
X120500000Y-58500000D03*
D11*
%TO.P,C4,2*%
%TO.N,GND*%
X118000000Y-58500000D03*
%TD*%
%TO.P,C1,1*%
%TO.N,Net-(A1-VIN)*%
X75000000Y-60310000D03*
%TO.P,C1,2*%
%TO.N,GND*%
X70000000Y-60310000D03*
%TD*%
D17*
%TO.P,J4,1,1*%
%TO.N,Net-(U3-O1)*%
X83025000Y-89500000D03*
D18*
%TO.P,J4,2,2*%
%TO.N,Net-(U3-O2)*%
X83025000Y-92000000D03*
%TO.P,J4,3,3*%
%TO.N,Net-(U3-O3)*%
X83025000Y-94500000D03*
%TO.P,J4,4,4*%
%TO.N,Net-(U3-O4)*%
X83025000Y-97000000D03*
%TO.P,J4,5,5*%
%TO.N,Net-(A1-VIN)*%
X83025000Y-99500000D03*
%TD*%
D17*
%TO.P,J3,1,1*%
%TO.N,Net-(U2-O1)*%
X83025000Y-67000000D03*
D18*
%TO.P,J3,2,2*%
%TO.N,Net-(U2-O2)*%
X83025000Y-69500000D03*
%TO.P,J3,3,3*%
%TO.N,Net-(U2-O3)*%
X83025000Y-72000000D03*
%TO.P,J3,4,4*%
%TO.N,Net-(U2-O4)*%
X83025000Y-74500000D03*
%TO.P,J3,5,5*%
%TO.N,Net-(A1-VIN)*%
X83025000Y-77000000D03*
%TD*%
D17*
%TO.P,J2,1,1*%
%TO.N,Net-(U1-O1)*%
X83000000Y-44000000D03*
D18*
%TO.P,J2,2,2*%
%TO.N,Net-(U1-O2)*%
X83000000Y-46500000D03*
%TO.P,J2,3,3*%
%TO.N,Net-(U1-O3)*%
X83000000Y-49000000D03*
%TO.P,J2,4,4*%
%TO.N,Net-(U1-O4)*%
X83000000Y-51500000D03*
%TO.P,J2,5,5*%
%TO.N,Net-(A1-VIN)*%
X83000000Y-54000000D03*
%TD*%
D10*
%TO.P,U3,1,I1*%
%TO.N,Net-(A1-A3)*%
X68380000Y-89340000D03*
D11*
%TO.P,U3,2,I2*%
%TO.N,Net-(A1-A2)*%
X68380000Y-91880000D03*
%TO.P,U3,3,I3*%
%TO.N,Net-(A1-A1)*%
X68380000Y-94420000D03*
%TO.P,U3,4,I4*%
%TO.N,Net-(A1-A0)*%
X68380000Y-96960000D03*
%TO.P,U3,5,I5*%
%TO.N,unconnected-(U3-I5-Pad5)*%
X68380000Y-99500000D03*
%TO.P,U3,6,I6*%
%TO.N,unconnected-(U3-I6-Pad6)*%
X68380000Y-102040000D03*
%TO.P,U3,7,I7*%
%TO.N,unconnected-(U3-I7-Pad7)*%
X68380000Y-104580000D03*
%TO.P,U3,8,GND*%
%TO.N,GND*%
X68380000Y-107120000D03*
%TO.P,U3,9,COM*%
%TO.N,Net-(A1-VIN)*%
X76000000Y-107120000D03*
%TO.P,U3,10,O7*%
%TO.N,unconnected-(U3-O7-Pad10)*%
X76000000Y-104580000D03*
%TO.P,U3,11,O6*%
%TO.N,unconnected-(U3-O6-Pad11)*%
X76000000Y-102040000D03*
%TO.P,U3,12,O5*%
%TO.N,unconnected-(U3-O5-Pad12)*%
X76000000Y-99500000D03*
%TO.P,U3,13,O4*%
%TO.N,Net-(U3-O4)*%
X76000000Y-96960000D03*
%TO.P,U3,14,O3*%
%TO.N,Net-(U3-O3)*%
X76000000Y-94420000D03*
%TO.P,U3,15,O2*%
%TO.N,Net-(U3-O2)*%
X76000000Y-91880000D03*
%TO.P,U3,16,O1*%
%TO.N,Net-(U3-O1)*%
X76000000Y-89340000D03*
%TD*%
D19*
%TO.N,Net-(A1-VIN)*%
X75000000Y-57705000D02*
X76315000Y-56390000D01*
X76120000Y-81620000D02*
X78405000Y-81620000D01*
D20*
X75000000Y-85500000D02*
X75000000Y-85000000D01*
D21*
X119000000Y-83042500D02*
X119000000Y-100500000D01*
X108130000Y-54950000D02*
X119042500Y-65862500D01*
X119042500Y-65862500D02*
X119042500Y-83000000D01*
X119042500Y-83000000D02*
X119000000Y-83042500D01*
X76000000Y-107120000D02*
X83025000Y-100095000D01*
D19*
X76120000Y-84380000D02*
X75000000Y-85500000D01*
X76120000Y-81620000D02*
X76120000Y-84380000D01*
D21*
X86500000Y-59000000D02*
X83000000Y-55500000D01*
X83451000Y-53549000D02*
X83000000Y-54000000D01*
X83025000Y-78525000D02*
X83025000Y-77000000D01*
D19*
X78405000Y-81620000D02*
X83025000Y-77000000D01*
D21*
X83025000Y-77000000D02*
X86500000Y-73525000D01*
D19*
X83025000Y-100095000D02*
X83025000Y-99500000D01*
X74500000Y-110500000D02*
X74500000Y-108620000D01*
D20*
X76315000Y-56390000D02*
X76610000Y-56390000D01*
D21*
X108130000Y-54950000D02*
X106729000Y-53549000D01*
X120500000Y-58500000D02*
X120500000Y-64405000D01*
D19*
X74500000Y-108620000D02*
X76000000Y-107120000D01*
X78705000Y-54000000D02*
X76315000Y-56390000D01*
X75000000Y-60310000D02*
X75000000Y-57705000D01*
D21*
X106729000Y-53549000D02*
X83451000Y-53549000D01*
X83000000Y-55500000D02*
X83000000Y-54000000D01*
D19*
X83000000Y-54000000D02*
X78705000Y-54000000D01*
D21*
X86500000Y-96025000D02*
X86500000Y-82000000D01*
X120500000Y-64405000D02*
X119042500Y-65862500D01*
X86500000Y-73525000D02*
X86500000Y-59000000D01*
X83025000Y-99500000D02*
X86500000Y-96025000D01*
X86500000Y-82000000D02*
X83025000Y-78525000D01*
D19*
%TO.N,Net-(U1-O1)*%
X76315000Y-38610000D02*
X77610000Y-38610000D01*
X77610000Y-38610000D02*
X83000000Y-44000000D01*
%TO.N,Net-(U1-O2)*%
X77650000Y-41150000D02*
X83000000Y-46500000D01*
X76315000Y-41150000D02*
X77650000Y-41150000D01*
%TO.N,Net-(U1-O3)*%
X76315000Y-43690000D02*
X77690000Y-43690000D01*
X77690000Y-43690000D02*
X83000000Y-49000000D01*
%TO.N,Net-(U1-O4)*%
X76315000Y-46230000D02*
X77730000Y-46230000D01*
X77730000Y-46230000D02*
X83000000Y-51500000D01*
%TO.N,Net-(U2-O3)*%
X76120000Y-68920000D02*
X79945000Y-68920000D01*
X79945000Y-68920000D02*
X83025000Y-72000000D01*
%TO.N,Net-(U2-O2)*%
X76120000Y-66380000D02*
X79905000Y-66380000D01*
X79905000Y-66380000D02*
X83025000Y-69500000D01*
%TO.N,Net-(U2-O4)*%
X76120000Y-71460000D02*
X79985000Y-71460000D01*
X79985000Y-71460000D02*
X83025000Y-74500000D01*
%TO.N,Net-(U2-O1)*%
X76120000Y-63840000D02*
X79865000Y-63840000D01*
X79865000Y-63840000D02*
X83025000Y-67000000D01*
%TO.N,Net-(U3-O3)*%
X82945000Y-94420000D02*
X83025000Y-94500000D01*
X76000000Y-94420000D02*
X82945000Y-94420000D01*
%TO.N,Net-(U3-O2)*%
X82905000Y-91880000D02*
X83025000Y-92000000D01*
X76000000Y-91880000D02*
X82905000Y-91880000D01*
%TO.N,Net-(U3-O4)*%
X76000000Y-96960000D02*
X82985000Y-96960000D01*
X82985000Y-96960000D02*
X83025000Y-97000000D01*
%TO.N,Net-(U3-O1)*%
X82865000Y-89340000D02*
X83025000Y-89500000D01*
X76000000Y-89340000D02*
X82865000Y-89340000D01*
D21*
%TO.N,GND*%
X108130000Y-57490000D02*
X115691500Y-65051500D01*
D19*
X68500000Y-84000000D02*
X70000000Y-85500000D01*
X68380000Y-109380000D02*
X69500000Y-110500000D01*
D21*
X102930000Y-62570000D02*
X92890000Y-62570000D01*
X108130000Y-57490000D02*
X108010000Y-57490000D01*
D19*
X68695000Y-59005000D02*
X70000000Y-60310000D01*
D21*
X108010000Y-57490000D02*
X102930000Y-62570000D01*
X115691500Y-65051500D02*
X115691500Y-103191500D01*
D19*
X68380000Y-107120000D02*
X68380000Y-109380000D01*
D21*
X115691500Y-103191500D02*
X119000000Y-106500000D01*
D19*
X68500000Y-81620000D02*
X68500000Y-84000000D01*
X68695000Y-56390000D02*
X68695000Y-59005000D01*
%TD*%
M02*
