%TF.GenerationSoftware,KiCad,Pcbnew,9.0.0*%
%TF.CreationDate,2025-06-11T13:28:55+03:00*%
%TF.ProjectId,motorControlBoard,6d6f746f-7243-46f6-9e74-726f6c426f61,rev?*%
%TF.SameCoordinates,Original*%
%TF.FileFunction,Soldermask,Bot*%
%TF.FilePolarity,Negative*%
%FSLAX46Y46*%
G04 Gerber Fmt 4.6, Leading zero omitted, Abs format (unit mm)*
G04 Created by KiCad (PCBNEW 9.0.0) date 2025-06-11 13:28:55*
%MOMM*%
%LPD*%
G01*
G04 APERTURE LIST*
G04 Aperture macros list*
%AMRoundRect*
0 Rectangle with rounded corners*
0 $1 Rounding radius*
0 $2 $3 $4 $5 $6 $7 $8 $9 X,Y pos of 4 corners*
0 Add a 4 corners polygon primitive as box body*
4,1,4,$2,$3,$4,$5,$6,$7,$8,$9,$2,$3,0*
0 Add four circle primitives for the rounded corners*
1,1,$1+$1,$2,$3*
1,1,$1+$1,$4,$5*
1,1,$1+$1,$6,$7*
1,1,$1+$1,$8,$9*
0 Add four rect primitives between the rounded corners*
20,1,$1+$1,$2,$3,$4,$5,0*
20,1,$1+$1,$4,$5,$6,$7,0*
20,1,$1+$1,$6,$7,$8,$9,0*
20,1,$1+$1,$8,$9,$2,$3,0*%
G04 Aperture macros list end*
%ADD10R,1.800000X1.800000*%
%ADD11C,1.800000*%
%ADD12O,1.400000X1.400000*%
%ADD13C,1.400000*%
%ADD14R,1.600000X1.600000*%
%ADD15O,1.600000X1.600000*%
%ADD16RoundRect,0.250000X-0.600000X-0.725000X0.600000X-0.725000X0.600000X0.725000X-0.600000X0.725000X0*%
%ADD17O,1.700000X1.950000*%
%ADD18C,1.600000*%
%ADD19R,3.500000X3.500000*%
%ADD20RoundRect,0.750000X1.000000X-0.750000X1.000000X0.750000X-1.000000X0.750000X-1.000000X-0.750000X0*%
%ADD21RoundRect,0.875000X0.875000X-0.875000X0.875000X0.875000X-0.875000X0.875000X-0.875000X-0.875000X0*%
%ADD22RoundRect,0.250000X0.550000X-0.550000X0.550000X0.550000X-0.550000X0.550000X-0.550000X-0.550000X0*%
G04 APERTURE END LIST*
D10*
%TO.C,D1*%
X133460000Y-66000000D03*
D11*
X136000000Y-66000000D03*
%TD*%
D12*
%TO.C,R1*%
X133500000Y-78810000D03*
D13*
X133500000Y-71190000D03*
%TD*%
D14*
%TO.C,A1*%
X111500000Y-48450000D03*
D15*
X111500000Y-50990000D03*
X111500000Y-53530000D03*
X111500000Y-56070000D03*
X111500000Y-58610000D03*
X111500000Y-61150000D03*
X111500000Y-63690000D03*
X111500000Y-66230000D03*
X111500000Y-68770000D03*
X111500000Y-71310000D03*
X111500000Y-73850000D03*
X111500000Y-76390000D03*
X111500000Y-78930000D03*
X111500000Y-81470000D03*
X111500000Y-84010000D03*
X126740000Y-84010000D03*
X126740000Y-81470000D03*
X126740000Y-78930000D03*
X126740000Y-76390000D03*
X126740000Y-73850000D03*
X126740000Y-71310000D03*
X126740000Y-68770000D03*
X126740000Y-66230000D03*
X126740000Y-63690000D03*
X126740000Y-61150000D03*
X126740000Y-58610000D03*
X126740000Y-56070000D03*
X126740000Y-53530000D03*
X126740000Y-50990000D03*
X126740000Y-48450000D03*
%TD*%
D16*
%TO.C,J4*%
X142000000Y-68500000D03*
D17*
X144500000Y-68500000D03*
X147000000Y-68500000D03*
X149500000Y-68500000D03*
X152000000Y-68500000D03*
%TD*%
D16*
%TO.C,J2*%
X142000000Y-55475000D03*
D17*
X144500000Y-55475000D03*
X147000000Y-55475000D03*
X149500000Y-55475000D03*
X152000000Y-55475000D03*
%TD*%
D18*
%TO.C,C2*%
X146500000Y-23500000D03*
X141500000Y-23500000D03*
%TD*%
D16*
%TO.C,J3*%
X142000000Y-41975000D03*
D17*
X144500000Y-41975000D03*
X147000000Y-41975000D03*
X149500000Y-41975000D03*
X152000000Y-41975000D03*
%TD*%
D19*
%TO.C,J1*%
X145500000Y-76500000D03*
D20*
X145500000Y-82500000D03*
D21*
X150200000Y-79500000D03*
%TD*%
D22*
%TO.C,U1*%
X111460000Y-34500000D03*
D18*
X114000000Y-34500000D03*
X116540000Y-34500000D03*
X119080000Y-34500000D03*
X121620000Y-34500000D03*
X124160000Y-34500000D03*
X126700000Y-34500000D03*
X129240000Y-34500000D03*
X129240000Y-26880000D03*
X126700000Y-26880000D03*
X124160000Y-26880000D03*
X121620000Y-26880000D03*
X119080000Y-26880000D03*
X116540000Y-26880000D03*
X114000000Y-26880000D03*
X111460000Y-26880000D03*
%TD*%
%TO.C,C1*%
X123000000Y-23500000D03*
X118000000Y-23500000D03*
%TD*%
D22*
%TO.C,U2*%
X134920000Y-34500000D03*
D18*
X137460000Y-34500000D03*
X140000000Y-34500000D03*
X142540000Y-34500000D03*
X145080000Y-34500000D03*
X147620000Y-34500000D03*
X150160000Y-34500000D03*
X152700000Y-34500000D03*
X152700000Y-26880000D03*
X150160000Y-26880000D03*
X147620000Y-26880000D03*
X145080000Y-26880000D03*
X142540000Y-26880000D03*
X140000000Y-26880000D03*
X137460000Y-26880000D03*
X134920000Y-26880000D03*
%TD*%
D14*
%TO.C,C4*%
X132500000Y-87000000D03*
D18*
X135000000Y-87000000D03*
%TD*%
M02*
