%TF.GenerationSoftware,KiCad,Pcbnew,9.0.0*%
%TF.CreationDate,2025-06-11T13:28:55+03:00*%
%TF.ProjectId,motorControlBoard,6d6f746f-7243-46f6-9e74-726f6c426f61,rev?*%
%TF.SameCoordinates,Original*%
%TF.FileFunction,Copper,L2,Bot*%
%TF.FilePolarity,Positive*%
%FSLAX46Y46*%
G04 Gerber Fmt 4.6, Leading zero omitted, Abs format (unit mm)*
G04 Created by KiCad (PCBNEW 9.0.0) date 2025-06-11 13:28:55*
%MOMM*%
%LPD*%
G01*
G04 APERTURE LIST*
G04 Aperture macros list*
%AMRoundRect*
0 Rectangle with rounded corners*
0 $1 Rounding radius*
0 $2 $3 $4 $5 $6 $7 $8 $9 X,Y pos of 4 corners*
0 Add a 4 corners polygon primitive as box body*
4,1,4,$2,$3,$4,$5,$6,$7,$8,$9,$2,$3,0*
0 Add four circle primitives for the rounded corners*
1,1,$1+$1,$2,$3*
1,1,$1+$1,$4,$5*
1,1,$1+$1,$6,$7*
1,1,$1+$1,$8,$9*
0 Add four rect primitives between the rounded corners*
20,1,$1+$1,$2,$3,$4,$5,0*
20,1,$1+$1,$4,$5,$6,$7,0*
20,1,$1+$1,$6,$7,$8,$9,0*
20,1,$1+$1,$8,$9,$2,$3,0*%
G04 Aperture macros list end*
%TA.AperFunction,ComponentPad*%
%ADD10R,1.800000X1.800000*%
%TD*%
%TA.AperFunction,ComponentPad*%
%ADD11C,1.800000*%
%TD*%
%TA.AperFunction,ComponentPad*%
%ADD12O,1.400000X1.400000*%
%TD*%
%TA.AperFunction,ComponentPad*%
%ADD13C,1.400000*%
%TD*%
%TA.AperFunction,ComponentPad*%
%ADD14R,1.600000X1.600000*%
%TD*%
%TA.AperFunction,ComponentPad*%
%ADD15O,1.600000X1.600000*%
%TD*%
%TA.AperFunction,ComponentPad*%
%ADD16RoundRect,0.250000X-0.600000X-0.725000X0.600000X-0.725000X0.600000X0.725000X-0.600000X0.725000X0*%
%TD*%
%TA.AperFunction,ComponentPad*%
%ADD17O,1.700000X1.950000*%
%TD*%
%TA.AperFunction,ComponentPad*%
%ADD18C,1.600000*%
%TD*%
%TA.AperFunction,ComponentPad*%
%ADD19R,3.500000X3.500000*%
%TD*%
%TA.AperFunction,ComponentPad*%
%ADD20RoundRect,0.750000X1.000000X-0.750000X1.000000X0.750000X-1.000000X0.750000X-1.000000X-0.750000X0*%
%TD*%
%TA.AperFunction,ComponentPad*%
%ADD21RoundRect,0.875000X0.875000X-0.875000X0.875000X0.875000X-0.875000X0.875000X-0.875000X-0.875000X0*%
%TD*%
%TA.AperFunction,ComponentPad*%
%ADD22RoundRect,0.250000X0.550000X-0.550000X0.550000X0.550000X-0.550000X0.550000X-0.550000X-0.550000X0*%
%TD*%
%TA.AperFunction,ViaPad*%
%ADD23C,0.600000*%
%TD*%
%TA.AperFunction,Conductor*%
%ADD24C,0.800000*%
%TD*%
%TA.AperFunction,Conductor*%
%ADD25C,0.500000*%
%TD*%
%TA.AperFunction,Conductor*%
%ADD26C,0.200000*%
%TD*%
G04 APERTURE END LIST*
D10*
%TO.P,D1,1,K*%
%TO.N,Net-(D1-K)*%
X133460000Y-66000000D03*
D11*
%TO.P,D1,2,A*%
%TO.N,Net-(A1-VIN)*%
X136000000Y-66000000D03*
%TD*%
D12*
%TO.P,R1,2*%
%TO.N,GND*%
X133500000Y-78810000D03*
D13*
%TO.P,R1,1*%
%TO.N,Net-(D1-K)*%
X133500000Y-71190000D03*
%TD*%
D14*
%TO.P,A1,1,D1/TX*%
%TO.N,unconnected-(A1-D1{slash}TX-Pad1)*%
X111500000Y-48450000D03*
D15*
%TO.P,A1,2,D0/RX*%
%TO.N,unconnected-(A1-D0{slash}RX-Pad2)*%
X111500000Y-50990000D03*
%TO.P,A1,3,~{RESET}*%
%TO.N,unconnected-(A1-~{RESET}-Pad3)*%
X111500000Y-53530000D03*
%TO.P,A1,4,GND*%
%TO.N,GND*%
X111500000Y-56070000D03*
%TO.P,A1,5,D2*%
%TO.N,Net-(A1-D2)*%
X111500000Y-58610000D03*
%TO.P,A1,6,D3*%
%TO.N,Net-(A1-D3)*%
X111500000Y-61150000D03*
%TO.P,A1,7,D4*%
%TO.N,Net-(A1-D4)*%
X111500000Y-63690000D03*
%TO.P,A1,8,D5*%
%TO.N,Net-(A1-D5)*%
X111500000Y-66230000D03*
%TO.P,A1,9,D6*%
%TO.N,unconnected-(A1-D6-Pad9)*%
X111500000Y-68770000D03*
%TO.P,A1,10,D7*%
%TO.N,unconnected-(A1-D7-Pad10)*%
X111500000Y-71310000D03*
%TO.P,A1,11,D8*%
%TO.N,Net-(A1-D8)*%
X111500000Y-73850000D03*
%TO.P,A1,12,D9*%
%TO.N,Net-(A1-D9)*%
X111500000Y-76390000D03*
%TO.P,A1,13,D10*%
%TO.N,Net-(A1-D10)*%
X111500000Y-78930000D03*
%TO.P,A1,14,D11*%
%TO.N,Net-(A1-D11)*%
X111500000Y-81470000D03*
%TO.P,A1,15,D12*%
%TO.N,unconnected-(A1-D12-Pad15)*%
X111500000Y-84010000D03*
%TO.P,A1,16,D13*%
%TO.N,unconnected-(A1-D13-Pad16)*%
X126740000Y-84010000D03*
%TO.P,A1,17,3V3*%
%TO.N,unconnected-(A1-3V3-Pad17)*%
X126740000Y-81470000D03*
%TO.P,A1,18,AREF*%
%TO.N,unconnected-(A1-AREF-Pad18)*%
X126740000Y-78930000D03*
%TO.P,A1,19,A0*%
%TO.N,Net-(A1-A0)*%
X126740000Y-76390000D03*
%TO.P,A1,20,A1*%
%TO.N,Net-(A1-A1)*%
X126740000Y-73850000D03*
%TO.P,A1,21,A2*%
%TO.N,Net-(A1-A2)*%
X126740000Y-71310000D03*
%TO.P,A1,22,A3*%
%TO.N,Net-(A1-A3)*%
X126740000Y-68770000D03*
%TO.P,A1,23,A4*%
%TO.N,unconnected-(A1-A4-Pad23)*%
X126740000Y-66230000D03*
%TO.P,A1,24,A5*%
%TO.N,unconnected-(A1-A5-Pad24)*%
X126740000Y-63690000D03*
%TO.P,A1,25,A6*%
%TO.N,unconnected-(A1-A6-Pad25)*%
X126740000Y-61150000D03*
%TO.P,A1,26,A7*%
%TO.N,unconnected-(A1-A7-Pad26)*%
X126740000Y-58610000D03*
%TO.P,A1,27,+5V*%
%TO.N,unconnected-(A1-+5V-Pad27)*%
X126740000Y-56070000D03*
%TO.P,A1,28,~{RESET}*%
%TO.N,unconnected-(A1-~{RESET}-Pad28)*%
X126740000Y-53530000D03*
%TO.P,A1,29,GND*%
%TO.N,GND*%
X126740000Y-50990000D03*
%TO.P,A1,30,VIN*%
%TO.N,Net-(A1-VIN)*%
X126740000Y-48450000D03*
%TD*%
D16*
%TO.P,J4,1,1*%
%TO.N,Net-(U1-O5)*%
X142000000Y-68500000D03*
D17*
%TO.P,J4,2,2*%
%TO.N,Net-(U1-O6)*%
X144500000Y-68500000D03*
%TO.P,J4,3,3*%
%TO.N,Net-(U1-O7)*%
X147000000Y-68500000D03*
%TO.P,J4,4,4*%
%TO.N,Net-(U2-O5)*%
X149500000Y-68500000D03*
%TO.P,J4,5,5*%
%TO.N,Net-(A1-VIN)*%
X152000000Y-68500000D03*
%TD*%
D16*
%TO.P,J2,1,1*%
%TO.N,Net-(U1-O1)*%
X142000000Y-55475000D03*
D17*
%TO.P,J2,2,2*%
%TO.N,Net-(U1-O2)*%
X144500000Y-55475000D03*
%TO.P,J2,3,3*%
%TO.N,Net-(U1-O3)*%
X147000000Y-55475000D03*
%TO.P,J2,4,4*%
%TO.N,Net-(U1-O4)*%
X149500000Y-55475000D03*
%TO.P,J2,5,5*%
%TO.N,Net-(A1-VIN)*%
X152000000Y-55475000D03*
%TD*%
D18*
%TO.P,C2,1*%
%TO.N,Net-(A1-VIN)*%
X146500000Y-23500000D03*
%TO.P,C2,2*%
%TO.N,GND*%
X141500000Y-23500000D03*
%TD*%
D16*
%TO.P,J3,1,1*%
%TO.N,Net-(U2-O1)*%
X142000000Y-41975000D03*
D17*
%TO.P,J3,2,2*%
%TO.N,Net-(U2-O2)*%
X144500000Y-41975000D03*
%TO.P,J3,3,3*%
%TO.N,Net-(U2-O3)*%
X147000000Y-41975000D03*
%TO.P,J3,4,4*%
%TO.N,Net-(U2-O4)*%
X149500000Y-41975000D03*
%TO.P,J3,5,5*%
%TO.N,Net-(A1-VIN)*%
X152000000Y-41975000D03*
%TD*%
D19*
%TO.P,J1,1*%
%TO.N,Net-(A1-VIN)*%
X145500000Y-76500000D03*
D20*
%TO.P,J1,2*%
%TO.N,GND*%
X145500000Y-82500000D03*
D21*
%TO.P,J1,3*%
%TO.N,N/C*%
X150200000Y-79500000D03*
%TD*%
D22*
%TO.P,U1,1,I1*%
%TO.N,Net-(A1-D2)*%
X111460000Y-34500000D03*
D18*
%TO.P,U1,2,I2*%
%TO.N,Net-(A1-D3)*%
X114000000Y-34500000D03*
%TO.P,U1,3,I3*%
%TO.N,Net-(A1-D4)*%
X116540000Y-34500000D03*
%TO.P,U1,4,I4*%
%TO.N,Net-(A1-D5)*%
X119080000Y-34500000D03*
%TO.P,U1,5,I5*%
%TO.N,Net-(A1-A1)*%
X121620000Y-34500000D03*
%TO.P,U1,6,I6*%
%TO.N,Net-(A1-A2)*%
X124160000Y-34500000D03*
%TO.P,U1,7,I7*%
%TO.N,Net-(A1-A3)*%
X126700000Y-34500000D03*
%TO.P,U1,8,GND*%
%TO.N,GND*%
X129240000Y-34500000D03*
%TO.P,U1,9,COM*%
%TO.N,Net-(A1-VIN)*%
X129240000Y-26880000D03*
%TO.P,U1,10,O7*%
%TO.N,Net-(U1-O7)*%
X126700000Y-26880000D03*
%TO.P,U1,11,O6*%
%TO.N,Net-(U1-O6)*%
X124160000Y-26880000D03*
%TO.P,U1,12,O5*%
%TO.N,Net-(U1-O5)*%
X121620000Y-26880000D03*
%TO.P,U1,13,O4*%
%TO.N,Net-(U1-O4)*%
X119080000Y-26880000D03*
%TO.P,U1,14,O3*%
%TO.N,Net-(U1-O3)*%
X116540000Y-26880000D03*
%TO.P,U1,15,O2*%
%TO.N,Net-(U1-O2)*%
X114000000Y-26880000D03*
%TO.P,U1,16,O1*%
%TO.N,Net-(U1-O1)*%
X111460000Y-26880000D03*
%TD*%
%TO.P,C1,1*%
%TO.N,Net-(A1-VIN)*%
X123000000Y-23500000D03*
%TO.P,C1,2*%
%TO.N,GND*%
X118000000Y-23500000D03*
%TD*%
D22*
%TO.P,U2,1,I1*%
%TO.N,Net-(A1-D8)*%
X134920000Y-34500000D03*
D18*
%TO.P,U2,2,I2*%
%TO.N,Net-(A1-D9)*%
X137460000Y-34500000D03*
%TO.P,U2,3,I3*%
%TO.N,Net-(A1-D10)*%
X140000000Y-34500000D03*
%TO.P,U2,4,I4*%
%TO.N,Net-(A1-D11)*%
X142540000Y-34500000D03*
%TO.P,U2,5,I5*%
%TO.N,Net-(A1-A0)*%
X145080000Y-34500000D03*
%TO.P,U2,6,I6*%
%TO.N,unconnected-(U2-I6-Pad6)*%
X147620000Y-34500000D03*
%TO.P,U2,7,I7*%
%TO.N,unconnected-(U2-I7-Pad7)*%
X150160000Y-34500000D03*
%TO.P,U2,8,GND*%
%TO.N,GND*%
X152700000Y-34500000D03*
%TO.P,U2,9,COM*%
%TO.N,Net-(A1-VIN)*%
X152700000Y-26880000D03*
%TO.P,U2,10,O7*%
%TO.N,unconnected-(U2-O7-Pad10)*%
X150160000Y-26880000D03*
%TO.P,U2,11,O6*%
%TO.N,unconnected-(U2-O6-Pad11)*%
X147620000Y-26880000D03*
%TO.P,U2,12,O5*%
%TO.N,Net-(U2-O5)*%
X145080000Y-26880000D03*
%TO.P,U2,13,O4*%
%TO.N,Net-(U2-O4)*%
X142540000Y-26880000D03*
%TO.P,U2,14,O3*%
%TO.N,Net-(U2-O3)*%
X140000000Y-26880000D03*
%TO.P,U2,15,O2*%
%TO.N,Net-(U2-O2)*%
X137460000Y-26880000D03*
%TO.P,U2,16,O1*%
%TO.N,Net-(U2-O1)*%
X134920000Y-26880000D03*
%TD*%
D14*
%TO.P,C4,1*%
%TO.N,Net-(A1-VIN)*%
X132500000Y-87000000D03*
D18*
%TO.P,C4,2*%
%TO.N,GND*%
X135000000Y-87000000D03*
%TD*%
D23*
%TO.N,Net-(U1-O1)*%
X124500000Y-42000000D03*
X128000000Y-45500000D03*
%TO.N,Net-(U1-O2)*%
X125500000Y-41000000D03*
X128340000Y-44775844D03*
%TO.N,Net-(U1-O3)*%
X130468635Y-36968635D03*
X133500000Y-40000000D03*
%TO.N,Net-(U1-O4)*%
X134065687Y-39434313D03*
X130500000Y-36000000D03*
%TD*%
D24*
%TO.N,Net-(A1-VIN)*%
X124500000Y-83751314D02*
X124500000Y-50690000D01*
X124500000Y-50690000D02*
X126740000Y-48450000D01*
X127748686Y-87000000D02*
X124500000Y-83751314D01*
X132500000Y-87000000D02*
X127748686Y-87000000D01*
D25*
%TO.N,Net-(U1-O7)*%
X155351000Y-67113892D02*
X152538892Y-69926000D01*
X155351000Y-26346190D02*
X155351000Y-67113892D01*
X151253810Y-22249000D02*
X155351000Y-26346190D01*
X131331000Y-22249000D02*
X151253810Y-22249000D01*
X152538892Y-69926000D02*
X148426000Y-69926000D01*
X148426000Y-69926000D02*
X147000000Y-68500000D01*
X126700000Y-26880000D02*
X131331000Y-22249000D01*
%TO.N,Net-(U1-O6)*%
X124160000Y-26880000D02*
X129492000Y-21548000D01*
X152829256Y-70627000D02*
X146627000Y-70627000D01*
X151544174Y-21548000D02*
X156052000Y-26055826D01*
X156052000Y-26055826D02*
X156052000Y-67404256D01*
X146627000Y-70627000D02*
X144500000Y-68500000D01*
X156052000Y-67404256D02*
X152829256Y-70627000D01*
X129492000Y-21548000D02*
X151544174Y-21548000D01*
%TO.N,Net-(U2-O5)*%
X153301000Y-41311108D02*
X153301000Y-64699000D01*
X153301000Y-64699000D02*
X149500000Y-68500000D01*
X151411000Y-33211000D02*
X151411000Y-39421108D01*
X145080000Y-26880000D02*
X151411000Y-33211000D01*
X151411000Y-39421108D02*
X153301000Y-41311108D01*
%TO.N,Net-(U1-O5)*%
X127653000Y-20847000D02*
X151834538Y-20847000D01*
X151834538Y-20847000D02*
X156753000Y-25765462D01*
X156753000Y-25765462D02*
X156753000Y-67694620D01*
X153119620Y-71328000D02*
X144828000Y-71328000D01*
X144828000Y-71328000D02*
X142000000Y-68500000D01*
X156753000Y-67694620D02*
X153119620Y-71328000D01*
X121620000Y-26880000D02*
X127653000Y-20847000D01*
%TO.N,Net-(U1-O1)*%
X111460000Y-26880000D02*
X117829000Y-33249000D01*
X137975000Y-55475000D02*
X142000000Y-55475000D01*
X117829000Y-33249000D02*
X117829000Y-35329000D01*
X128000000Y-45500000D02*
X137975000Y-55475000D01*
X117829000Y-35329000D02*
X124500000Y-42000000D01*
%TO.N,Net-(U1-O2)*%
X133800844Y-44775844D02*
X144500000Y-55475000D01*
X128340000Y-44775844D02*
X133800844Y-44775844D01*
X120331000Y-35831000D02*
X125500000Y-41000000D01*
X120331000Y-33211000D02*
X120331000Y-35831000D01*
X114000000Y-26880000D02*
X120331000Y-33211000D01*
%TO.N,Net-(U1-O3)*%
X147000000Y-53500000D02*
X147000000Y-55475000D01*
X116540000Y-26880000D02*
X122871000Y-33211000D01*
X133500000Y-40000000D02*
X147000000Y-53500000D01*
X124859453Y-36968635D02*
X130468635Y-36968635D01*
X122871000Y-34980182D02*
X124859453Y-36968635D01*
X122871000Y-33211000D02*
X122871000Y-34980182D01*
%TO.N,Net-(U1-O4)*%
X125411000Y-33211000D02*
X125411000Y-34980182D01*
X126430818Y-36000000D02*
X130500000Y-36000000D01*
X149500000Y-54868626D02*
X149500000Y-55475000D01*
X125411000Y-34980182D02*
X126430818Y-36000000D01*
X134065687Y-39434313D02*
X149500000Y-54868626D01*
X119080000Y-26880000D02*
X125411000Y-33211000D01*
%TO.N,Net-(U2-O3)*%
X143829000Y-30709000D02*
X143829000Y-38804000D01*
X143829000Y-38804000D02*
X147000000Y-41975000D01*
X140000000Y-26880000D02*
X143829000Y-30709000D01*
%TO.N,Net-(U2-O2)*%
X141251000Y-30671000D02*
X141251000Y-38726000D01*
X141251000Y-38726000D02*
X144500000Y-41975000D01*
X137460000Y-26880000D02*
X141251000Y-30671000D01*
%TO.N,Net-(U2-O4)*%
X146369000Y-30709000D02*
X146369000Y-38844000D01*
X146369000Y-38844000D02*
X149500000Y-41975000D01*
X142540000Y-26880000D02*
X146369000Y-30709000D01*
%TO.N,Net-(U2-O1)*%
X138711000Y-30671000D02*
X138711000Y-38686000D01*
X138711000Y-38686000D02*
X142000000Y-41975000D01*
X134920000Y-26880000D02*
X138711000Y-30671000D01*
D26*
%TO.N,Net-(A1-D10)*%
X134000000Y-25000000D02*
X135500000Y-25000000D01*
X114599000Y-70183900D02*
X114599000Y-54253900D01*
X111500000Y-78930000D02*
X110399000Y-77829000D01*
X133000000Y-35852900D02*
X133000000Y-26000000D01*
X110399000Y-77829000D02*
X110399000Y-73393950D01*
X135500000Y-25000000D02*
X136021000Y-25521000D01*
X112033900Y-72749000D02*
X114599000Y-70183900D01*
X133000000Y-26000000D02*
X134000000Y-25000000D01*
X114599000Y-54253900D02*
X133000000Y-35852900D01*
X110399000Y-73393950D02*
X111043950Y-72749000D01*
X111043950Y-72749000D02*
X112033900Y-72749000D01*
X136021000Y-27201768D02*
X140000000Y-31180768D01*
X136021000Y-25521000D02*
X136021000Y-27201768D01*
X140000000Y-31180768D02*
X140000000Y-34500000D01*
%TO.N,Net-(A1-D9)*%
X111500000Y-76390000D02*
X115401000Y-72489000D01*
X115401000Y-72489000D02*
X115401000Y-56559000D01*
X115401000Y-56559000D02*
X137460000Y-34500000D01*
%TO.N,Net-(A1-D8)*%
X115000000Y-54420000D02*
X134920000Y-34500000D01*
X111500000Y-73850000D02*
X115000000Y-70350000D01*
X115000000Y-70350000D02*
X115000000Y-54420000D01*
%TO.N,Net-(A1-D11)*%
X114198000Y-70017800D02*
X114198000Y-54087800D01*
X133833900Y-24599000D02*
X136736050Y-24599000D01*
X114198000Y-54087800D02*
X132599000Y-35686800D01*
X109998000Y-71254950D02*
X111235150Y-70017800D01*
X132599000Y-25833900D02*
X133833900Y-24599000D01*
X109998000Y-79968000D02*
X109998000Y-71254950D01*
X111500000Y-81470000D02*
X109998000Y-79968000D01*
X138561000Y-27201768D02*
X142540000Y-31180768D01*
X111235150Y-70017800D02*
X114198000Y-70017800D01*
X142540000Y-31180768D02*
X142540000Y-34500000D01*
X132599000Y-35686800D02*
X132599000Y-25833900D01*
X136736050Y-24599000D02*
X138561000Y-26423950D01*
X138561000Y-26423950D02*
X138561000Y-27201768D01*
D24*
%TO.N,GND*%
X152702314Y-24901000D02*
X154500000Y-26698686D01*
X135000000Y-87000000D02*
X129500000Y-81500000D01*
X154500000Y-26698686D02*
X154500000Y-32700000D01*
X154500000Y-32700000D02*
X152700000Y-34500000D01*
X129500000Y-81500000D02*
X129500000Y-53750000D01*
X141500000Y-23500000D02*
X142901000Y-24901000D01*
X142901000Y-24901000D02*
X152702314Y-24901000D01*
X129500000Y-53750000D02*
X126740000Y-50990000D01*
%TD*%
M02*
