%TF.GenerationSoftware,KiCad,Pcbnew,9.0.0*%
%TF.CreationDate,2025-06-10T00:19:28+03:00*%
%TF.ProjectId,motorControlPCB,6d6f746f-7243-46f6-9e74-726f6c504342,rev?*%
%TF.SameCoordinates,Original*%
%TF.FileFunction,Legend,Bot*%
%TF.FilePolarity,Positive*%
%FSLAX46Y46*%
G04 Gerber Fmt 4.6, Leading zero omitted, Abs format (unit mm)*
G04 Created by KiCad (PCBNEW 9.0.0) date 2025-06-10 00:19:28*
%MOMM*%
%LPD*%
G01*
G04 APERTURE LIST*
%ADD10C,0.203200*%
G04 APERTURE END LIST*
D10*
X177735460Y-113536350D02*
X178690000Y-114968170D01*
X178690000Y-113536350D02*
X177735460Y-113536350D01*
X178690000Y-114968170D02*
X177735460Y-114968170D01*
X175690000Y-113536350D02*
X176235470Y-114968170D01*
X175690000Y-113536350D02*
X175144540Y-114968170D01*
X176030920Y-114490910D02*
X175349080Y-114490910D01*
X174694550Y-114013610D02*
X173944540Y-114968170D01*
X173944540Y-114013610D02*
X174694550Y-114968170D01*
X173494550Y-113536350D02*
X173426380Y-113604520D01*
X173426380Y-113604520D02*
X173358180Y-113536350D01*
X173358180Y-113536350D02*
X173426380Y-113468170D01*
X173426380Y-113468170D02*
X173494550Y-113536350D01*
X173426380Y-114013610D02*
X173426380Y-114968170D01*
X172158180Y-114218160D02*
X172226380Y-114081810D01*
X172226380Y-114081810D02*
X172430930Y-114013610D01*
X172430930Y-114013610D02*
X172635470Y-114013610D01*
X172635470Y-114013610D02*
X172839990Y-114081810D01*
X172839990Y-114081810D02*
X172908190Y-114218160D01*
X172908190Y-114218160D02*
X172839990Y-114354530D01*
X172839990Y-114354530D02*
X172703650Y-114422710D01*
X172703650Y-114422710D02*
X172362730Y-114490910D01*
X172362730Y-114490910D02*
X172226380Y-114559080D01*
X172226380Y-114559080D02*
X172158180Y-114695450D01*
X172158180Y-114695450D02*
X172158180Y-114763630D01*
X172158180Y-114763630D02*
X172226380Y-114900000D01*
X172226380Y-114900000D02*
X172430930Y-114968170D01*
X172430930Y-114968170D02*
X172635470Y-114968170D01*
X172635470Y-114968170D02*
X172839990Y-114900000D01*
X172839990Y-114900000D02*
X172908190Y-114763630D01*
X178563000Y-115949350D02*
X178563000Y-117381170D01*
X178113000Y-115949350D02*
X178113000Y-117381170D01*
X178113000Y-115949350D02*
X177158450Y-117381170D01*
X177158450Y-115949350D02*
X177158450Y-117381170D01*
X176708460Y-116222070D02*
X176572090Y-116153890D01*
X176572090Y-116153890D02*
X176367550Y-115949350D01*
X176367550Y-115949350D02*
X176367550Y-117381170D01*
X174867550Y-116767530D02*
X173640270Y-116767530D01*
X172140270Y-115949350D02*
X172140270Y-117381170D01*
X172140270Y-115949350D02*
X171663010Y-115949350D01*
X171663010Y-115949350D02*
X171458460Y-116017520D01*
X171458460Y-116017520D02*
X171322090Y-116153890D01*
X171322090Y-116153890D02*
X171253920Y-116290270D01*
X171253920Y-116290270D02*
X171185740Y-116494810D01*
X171185740Y-116494810D02*
X171185740Y-116835710D01*
X171185740Y-116835710D02*
X171253920Y-117040250D01*
X171253920Y-117040250D02*
X171322090Y-117176630D01*
X171322090Y-117176630D02*
X171458460Y-117312990D01*
X171458460Y-117312990D02*
X171663010Y-117381170D01*
X171663010Y-117381170D02*
X172140270Y-117381170D01*
X170394840Y-115949350D02*
X170599380Y-116017520D01*
X170599380Y-116017520D02*
X170667560Y-116153890D01*
X170667560Y-116153890D02*
X170667560Y-116290270D01*
X170667560Y-116290270D02*
X170599380Y-116426610D01*
X170599380Y-116426610D02*
X170463010Y-116494810D01*
X170463010Y-116494810D02*
X170190290Y-116562990D01*
X170190290Y-116562990D02*
X169985750Y-116631160D01*
X169985750Y-116631160D02*
X169849370Y-116767530D01*
X169849370Y-116767530D02*
X169781200Y-116903910D01*
X169781200Y-116903910D02*
X169781200Y-117108450D01*
X169781200Y-117108450D02*
X169849370Y-117244800D01*
X169849370Y-117244800D02*
X169917550Y-117312990D01*
X169917550Y-117312990D02*
X170122090Y-117381170D01*
X170122090Y-117381170D02*
X170394840Y-117381170D01*
X170394840Y-117381170D02*
X170599380Y-117312990D01*
X170599380Y-117312990D02*
X170667560Y-117244800D01*
X170667560Y-117244800D02*
X170735730Y-117108450D01*
X170735730Y-117108450D02*
X170735730Y-116903910D01*
X170735730Y-116903910D02*
X170667560Y-116767530D01*
X170667560Y-116767530D02*
X170531180Y-116631160D01*
X170531180Y-116631160D02*
X170326640Y-116562990D01*
X170326640Y-116562990D02*
X170053920Y-116494810D01*
X170053920Y-116494810D02*
X169917550Y-116426610D01*
X169917550Y-116426610D02*
X169849370Y-116290270D01*
X169849370Y-116290270D02*
X169849370Y-116153890D01*
X169849370Y-116153890D02*
X169917550Y-116017520D01*
X169917550Y-116017520D02*
X170122090Y-115949350D01*
X170122090Y-115949350D02*
X170394840Y-115949350D01*
X178690000Y-117981350D02*
X178690000Y-119413170D01*
X178240000Y-117981350D02*
X178240000Y-119413170D01*
X178240000Y-117981350D02*
X177285450Y-119413170D01*
X177285450Y-117981350D02*
X177285450Y-119413170D01*
X176767270Y-118322270D02*
X176767270Y-118254070D01*
X176767270Y-118254070D02*
X176699090Y-118117720D01*
X176699090Y-118117720D02*
X176630920Y-118049520D01*
X176630920Y-118049520D02*
X176494550Y-117981350D01*
X176494550Y-117981350D02*
X176221830Y-117981350D01*
X176221830Y-117981350D02*
X176085450Y-118049520D01*
X176085450Y-118049520D02*
X176017280Y-118117720D01*
X176017280Y-118117720D02*
X175949080Y-118254070D01*
X175949080Y-118254070D02*
X175949080Y-118390440D01*
X175949080Y-118390440D02*
X176017280Y-118526810D01*
X176017280Y-118526810D02*
X176153630Y-118731360D01*
X176153630Y-118731360D02*
X176835460Y-119413170D01*
X176835460Y-119413170D02*
X175880910Y-119413170D01*
X174380910Y-118799530D02*
X173153630Y-118799530D01*
X171653640Y-117981350D02*
X171653640Y-119413170D01*
X171653640Y-117981350D02*
X171176370Y-117981350D01*
X171176370Y-117981350D02*
X170971820Y-118049520D01*
X170971820Y-118049520D02*
X170835480Y-118185890D01*
X170835480Y-118185890D02*
X170767280Y-118322270D01*
X170767280Y-118322270D02*
X170699100Y-118526810D01*
X170699100Y-118526810D02*
X170699100Y-118867710D01*
X170699100Y-118867710D02*
X170767280Y-119072250D01*
X170767280Y-119072250D02*
X170835480Y-119208630D01*
X170835480Y-119208630D02*
X170971820Y-119344990D01*
X170971820Y-119344990D02*
X171176370Y-119413170D01*
X171176370Y-119413170D02*
X171653640Y-119413170D01*
X169362730Y-118458610D02*
X169430930Y-118663160D01*
X169430930Y-118663160D02*
X169567280Y-118799530D01*
X169567280Y-118799530D02*
X169771830Y-118867710D01*
X169771830Y-118867710D02*
X169840000Y-118867710D01*
X169840000Y-118867710D02*
X170044550Y-118799530D01*
X170044550Y-118799530D02*
X170180920Y-118663160D01*
X170180920Y-118663160D02*
X170249090Y-118458610D01*
X170249090Y-118458610D02*
X170249090Y-118390440D01*
X170249090Y-118390440D02*
X170180920Y-118185890D01*
X170180920Y-118185890D02*
X170044550Y-118049520D01*
X170044550Y-118049520D02*
X169840000Y-117981350D01*
X169840000Y-117981350D02*
X169771830Y-117981350D01*
X169771830Y-117981350D02*
X169567280Y-118049520D01*
X169567280Y-118049520D02*
X169430930Y-118185890D01*
X169430930Y-118185890D02*
X169362730Y-118458610D01*
X169362730Y-118458610D02*
X169362730Y-118799530D01*
X169362730Y-118799530D02*
X169430930Y-119140450D01*
X169430930Y-119140450D02*
X169567280Y-119344990D01*
X169567280Y-119344990D02*
X169771830Y-119413170D01*
X169771830Y-119413170D02*
X169908200Y-119413170D01*
X169908200Y-119413170D02*
X170112750Y-119344990D01*
X170112750Y-119344990D02*
X170180920Y-119208630D01*
X178690000Y-120140350D02*
X178690000Y-121572170D01*
X178240010Y-120140350D02*
X178240010Y-121572170D01*
X178240010Y-120140350D02*
X177285450Y-121572170D01*
X177285450Y-120140350D02*
X177285450Y-121572170D01*
X176699090Y-120140350D02*
X175949080Y-120140350D01*
X175949080Y-120140350D02*
X176358170Y-120685810D01*
X176358170Y-120685810D02*
X176153630Y-120685810D01*
X176153630Y-120685810D02*
X176017280Y-120753990D01*
X176017280Y-120753990D02*
X175949080Y-120822160D01*
X175949080Y-120822160D02*
X175880910Y-121026710D01*
X175880910Y-121026710D02*
X175880910Y-121163080D01*
X175880910Y-121163080D02*
X175949080Y-121367630D01*
X175949080Y-121367630D02*
X176085450Y-121504000D01*
X176085450Y-121504000D02*
X176290000Y-121572170D01*
X176290000Y-121572170D02*
X176494550Y-121572170D01*
X176494550Y-121572170D02*
X176699090Y-121504000D01*
X176699090Y-121504000D02*
X176767270Y-121435800D01*
X176767270Y-121435800D02*
X176835460Y-121299450D01*
X174380910Y-120958530D02*
X173153630Y-120958530D01*
X171653640Y-120140350D02*
X171653640Y-121572170D01*
X171653640Y-120140350D02*
X171176370Y-120140350D01*
X171176370Y-120140350D02*
X170971820Y-120208520D01*
X170971820Y-120208520D02*
X170835480Y-120344890D01*
X170835480Y-120344890D02*
X170767280Y-120481270D01*
X170767280Y-120481270D02*
X170699100Y-120685810D01*
X170699100Y-120685810D02*
X170699100Y-121026710D01*
X170699100Y-121026710D02*
X170767280Y-121231250D01*
X170767280Y-121231250D02*
X170835480Y-121367630D01*
X170835480Y-121367630D02*
X170971820Y-121504000D01*
X170971820Y-121504000D02*
X171176370Y-121572170D01*
X171176370Y-121572170D02*
X171653640Y-121572170D01*
X170249090Y-120413070D02*
X170112750Y-120344890D01*
X170112750Y-120344890D02*
X169908200Y-120140350D01*
X169908200Y-120140350D02*
X169908200Y-121572170D01*
X169390010Y-120481270D02*
X169390010Y-120413070D01*
X169390010Y-120413070D02*
X169321840Y-120276720D01*
X169321840Y-120276720D02*
X169253640Y-120208520D01*
X169253640Y-120208520D02*
X169117290Y-120140350D01*
X169117290Y-120140350D02*
X168844550Y-120140350D01*
X168844550Y-120140350D02*
X168708200Y-120208520D01*
X168708200Y-120208520D02*
X168640000Y-120276720D01*
X168640000Y-120276720D02*
X168571830Y-120413070D01*
X168571830Y-120413070D02*
X168571830Y-120549440D01*
X168571830Y-120549440D02*
X168640000Y-120685810D01*
X168640000Y-120685810D02*
X168776380Y-120890360D01*
X168776380Y-120890360D02*
X169458190Y-121572170D01*
X169458190Y-121572170D02*
X168503660Y-121572170D01*
X178690000Y-122299350D02*
X178690000Y-123731170D01*
X178240010Y-122299350D02*
X178240010Y-123731170D01*
X178240010Y-122299350D02*
X177285450Y-123731170D01*
X177285450Y-122299350D02*
X177285450Y-123731170D01*
X176153630Y-122299350D02*
X176835460Y-123253910D01*
X176835460Y-123253910D02*
X175812730Y-123253910D01*
X176153630Y-122299350D02*
X176153630Y-123731170D01*
X174312740Y-123117530D02*
X173085460Y-123117530D01*
X171585460Y-122299350D02*
X171585460Y-123731170D01*
X171585460Y-122299350D02*
X171108200Y-122299350D01*
X171108200Y-122299350D02*
X170903650Y-122367520D01*
X170903650Y-122367520D02*
X170767280Y-122503890D01*
X170767280Y-122503890D02*
X170699100Y-122640270D01*
X170699100Y-122640270D02*
X170630930Y-122844810D01*
X170630930Y-122844810D02*
X170630930Y-123185710D01*
X170630930Y-123185710D02*
X170699100Y-123390250D01*
X170699100Y-123390250D02*
X170767280Y-123526630D01*
X170767280Y-123526630D02*
X170903650Y-123663000D01*
X170903650Y-123663000D02*
X171108200Y-123731170D01*
X171108200Y-123731170D02*
X171585460Y-123731170D01*
X170180920Y-122572070D02*
X170044550Y-122503890D01*
X170044550Y-122503890D02*
X169840000Y-122299350D01*
X169840000Y-122299350D02*
X169840000Y-123731170D01*
X169253640Y-122299350D02*
X168503660Y-122299350D01*
X168503660Y-122299350D02*
X168912750Y-122844810D01*
X168912750Y-122844810D02*
X168708200Y-122844810D01*
X168708200Y-122844810D02*
X168571830Y-122912990D01*
X168571830Y-122912990D02*
X168503660Y-122981160D01*
X168503660Y-122981160D02*
X168435480Y-123185710D01*
X168435480Y-123185710D02*
X168435480Y-123322080D01*
X168435480Y-123322080D02*
X168503660Y-123526630D01*
X168503660Y-123526630D02*
X168640000Y-123663000D01*
X168640000Y-123663000D02*
X168844550Y-123731170D01*
X168844550Y-123731170D02*
X169049090Y-123731170D01*
X169049090Y-123731170D02*
X169253640Y-123663000D01*
X169253640Y-123663000D02*
X169321840Y-123594800D01*
X169321840Y-123594800D02*
X169390010Y-123458450D01*
X155195000Y-113790350D02*
X154240460Y-115222170D01*
X154240460Y-113790350D02*
X155195000Y-115222170D01*
X152195000Y-113790350D02*
X152740470Y-115222170D01*
X152195000Y-113790350D02*
X151649540Y-115222170D01*
X152535920Y-114744910D02*
X151854080Y-114744910D01*
X151199550Y-114267610D02*
X150449540Y-115222170D01*
X150449540Y-114267610D02*
X151199550Y-115222170D01*
X149999550Y-113790350D02*
X149931380Y-113858520D01*
X149931380Y-113858520D02*
X149863180Y-113790350D01*
X149863180Y-113790350D02*
X149931380Y-113722170D01*
X149931380Y-113722170D02*
X149999550Y-113790350D01*
X149931380Y-114267610D02*
X149931380Y-115222170D01*
X148663180Y-114472160D02*
X148731380Y-114335810D01*
X148731380Y-114335810D02*
X148935930Y-114267610D01*
X148935930Y-114267610D02*
X149140470Y-114267610D01*
X149140470Y-114267610D02*
X149344990Y-114335810D01*
X149344990Y-114335810D02*
X149413190Y-114472160D01*
X149413190Y-114472160D02*
X149344990Y-114608530D01*
X149344990Y-114608530D02*
X149208650Y-114676710D01*
X149208650Y-114676710D02*
X148867730Y-114744910D01*
X148867730Y-114744910D02*
X148731380Y-114813080D01*
X148731380Y-114813080D02*
X148663180Y-114949450D01*
X148663180Y-114949450D02*
X148663180Y-115017630D01*
X148663180Y-115017630D02*
X148731380Y-115154000D01*
X148731380Y-115154000D02*
X148935930Y-115222170D01*
X148935930Y-115222170D02*
X149140470Y-115222170D01*
X149140470Y-115222170D02*
X149344990Y-115154000D01*
X149344990Y-115154000D02*
X149413190Y-115017630D01*
X155068000Y-116076350D02*
X155068000Y-117508170D01*
X154618010Y-116076350D02*
X154618010Y-117508170D01*
X154618010Y-116076350D02*
X153663450Y-117508170D01*
X153663450Y-116076350D02*
X153663450Y-117508170D01*
X153213460Y-116349070D02*
X153077090Y-116280890D01*
X153077090Y-116280890D02*
X152872550Y-116076350D01*
X152872550Y-116076350D02*
X152872550Y-117508170D01*
X151372550Y-116894530D02*
X150145270Y-116894530D01*
X148645270Y-116076350D02*
X148645270Y-117508170D01*
X148645270Y-116076350D02*
X148168010Y-116076350D01*
X148168010Y-116076350D02*
X147963460Y-116144520D01*
X147963460Y-116144520D02*
X147827090Y-116280890D01*
X147827090Y-116280890D02*
X147758920Y-116417270D01*
X147758920Y-116417270D02*
X147690740Y-116621810D01*
X147690740Y-116621810D02*
X147690740Y-116962710D01*
X147690740Y-116962710D02*
X147758920Y-117167250D01*
X147758920Y-117167250D02*
X147827090Y-117303630D01*
X147827090Y-117303630D02*
X147963460Y-117440000D01*
X147963460Y-117440000D02*
X148168010Y-117508170D01*
X148168010Y-117508170D02*
X148645270Y-117508170D01*
X147172560Y-116417270D02*
X147172560Y-116349070D01*
X147172560Y-116349070D02*
X147104380Y-116212720D01*
X147104380Y-116212720D02*
X147036180Y-116144520D01*
X147036180Y-116144520D02*
X146899840Y-116076350D01*
X146899840Y-116076350D02*
X146627090Y-116076350D01*
X146627090Y-116076350D02*
X146490750Y-116144520D01*
X146490750Y-116144520D02*
X146422550Y-116212720D01*
X146422550Y-116212720D02*
X146354370Y-116349070D01*
X146354370Y-116349070D02*
X146354370Y-116485440D01*
X146354370Y-116485440D02*
X146422550Y-116621810D01*
X146422550Y-116621810D02*
X146558920Y-116826360D01*
X146558920Y-116826360D02*
X147240730Y-117508170D01*
X147240730Y-117508170D02*
X146286200Y-117508170D01*
X155068000Y-118108350D02*
X155068000Y-119540170D01*
X154618000Y-118108350D02*
X154618000Y-119540170D01*
X154618000Y-118108350D02*
X153663450Y-119540170D01*
X153663450Y-118108350D02*
X153663450Y-119540170D01*
X153145270Y-118449270D02*
X153145270Y-118381070D01*
X153145270Y-118381070D02*
X153077090Y-118244720D01*
X153077090Y-118244720D02*
X153008920Y-118176520D01*
X153008920Y-118176520D02*
X152872550Y-118108350D01*
X152872550Y-118108350D02*
X152599830Y-118108350D01*
X152599830Y-118108350D02*
X152463450Y-118176520D01*
X152463450Y-118176520D02*
X152395280Y-118244720D01*
X152395280Y-118244720D02*
X152327080Y-118381070D01*
X152327080Y-118381070D02*
X152327080Y-118517440D01*
X152327080Y-118517440D02*
X152395280Y-118653810D01*
X152395280Y-118653810D02*
X152531630Y-118858360D01*
X152531630Y-118858360D02*
X153213460Y-119540170D01*
X153213460Y-119540170D02*
X152258910Y-119540170D01*
X150758910Y-118926530D02*
X149531630Y-118926530D01*
X148031640Y-118108350D02*
X148031640Y-119540170D01*
X148031640Y-118108350D02*
X147554370Y-118108350D01*
X147554370Y-118108350D02*
X147349820Y-118176520D01*
X147349820Y-118176520D02*
X147213480Y-118312890D01*
X147213480Y-118312890D02*
X147145280Y-118449270D01*
X147145280Y-118449270D02*
X147077100Y-118653810D01*
X147077100Y-118653810D02*
X147077100Y-118994710D01*
X147077100Y-118994710D02*
X147145280Y-119199250D01*
X147145280Y-119199250D02*
X147213480Y-119335630D01*
X147213480Y-119335630D02*
X147349820Y-119471990D01*
X147349820Y-119471990D02*
X147554370Y-119540170D01*
X147554370Y-119540170D02*
X148031640Y-119540170D01*
X146490750Y-118108350D02*
X145740730Y-118108350D01*
X145740730Y-118108350D02*
X146149830Y-118653810D01*
X146149830Y-118653810D02*
X145945280Y-118653810D01*
X145945280Y-118653810D02*
X145808930Y-118721990D01*
X145808930Y-118721990D02*
X145740730Y-118790160D01*
X145740730Y-118790160D02*
X145672560Y-118994710D01*
X145672560Y-118994710D02*
X145672560Y-119131080D01*
X145672560Y-119131080D02*
X145740730Y-119335630D01*
X145740730Y-119335630D02*
X145877110Y-119471990D01*
X145877110Y-119471990D02*
X146081650Y-119540170D01*
X146081650Y-119540170D02*
X146286200Y-119540170D01*
X146286200Y-119540170D02*
X146490750Y-119471990D01*
X146490750Y-119471990D02*
X146558920Y-119403800D01*
X146558920Y-119403800D02*
X146627090Y-119267450D01*
X155195000Y-120140350D02*
X155195000Y-121572170D01*
X154745000Y-120140350D02*
X154745000Y-121572170D01*
X154745000Y-120140350D02*
X153790450Y-121572170D01*
X153790450Y-120140350D02*
X153790450Y-121572170D01*
X153204090Y-120140350D02*
X152454080Y-120140350D01*
X152454080Y-120140350D02*
X152863170Y-120685810D01*
X152863170Y-120685810D02*
X152658630Y-120685810D01*
X152658630Y-120685810D02*
X152522280Y-120753990D01*
X152522280Y-120753990D02*
X152454080Y-120822160D01*
X152454080Y-120822160D02*
X152385910Y-121026710D01*
X152385910Y-121026710D02*
X152385910Y-121163080D01*
X152385910Y-121163080D02*
X152454080Y-121367630D01*
X152454080Y-121367630D02*
X152590450Y-121503990D01*
X152590450Y-121503990D02*
X152795000Y-121572170D01*
X152795000Y-121572170D02*
X152999550Y-121572170D01*
X152999550Y-121572170D02*
X153204090Y-121503990D01*
X153204090Y-121503990D02*
X153272270Y-121435800D01*
X153272270Y-121435800D02*
X153340460Y-121299450D01*
X150885910Y-120958530D02*
X149658630Y-120958530D01*
X148158640Y-120140350D02*
X148158640Y-121572170D01*
X148158640Y-120140350D02*
X147681370Y-120140350D01*
X147681370Y-120140350D02*
X147476820Y-120208520D01*
X147476820Y-120208520D02*
X147340480Y-120344890D01*
X147340480Y-120344890D02*
X147272280Y-120481270D01*
X147272280Y-120481270D02*
X147204100Y-120685810D01*
X147204100Y-120685810D02*
X147204100Y-121026710D01*
X147204100Y-121026710D02*
X147272280Y-121231250D01*
X147272280Y-121231250D02*
X147340480Y-121367630D01*
X147340480Y-121367630D02*
X147476820Y-121503990D01*
X147476820Y-121503990D02*
X147681370Y-121572170D01*
X147681370Y-121572170D02*
X148158640Y-121572170D01*
X146072280Y-120140350D02*
X146754090Y-121094910D01*
X146754090Y-121094910D02*
X145731390Y-121094910D01*
X146072280Y-120140350D02*
X146072280Y-121572170D01*
X155322000Y-122299350D02*
X155322000Y-123731170D01*
X154872000Y-122299350D02*
X154872000Y-123731170D01*
X154872000Y-122299350D02*
X153917450Y-123731170D01*
X153917450Y-122299350D02*
X153917450Y-123731170D01*
X152785630Y-122299350D02*
X153467460Y-123253910D01*
X153467460Y-123253910D02*
X152444730Y-123253910D01*
X152785630Y-122299350D02*
X152785630Y-123731170D01*
X150944740Y-123117530D02*
X149717460Y-123117530D01*
X148217460Y-122299350D02*
X148217460Y-123731170D01*
X148217460Y-122299350D02*
X147740200Y-122299350D01*
X147740200Y-122299350D02*
X147535650Y-122367520D01*
X147535650Y-122367520D02*
X147399280Y-122503890D01*
X147399280Y-122503890D02*
X147331100Y-122640270D01*
X147331100Y-122640270D02*
X147262930Y-122844810D01*
X147262930Y-122844810D02*
X147262930Y-123185710D01*
X147262930Y-123185710D02*
X147331100Y-123390250D01*
X147331100Y-123390250D02*
X147399280Y-123526630D01*
X147399280Y-123526630D02*
X147535650Y-123662990D01*
X147535650Y-123662990D02*
X147740200Y-123731170D01*
X147740200Y-123731170D02*
X148217460Y-123731170D01*
X145994730Y-122299350D02*
X146676550Y-122299350D01*
X146676550Y-122299350D02*
X146744750Y-122912990D01*
X146744750Y-122912990D02*
X146676550Y-122844810D01*
X146676550Y-122844810D02*
X146472000Y-122776610D01*
X146472000Y-122776610D02*
X146267480Y-122776610D01*
X146267480Y-122776610D02*
X146062930Y-122844810D01*
X146062930Y-122844810D02*
X145926560Y-122981160D01*
X145926560Y-122981160D02*
X145858390Y-123185710D01*
X145858390Y-123185710D02*
X145858390Y-123322080D01*
X145858390Y-123322080D02*
X145926560Y-123526630D01*
X145926560Y-123526630D02*
X146062930Y-123662990D01*
X146062930Y-123662990D02*
X146267480Y-123731170D01*
X146267480Y-123731170D02*
X146472000Y-123731170D01*
X146472000Y-123731170D02*
X146676550Y-123662990D01*
X146676550Y-123662990D02*
X146744750Y-123594800D01*
X146744750Y-123594800D02*
X146812920Y-123458450D01*
X131700000Y-113790350D02*
X131154530Y-114472160D01*
X131154530Y-114472160D02*
X131154530Y-115222170D01*
X130609090Y-113790350D02*
X131154530Y-114472160D01*
X128563630Y-113790350D02*
X129109090Y-115222170D01*
X128563630Y-113790350D02*
X128018190Y-115222170D01*
X128904550Y-114744910D02*
X128222740Y-114744910D01*
X127568180Y-114267610D02*
X126818190Y-115222170D01*
X126818190Y-114267610D02*
X127568180Y-115222170D01*
X126368180Y-113790350D02*
X126300010Y-113858520D01*
X126300010Y-113858520D02*
X126231830Y-113790350D01*
X126231830Y-113790350D02*
X126300010Y-113722170D01*
X126300010Y-113722170D02*
X126368180Y-113790350D01*
X126300010Y-114267610D02*
X126300010Y-115222170D01*
X125031830Y-114472160D02*
X125100010Y-114335810D01*
X125100010Y-114335810D02*
X125304550Y-114267610D01*
X125304550Y-114267610D02*
X125509100Y-114267610D01*
X125509100Y-114267610D02*
X125713650Y-114335810D01*
X125713650Y-114335810D02*
X125781820Y-114472160D01*
X125781820Y-114472160D02*
X125713650Y-114608530D01*
X125713650Y-114608530D02*
X125577270Y-114676710D01*
X125577270Y-114676710D02*
X125236380Y-114744910D01*
X125236380Y-114744910D02*
X125100010Y-114813080D01*
X125100010Y-114813080D02*
X125031830Y-114949450D01*
X125031830Y-114949450D02*
X125031830Y-115017630D01*
X125031830Y-115017630D02*
X125100010Y-115153990D01*
X125100010Y-115153990D02*
X125304550Y-115222170D01*
X125304550Y-115222170D02*
X125509100Y-115222170D01*
X125509100Y-115222170D02*
X125713650Y-115153990D01*
X125713650Y-115153990D02*
X125781820Y-115017630D01*
X131446000Y-116076350D02*
X131446000Y-117508170D01*
X130996000Y-116076350D02*
X130996000Y-117508170D01*
X130996000Y-116076350D02*
X130041450Y-117508170D01*
X130041450Y-116076350D02*
X130041450Y-117508170D01*
X129591460Y-116349070D02*
X129455090Y-116280890D01*
X129455090Y-116280890D02*
X129250550Y-116076350D01*
X129250550Y-116076350D02*
X129250550Y-117508170D01*
X127750550Y-116894530D02*
X126523270Y-116894530D01*
X124477840Y-116076350D02*
X125023270Y-117508170D01*
X124477840Y-116076350D02*
X123932370Y-117508170D01*
X124818730Y-117030910D02*
X124136920Y-117030910D01*
X123346010Y-116076350D02*
X122596000Y-116076350D01*
X122596000Y-116076350D02*
X123005090Y-116621810D01*
X123005090Y-116621810D02*
X122800550Y-116621810D01*
X122800550Y-116621810D02*
X122664200Y-116689990D01*
X122664200Y-116689990D02*
X122596000Y-116758160D01*
X122596000Y-116758160D02*
X122527830Y-116962710D01*
X122527830Y-116962710D02*
X122527830Y-117099080D01*
X122527830Y-117099080D02*
X122596000Y-117303630D01*
X122596000Y-117303630D02*
X122732370Y-117439990D01*
X122732370Y-117439990D02*
X122936920Y-117508170D01*
X122936920Y-117508170D02*
X123141460Y-117508170D01*
X123141460Y-117508170D02*
X123346010Y-117439990D01*
X123346010Y-117439990D02*
X123414180Y-117371800D01*
X123414180Y-117371800D02*
X123482380Y-117235450D01*
X131446000Y-118108350D02*
X131446000Y-119540170D01*
X130996010Y-118108350D02*
X130996010Y-119540170D01*
X130996010Y-118108350D02*
X130041450Y-119540170D01*
X130041450Y-118108350D02*
X130041450Y-119540170D01*
X129523270Y-118449270D02*
X129523270Y-118381070D01*
X129523270Y-118381070D02*
X129455090Y-118244720D01*
X129455090Y-118244720D02*
X129386920Y-118176520D01*
X129386920Y-118176520D02*
X129250550Y-118108350D01*
X129250550Y-118108350D02*
X128977830Y-118108350D01*
X128977830Y-118108350D02*
X128841450Y-118176520D01*
X128841450Y-118176520D02*
X128773280Y-118244720D01*
X128773280Y-118244720D02*
X128705080Y-118381070D01*
X128705080Y-118381070D02*
X128705080Y-118517440D01*
X128705080Y-118517440D02*
X128773280Y-118653810D01*
X128773280Y-118653810D02*
X128909630Y-118858360D01*
X128909630Y-118858360D02*
X129591460Y-119540170D01*
X129591460Y-119540170D02*
X128636910Y-119540170D01*
X127136910Y-118926530D02*
X125909630Y-118926530D01*
X123864200Y-118108350D02*
X124409640Y-119540170D01*
X123864200Y-118108350D02*
X123318730Y-119540170D01*
X124205090Y-119062910D02*
X123523280Y-119062910D01*
X122800550Y-118449270D02*
X122800550Y-118381070D01*
X122800550Y-118381070D02*
X122732370Y-118244720D01*
X122732370Y-118244720D02*
X122664200Y-118176520D01*
X122664200Y-118176520D02*
X122527830Y-118108350D01*
X122527830Y-118108350D02*
X122255110Y-118108350D01*
X122255110Y-118108350D02*
X122118730Y-118176520D01*
X122118730Y-118176520D02*
X122050560Y-118244720D01*
X122050560Y-118244720D02*
X121982390Y-118381070D01*
X121982390Y-118381070D02*
X121982390Y-118517440D01*
X121982390Y-118517440D02*
X122050560Y-118653810D01*
X122050560Y-118653810D02*
X122186930Y-118858360D01*
X122186930Y-118858360D02*
X122868750Y-119540170D01*
X122868750Y-119540170D02*
X121914190Y-119540170D01*
X131446000Y-120013350D02*
X131446000Y-121445170D01*
X130996010Y-120013350D02*
X130996010Y-121445170D01*
X130996010Y-120013350D02*
X130041450Y-121445170D01*
X130041450Y-120013350D02*
X130041450Y-121445170D01*
X129455090Y-120013350D02*
X128705080Y-120013350D01*
X128705080Y-120013350D02*
X129114170Y-120558810D01*
X129114170Y-120558810D02*
X128909630Y-120558810D01*
X128909630Y-120558810D02*
X128773280Y-120626990D01*
X128773280Y-120626990D02*
X128705080Y-120695160D01*
X128705080Y-120695160D02*
X128636910Y-120899710D01*
X128636910Y-120899710D02*
X128636910Y-121036080D01*
X128636910Y-121036080D02*
X128705080Y-121240630D01*
X128705080Y-121240630D02*
X128841450Y-121377000D01*
X128841450Y-121377000D02*
X129046000Y-121445170D01*
X129046000Y-121445170D02*
X129250550Y-121445170D01*
X129250550Y-121445170D02*
X129455090Y-121377000D01*
X129455090Y-121377000D02*
X129523270Y-121308800D01*
X129523270Y-121308800D02*
X129591460Y-121172450D01*
X127136910Y-120831530D02*
X125909630Y-120831530D01*
X123864200Y-120013350D02*
X124409640Y-121445170D01*
X123864200Y-120013350D02*
X123318730Y-121445170D01*
X124205090Y-120967910D02*
X123523280Y-120967910D01*
X122868750Y-120286070D02*
X122732370Y-120217890D01*
X122732370Y-120217890D02*
X122527830Y-120013350D01*
X122527830Y-120013350D02*
X122527830Y-121445170D01*
X131446000Y-121918350D02*
X131446000Y-123350170D01*
X130996000Y-121918350D02*
X130996000Y-123350170D01*
X130996000Y-121918350D02*
X130041450Y-123350170D01*
X130041450Y-121918350D02*
X130041450Y-123350170D01*
X128909630Y-121918350D02*
X129591460Y-122872910D01*
X129591460Y-122872910D02*
X128568730Y-122872910D01*
X128909630Y-121918350D02*
X128909630Y-123350170D01*
X127068740Y-122736530D02*
X125841460Y-122736530D01*
X123796000Y-121918350D02*
X124341460Y-123350170D01*
X123796000Y-121918350D02*
X123250560Y-123350170D01*
X124136920Y-122872910D02*
X123455100Y-122872910D01*
X122391480Y-121918350D02*
X122596000Y-121986520D01*
X122596000Y-121986520D02*
X122732370Y-122191070D01*
X122732370Y-122191070D02*
X122800550Y-122531990D01*
X122800550Y-122531990D02*
X122800550Y-122736530D01*
X122800550Y-122736530D02*
X122732370Y-123077450D01*
X122732370Y-123077450D02*
X122596000Y-123281990D01*
X122596000Y-123281990D02*
X122391480Y-123350170D01*
X122391480Y-123350170D02*
X122255110Y-123350170D01*
X122255110Y-123350170D02*
X122050560Y-123281990D01*
X122050560Y-123281990D02*
X121914190Y-123077450D01*
X121914190Y-123077450D02*
X121846010Y-122736530D01*
X121846010Y-122736530D02*
X121846010Y-122531990D01*
X121846010Y-122531990D02*
X121914190Y-122191070D01*
X121914190Y-122191070D02*
X122050560Y-121986520D01*
X122050560Y-121986520D02*
X122255110Y-121918350D01*
X122255110Y-121918350D02*
X122391480Y-121918350D01*
M02*
