%TF.GenerationSoftware,KiCad,Pcbnew,9.0.0*%
%TF.CreationDate,2025-06-10T00:19:28+03:00*%
%TF.ProjectId,motorControlPCB,6d6f746f-7243-46f6-9e74-726f6c504342,rev?*%
%TF.SameCoordinates,Original*%
%TF.FileFunction,Legend,Top*%
%TF.FilePolarity,Positive*%
%FSLAX46Y46*%
G04 Gerber Fmt 4.6, Leading zero omitted, Abs format (unit mm)*
G04 Created by KiCad (PCBNEW 9.0.0) date 2025-06-10 00:19:28*
%MOMM*%
%LPD*%
G01*
G04 APERTURE LIST*
%ADD10C,0.000000*%
%ADD11C,0.254000*%
%ADD12C,0.250000*%
%ADD13C,0.300000*%
G04 APERTURE END LIST*
D10*
G36*
X124020560Y-76674650D02*
G01*
X124094730Y-76685820D01*
X124165340Y-76704110D01*
X124231890Y-76729510D01*
X124294880Y-76761520D01*
X124353810Y-76799110D01*
X124408670Y-76842800D01*
X124458460Y-76891560D01*
X124356860Y-77005860D01*
X124314690Y-76965220D01*
X124269480Y-76928140D01*
X124220200Y-76896140D01*
X124168390Y-76869210D01*
X124114540Y-76847370D01*
X124057640Y-76831110D01*
X123999730Y-76821460D01*
X123940300Y-76817900D01*
X123867650Y-76822480D01*
X123803140Y-76836700D01*
X123747250Y-76859050D01*
X123700520Y-76889020D01*
X123662930Y-76926110D01*
X123635500Y-76970300D01*
X123618220Y-77019580D01*
X123612640Y-77074440D01*
X123617720Y-77129820D01*
X123632450Y-77176040D01*
X123655310Y-77214650D01*
X123686300Y-77247670D01*
X123723890Y-77276120D01*
X123767070Y-77301520D01*
X123866640Y-77348760D01*
X124135880Y-77467640D01*
X124188710Y-77497100D01*
X124239510Y-77532150D01*
X124286240Y-77573810D01*
X124325870Y-77622580D01*
X124357360Y-77679470D01*
X124377680Y-77745510D01*
X124384800Y-77821200D01*
X124380730Y-77876580D01*
X124369050Y-77928390D01*
X124350760Y-77977160D01*
X124324850Y-78022370D01*
X124292850Y-78063520D01*
X124255250Y-78100100D01*
X124212070Y-78132100D01*
X124163310Y-78159530D01*
X124110480Y-78180870D01*
X124053070Y-78196620D01*
X123992110Y-78206270D01*
X123927600Y-78209820D01*
X123861560Y-78206270D01*
X123798060Y-78196110D01*
X123737600Y-78179850D01*
X123680710Y-78158520D01*
X123627880Y-78131590D01*
X123578600Y-78100600D01*
X123533890Y-78065550D01*
X123493250Y-78026940D01*
X123582160Y-77920260D01*
X123617210Y-77951250D01*
X123654800Y-77978680D01*
X123693920Y-78003070D01*
X123736080Y-78023900D01*
X123779770Y-78040150D01*
X123826500Y-78052340D01*
X123875780Y-78059960D01*
X123927600Y-78062500D01*
X123989570Y-78058440D01*
X124045450Y-78046250D01*
X124094220Y-78026940D01*
X124135880Y-78000530D01*
X124169400Y-77967510D01*
X124194300Y-77928390D01*
X124209540Y-77883690D01*
X124214620Y-77833900D01*
X124208520Y-77781070D01*
X124191750Y-77736370D01*
X124166360Y-77698270D01*
X124133340Y-77666260D01*
X124095240Y-77638830D01*
X124054090Y-77615460D01*
X124010910Y-77594130D01*
X123752340Y-77483380D01*
X123690360Y-77454430D01*
X123631940Y-77421410D01*
X123579620Y-77383820D01*
X123533390Y-77340640D01*
X123495800Y-77290340D01*
X123466840Y-77231920D01*
X123448550Y-77164360D01*
X123442460Y-77087140D01*
X123446520Y-77029740D01*
X123458200Y-76975380D01*
X123477510Y-76923570D01*
X123503920Y-76875310D01*
X123537450Y-76831110D01*
X123577580Y-76790980D01*
X123623810Y-76756440D01*
X123676640Y-76726460D01*
X123735060Y-76702590D01*
X123799070Y-76685320D01*
X123868670Y-76674140D01*
X123942840Y-76670580D01*
X124020560Y-76674650D01*
G37*
G36*
X128585960Y-77280180D02*
G01*
X129033000Y-78184420D01*
X128855200Y-78184420D01*
X128504680Y-77427500D01*
X128497060Y-77427500D01*
X128419330Y-77591080D01*
X128347200Y-77752620D01*
X128144000Y-78184420D01*
X127971280Y-78184420D01*
X128418320Y-77280180D01*
X128418320Y-76695980D01*
X128585960Y-76695980D01*
X128585960Y-77280180D01*
G37*
G36*
X126630160Y-77165880D02*
G01*
X127186420Y-77165880D01*
X127338820Y-76695980D01*
X127506460Y-76695980D01*
X126998460Y-78184420D01*
X126813040Y-78184420D01*
X126510490Y-77297960D01*
X126673340Y-77297960D01*
X126752070Y-77539260D01*
X126830310Y-77788690D01*
X126904480Y-78042180D01*
X126914640Y-78042180D01*
X126987790Y-77787680D01*
X127143240Y-77297960D01*
X126673340Y-77297960D01*
X126510490Y-77297960D01*
X126305040Y-76695980D01*
X126482840Y-76695980D01*
X126630160Y-77165880D01*
G37*
G36*
X125715750Y-77351300D02*
G01*
X125725920Y-77351300D01*
X125817860Y-77165880D01*
X126071360Y-76695980D01*
X126246620Y-76695980D01*
X125812280Y-77463060D01*
X126221220Y-78184420D01*
X126033250Y-78184420D01*
X125822430Y-77788180D01*
X125766050Y-77689120D01*
X125705600Y-77574820D01*
X125695430Y-77574820D01*
X125614660Y-77738910D01*
X125377930Y-78184420D01*
X125202680Y-78184420D01*
X125611620Y-77455440D01*
X125174740Y-76695980D01*
X125360160Y-76695980D01*
X125715750Y-77351300D01*
G37*
G36*
X124933430Y-78184420D02*
G01*
X124763250Y-78184420D01*
X124763250Y-76695980D01*
X124933430Y-76695980D01*
X124933430Y-78184420D01*
G37*
G36*
X147561280Y-76674650D02*
G01*
X147635450Y-76685820D01*
X147706060Y-76704110D01*
X147772610Y-76729510D01*
X147835600Y-76761520D01*
X147894530Y-76799110D01*
X147949390Y-76842800D01*
X147999180Y-76891560D01*
X147897580Y-77005860D01*
X147855410Y-76965220D01*
X147810200Y-76928140D01*
X147760920Y-76896140D01*
X147709110Y-76869210D01*
X147655260Y-76847370D01*
X147598360Y-76831110D01*
X147540450Y-76821460D01*
X147481010Y-76817900D01*
X147408370Y-76822480D01*
X147343860Y-76836700D01*
X147287980Y-76859050D01*
X147240730Y-76889020D01*
X147203650Y-76926110D01*
X147176220Y-76970300D01*
X147158940Y-77019580D01*
X147153360Y-77074440D01*
X147158440Y-77129820D01*
X147173170Y-77176040D01*
X147196030Y-77214650D01*
X147227010Y-77247670D01*
X147264610Y-77276120D01*
X147307790Y-77301520D01*
X147407360Y-77348760D01*
X147676600Y-77467640D01*
X147729430Y-77497100D01*
X147780230Y-77532150D01*
X147826960Y-77573810D01*
X147866590Y-77622580D01*
X147898080Y-77679470D01*
X147918400Y-77745510D01*
X147925510Y-77821200D01*
X147921450Y-77876580D01*
X147909770Y-77928390D01*
X147891480Y-77977160D01*
X147865570Y-78022370D01*
X147833570Y-78063520D01*
X147795980Y-78100100D01*
X147752790Y-78132100D01*
X147704030Y-78159530D01*
X147651200Y-78180870D01*
X147593790Y-78196620D01*
X147532830Y-78206270D01*
X147468320Y-78209820D01*
X147402280Y-78206270D01*
X147338780Y-78196110D01*
X147278320Y-78179850D01*
X147221430Y-78158520D01*
X147168600Y-78131590D01*
X147119320Y-78100600D01*
X147074620Y-78065550D01*
X147033980Y-78026940D01*
X147122870Y-77920260D01*
X147157930Y-77951250D01*
X147195520Y-77978680D01*
X147234640Y-78003070D01*
X147276290Y-78023900D01*
X147320490Y-78040150D01*
X147367220Y-78052340D01*
X147416500Y-78059960D01*
X147468320Y-78062500D01*
X147530290Y-78058440D01*
X147586170Y-78046250D01*
X147634940Y-78026940D01*
X147676600Y-78000530D01*
X147710120Y-77967510D01*
X147735010Y-77928390D01*
X147750260Y-77883690D01*
X147755340Y-77833900D01*
X147749240Y-77781070D01*
X147732480Y-77736370D01*
X147707080Y-77698270D01*
X147674060Y-77666260D01*
X147635960Y-77638830D01*
X147594810Y-77615460D01*
X147551630Y-77594130D01*
X147293060Y-77483380D01*
X147231080Y-77454430D01*
X147172660Y-77421410D01*
X147120340Y-77383820D01*
X147074110Y-77340640D01*
X147036510Y-77290340D01*
X147007560Y-77231920D01*
X146989270Y-77164360D01*
X146983180Y-77087140D01*
X146987240Y-77029740D01*
X146998920Y-76975380D01*
X147018230Y-76923570D01*
X147044640Y-76875310D01*
X147078170Y-76831110D01*
X147118300Y-76790980D01*
X147164530Y-76756440D01*
X147217360Y-76726460D01*
X147275780Y-76702590D01*
X147339790Y-76685320D01*
X147409390Y-76674140D01*
X147483560Y-76670580D01*
X147561280Y-76674650D01*
G37*
G36*
X151959040Y-77110000D02*
G01*
X152088580Y-77351300D01*
X152096200Y-77351300D01*
X152218120Y-77110000D01*
X152444180Y-76695980D01*
X152619440Y-76695980D01*
X152182560Y-77463060D01*
X152591500Y-78184420D01*
X152406080Y-78184420D01*
X152192720Y-77788180D01*
X152136330Y-77689120D01*
X152075880Y-77574820D01*
X152065720Y-77574820D01*
X151985960Y-77738910D01*
X151748220Y-78184420D01*
X151572960Y-78184420D01*
X151981900Y-77455440D01*
X151545020Y-76695980D01*
X151730440Y-76695980D01*
X151959040Y-77110000D01*
G37*
G36*
X150170880Y-77165880D02*
G01*
X150727140Y-77165880D01*
X150879540Y-76695980D01*
X151047180Y-76695980D01*
X150539180Y-78184420D01*
X150353760Y-78184420D01*
X150051210Y-77297960D01*
X150214060Y-77297960D01*
X150292800Y-77539260D01*
X150371030Y-77788690D01*
X150445200Y-78042180D01*
X150455360Y-78042180D01*
X150528510Y-77787680D01*
X150683960Y-77297960D01*
X150214060Y-77297960D01*
X150051210Y-77297960D01*
X149845760Y-76695980D01*
X150023560Y-76695980D01*
X150170880Y-77165880D01*
G37*
G36*
X149256480Y-77351300D02*
G01*
X149266640Y-77351300D01*
X149358580Y-77165880D01*
X149612080Y-76695980D01*
X149787340Y-76695980D01*
X149353000Y-77463060D01*
X149761940Y-78184420D01*
X149573980Y-78184420D01*
X149363160Y-77788180D01*
X149306770Y-77689120D01*
X149246320Y-77574820D01*
X149236160Y-77574820D01*
X149155380Y-77738910D01*
X148918660Y-78184420D01*
X148743400Y-78184420D01*
X149152340Y-77455440D01*
X148715460Y-76695980D01*
X148900880Y-76695980D01*
X149256480Y-77351300D01*
G37*
G36*
X148474160Y-78184420D02*
G01*
X148303980Y-78184420D01*
X148303980Y-76695980D01*
X148474160Y-76695980D01*
X148474160Y-78184420D01*
G37*
G36*
X170471570Y-76674650D02*
G01*
X170545740Y-76685820D01*
X170615840Y-76704110D01*
X170682900Y-76729510D01*
X170745380Y-76761520D01*
X170804310Y-76799110D01*
X170859180Y-76842800D01*
X170909980Y-76891560D01*
X170808380Y-77005860D01*
X170765700Y-76965220D01*
X170719480Y-76928140D01*
X170670200Y-76896140D01*
X170618380Y-76869210D01*
X170564030Y-76847370D01*
X170508150Y-76831110D01*
X170450240Y-76821460D01*
X170391820Y-76817900D01*
X170319170Y-76822480D01*
X170254660Y-76836700D01*
X170198780Y-76859050D01*
X170152040Y-76889020D01*
X170114450Y-76926110D01*
X170087020Y-76970300D01*
X170069740Y-77019580D01*
X170064160Y-77074440D01*
X170069240Y-77129820D01*
X170083970Y-77176040D01*
X170106830Y-77214650D01*
X170137820Y-77247670D01*
X170175410Y-77276120D01*
X170218590Y-77301520D01*
X170266340Y-77325400D01*
X170534060Y-77442740D01*
X170586380Y-77467640D01*
X170639210Y-77497100D01*
X170690010Y-77532150D01*
X170736750Y-77573810D01*
X170776880Y-77622580D01*
X170808380Y-77679470D01*
X170829200Y-77745510D01*
X170836320Y-77821200D01*
X170832250Y-77876580D01*
X170820570Y-77928390D01*
X170801770Y-77977160D01*
X170775860Y-78022370D01*
X170743860Y-78063520D01*
X170705760Y-78100100D01*
X170662070Y-78132100D01*
X170613300Y-78159530D01*
X170559960Y-78180870D01*
X170502560Y-78196620D01*
X170441090Y-78206270D01*
X170376580Y-78209820D01*
X170311040Y-78206270D01*
X170248560Y-78196110D01*
X170188620Y-78179850D01*
X170132230Y-78158520D01*
X170079400Y-78131590D01*
X170030120Y-78100600D01*
X169985420Y-78065550D01*
X169944780Y-78026940D01*
X170033680Y-77920260D01*
X170068730Y-77951250D01*
X170105810Y-77978680D01*
X170144930Y-78003070D01*
X170186080Y-78023900D01*
X170229760Y-78040150D01*
X170275990Y-78052340D01*
X170324760Y-78059960D01*
X170376580Y-78062500D01*
X170438550Y-78058440D01*
X170494940Y-78046250D01*
X170544220Y-78026940D01*
X170585870Y-78000530D01*
X170619910Y-77967510D01*
X170645310Y-77928390D01*
X170660550Y-77883690D01*
X170666140Y-77833900D01*
X170660040Y-77781070D01*
X170643280Y-77736370D01*
X170617370Y-77698270D01*
X170584350Y-77666260D01*
X170546250Y-77638830D01*
X170460900Y-77594130D01*
X170201320Y-77483380D01*
X170139340Y-77454430D01*
X170081430Y-77421410D01*
X170029100Y-77383820D01*
X169983890Y-77340640D01*
X169946300Y-77290340D01*
X169917850Y-77231920D01*
X169900070Y-77164360D01*
X169893980Y-77087140D01*
X169898040Y-77029740D01*
X169909720Y-76975380D01*
X169929030Y-76923570D01*
X169955440Y-76875310D01*
X169988970Y-76831110D01*
X170029100Y-76790980D01*
X170075330Y-76756440D01*
X170128160Y-76726460D01*
X170186580Y-76702590D01*
X170250590Y-76685320D01*
X170320190Y-76674140D01*
X170394360Y-76670580D01*
X170471570Y-76674650D01*
G37*
G36*
X175537860Y-76795040D02*
G01*
X174735220Y-78042180D01*
X175464200Y-78042180D01*
X175464200Y-78184420D01*
X174529480Y-78184420D01*
X174529480Y-78082820D01*
X175329580Y-76838220D01*
X174519310Y-76838220D01*
X174519310Y-76695980D01*
X175537860Y-76695980D01*
X175537860Y-76795040D01*
G37*
G36*
X173081680Y-77165880D02*
G01*
X173635400Y-77165880D01*
X173787800Y-76695980D01*
X173957980Y-76695980D01*
X173449980Y-78184420D01*
X173264560Y-78184420D01*
X172960500Y-77297960D01*
X173124860Y-77297960D01*
X173201060Y-77539260D01*
X173242710Y-77664230D01*
X173356000Y-78042180D01*
X173363620Y-78042180D01*
X173437780Y-77787680D01*
X173594750Y-77297960D01*
X173124860Y-77297960D01*
X172960500Y-77297960D01*
X172754020Y-76695980D01*
X172934360Y-76695980D01*
X173081680Y-77165880D01*
G37*
G36*
X172037740Y-77110000D02*
G01*
X172167280Y-77351300D01*
X172174900Y-77351300D01*
X172296810Y-77110000D01*
X172522880Y-76695980D01*
X172698140Y-76695980D01*
X172263800Y-77463060D01*
X172670200Y-78184420D01*
X172484780Y-78184420D01*
X172273960Y-77788180D01*
X172217060Y-77689120D01*
X172154580Y-77574820D01*
X172144420Y-77574820D01*
X172065680Y-77738910D01*
X171826920Y-78184420D01*
X171654200Y-78184420D01*
X172060590Y-77455440D01*
X171623720Y-76695980D01*
X171809140Y-76695980D01*
X172037740Y-77110000D01*
G37*
G36*
X171382420Y-78184420D02*
G01*
X171214780Y-78184420D01*
X171214780Y-76695980D01*
X171382420Y-76695980D01*
X171382420Y-78184420D01*
G37*
G36*
X114983750Y-100381990D02*
G01*
X115037090Y-100390120D01*
X115086870Y-100403840D01*
X115132080Y-100422630D01*
X115172720Y-100445490D01*
X115208280Y-100473430D01*
X115239270Y-100504930D01*
X115264670Y-100540490D01*
X115284990Y-100579100D01*
X115299720Y-100621260D01*
X115308870Y-100666470D01*
X115311920Y-100714230D01*
X115304300Y-100785340D01*
X115283470Y-100843760D01*
X115254000Y-100890500D01*
X115220480Y-100927580D01*
X115167140Y-100881860D01*
X115194570Y-100850880D01*
X115216920Y-100814300D01*
X115232670Y-100770610D01*
X115238260Y-100716760D01*
X115232670Y-100661390D01*
X115216410Y-100612120D01*
X115190500Y-100568940D01*
X115154940Y-100532870D01*
X115110240Y-100503910D01*
X115057410Y-100482580D01*
X114996450Y-100469880D01*
X114928370Y-100465300D01*
X114860300Y-100469370D01*
X114799340Y-100482070D01*
X114746000Y-100502900D01*
X114700790Y-100530840D01*
X114664720Y-100566900D01*
X114637800Y-100610080D01*
X114621540Y-100659870D01*
X114615960Y-100716760D01*
X114619000Y-100758420D01*
X114628150Y-100797540D01*
X114642880Y-100831570D01*
X114661680Y-100859000D01*
X114864870Y-100859000D01*
X114864870Y-100696450D01*
X114936000Y-100696450D01*
X114936000Y-100937740D01*
X114626120Y-100937740D01*
X114592590Y-100895580D01*
X114566170Y-100842240D01*
X114548390Y-100779760D01*
X114542300Y-100709140D01*
X114548900Y-100639550D01*
X114568710Y-100576050D01*
X114600710Y-100519660D01*
X114644400Y-100471400D01*
X114699780Y-100432280D01*
X114765310Y-100403330D01*
X114841000Y-100385040D01*
X114925840Y-100378950D01*
X114983750Y-100381990D01*
G37*
G36*
X115299210Y-101201900D02*
G01*
X114816620Y-101483840D01*
X114664210Y-101565120D01*
X114664210Y-101570200D01*
X114779020Y-101562080D01*
X114895360Y-101557500D01*
X115299210Y-101557500D01*
X115299210Y-101638780D01*
X114555000Y-101638780D01*
X114555000Y-101552420D01*
X115037600Y-101273020D01*
X115190000Y-101191740D01*
X115190000Y-101186670D01*
X115019820Y-101195810D01*
X114555000Y-101196820D01*
X114555000Y-101115540D01*
X115299210Y-101115540D01*
X115299210Y-101201900D01*
G37*
G36*
X115299210Y-102029950D02*
G01*
X115296680Y-102084810D01*
X115288040Y-102135100D01*
X115274320Y-102180310D01*
X115255530Y-102220950D01*
X115231650Y-102257020D01*
X115202690Y-102288520D01*
X115168660Y-102314930D01*
X115130050Y-102336780D01*
X115086870Y-102353540D01*
X115039120Y-102365730D01*
X114987300Y-102372840D01*
X114930920Y-102375390D01*
X114874530Y-102372840D01*
X114821690Y-102365730D01*
X114773440Y-102353540D01*
X114729750Y-102336780D01*
X114690120Y-102314930D01*
X114655070Y-102288520D01*
X114625610Y-102257530D01*
X114600710Y-102221970D01*
X114580900Y-102181330D01*
X114566680Y-102136620D01*
X114558040Y-102086840D01*
X114555000Y-102032480D01*
X114555000Y-102022320D01*
X114623580Y-102022320D01*
X114629160Y-102085320D01*
X114644910Y-102140180D01*
X114670820Y-102185900D01*
X114705870Y-102223490D01*
X114750070Y-102251940D01*
X114802390Y-102272770D01*
X114862840Y-102284960D01*
X114930920Y-102289020D01*
X114997970Y-102284960D01*
X115056900Y-102272770D01*
X115108210Y-102251940D01*
X115151390Y-102223490D01*
X115185420Y-102185900D01*
X115210320Y-102140180D01*
X115225560Y-102085320D01*
X115230640Y-102022320D01*
X115230640Y-101930890D01*
X114623580Y-101930890D01*
X114623580Y-102022320D01*
X114555000Y-102022320D01*
X114555000Y-101930890D01*
X114555000Y-101847060D01*
X115299210Y-101847060D01*
X115299210Y-102029950D01*
G37*
G36*
X115299210Y-103457420D02*
G01*
X114887740Y-103581890D01*
X114764800Y-103616940D01*
X114641360Y-103655540D01*
X114641360Y-103658080D01*
X115299210Y-103856200D01*
X115299210Y-103940020D01*
X114555000Y-103703800D01*
X114555000Y-103607280D01*
X115299210Y-103368520D01*
X115299210Y-103457420D01*
G37*
G36*
X115299210Y-104130520D02*
G01*
X114555000Y-104130520D01*
X114555000Y-104046700D01*
X115299210Y-104046700D01*
X115299210Y-104130520D01*
G37*
G36*
X115299210Y-104422620D02*
G01*
X114816620Y-104704560D01*
X114664210Y-104785840D01*
X114664210Y-104790920D01*
X114837440Y-104779240D01*
X115299210Y-104778220D01*
X115299210Y-104859500D01*
X114555000Y-104859500D01*
X114555000Y-104773140D01*
X115037600Y-104493740D01*
X115190000Y-104412460D01*
X115190000Y-104407380D01*
X115019820Y-104416530D01*
X114555000Y-104417540D01*
X114555000Y-104336260D01*
X115299210Y-104336260D01*
X115299210Y-104422620D01*
G37*
G36*
X114961400Y-106276820D02*
G01*
X115182370Y-106276820D01*
X115182370Y-106345400D01*
X114961400Y-106345400D01*
X114961400Y-106551140D01*
X114897900Y-106551140D01*
X114897900Y-106345400D01*
X114674370Y-106345400D01*
X114674370Y-106276820D01*
X114897900Y-106276820D01*
X114897900Y-106071080D01*
X114961400Y-106071080D01*
X114961400Y-106276820D01*
G37*
G36*
X114694690Y-106660360D02*
G01*
X114663200Y-106695420D01*
X114636780Y-106737070D01*
X114617990Y-106786350D01*
X114610870Y-106845780D01*
X114623580Y-106910300D01*
X114660150Y-106962620D01*
X114718060Y-106998180D01*
X114793760Y-107010880D01*
X114867420Y-106999200D01*
X114922280Y-106967200D01*
X114956820Y-106916400D01*
X114969020Y-106850860D01*
X114965970Y-106815810D01*
X114957840Y-106784320D01*
X114944120Y-106754850D01*
X114925840Y-106723860D01*
X114953780Y-106678140D01*
X115299210Y-106703540D01*
X115299210Y-107059140D01*
X115228100Y-107059140D01*
X115228100Y-106774660D01*
X115002030Y-106754340D01*
X115015240Y-106781270D01*
X115024900Y-106808700D01*
X115030480Y-106838670D01*
X115032520Y-106871180D01*
X115028960Y-106915890D01*
X115018800Y-106957540D01*
X115001530Y-106995640D01*
X114976130Y-107028660D01*
X114943620Y-107056100D01*
X114902980Y-107076920D01*
X114853700Y-107090130D01*
X114796300Y-107094700D01*
X114738890Y-107089620D01*
X114688090Y-107074380D01*
X114644400Y-107051020D01*
X114608340Y-107020540D01*
X114579890Y-106984470D01*
X114559060Y-106943830D01*
X114546360Y-106899630D01*
X114542300Y-106853400D01*
X114550420Y-106775680D01*
X114572780Y-106711670D01*
X114604270Y-106660360D01*
X114641360Y-106619720D01*
X114694690Y-106660360D01*
G37*
G36*
X115299210Y-107239480D02*
G01*
X114641360Y-107437600D01*
X114641360Y-107440140D01*
X114704860Y-107460970D01*
X115299210Y-107638260D01*
X115299210Y-107724620D01*
X114555000Y-107485860D01*
X114555000Y-107389340D01*
X115299210Y-107150580D01*
X115299210Y-107239480D01*
G37*
G36*
X114697240Y-108900640D02*
G01*
X114664210Y-108935700D01*
X114636780Y-108977350D01*
X114617990Y-109027640D01*
X114610870Y-109088600D01*
X114621030Y-109150070D01*
X114649990Y-109199350D01*
X114695710Y-109231860D01*
X114755660Y-109243540D01*
X114818650Y-109230840D01*
X114867420Y-109190200D01*
X114899420Y-109117050D01*
X114910600Y-109007320D01*
X114974100Y-109007320D01*
X114985270Y-109105880D01*
X115016260Y-109170900D01*
X115063000Y-109206970D01*
X115121420Y-109218140D01*
X115171710Y-109209000D01*
X115210320Y-109182580D01*
X115235710Y-109140930D01*
X115245870Y-109086060D01*
X115238760Y-109041870D01*
X115223020Y-109000720D01*
X115199650Y-108964140D01*
X115169680Y-108931120D01*
X115225560Y-108885400D01*
X115259590Y-108928080D01*
X115287020Y-108975830D01*
X115305310Y-109030180D01*
X115311920Y-109091140D01*
X115299720Y-109175470D01*
X115264160Y-109242530D01*
X115206760Y-109286220D01*
X115129030Y-109301960D01*
X115065030Y-109292310D01*
X115013720Y-109264880D01*
X114974600Y-109222720D01*
X114946160Y-109167340D01*
X114943620Y-109167340D01*
X114919740Y-109229830D01*
X114878590Y-109280630D01*
X114822710Y-109314660D01*
X114753120Y-109327360D01*
X114706380Y-109322790D01*
X114664210Y-109309080D01*
X114628150Y-109287740D01*
X114598180Y-109259290D01*
X114574300Y-109224750D01*
X114556520Y-109184620D01*
X114545850Y-109140930D01*
X114542300Y-109093680D01*
X114550420Y-109014440D01*
X114573280Y-108949920D01*
X114605290Y-108898100D01*
X114643900Y-108857460D01*
X114697240Y-108900640D01*
G37*
G36*
X115299210Y-109474680D02*
G01*
X114641360Y-109672800D01*
X114641360Y-109677880D01*
X115299210Y-109873460D01*
X115299210Y-109959820D01*
X114555000Y-109721060D01*
X114555000Y-109624540D01*
X115299210Y-109385780D01*
X115299210Y-109474680D01*
G37*
G36*
X114697240Y-110033480D02*
G01*
X114664210Y-110068540D01*
X114636780Y-110110190D01*
X114617990Y-110160480D01*
X114610870Y-110221440D01*
X114621030Y-110284440D01*
X114649990Y-110333200D01*
X114695710Y-110365210D01*
X114755660Y-110376380D01*
X114818650Y-110364190D01*
X114867420Y-110324060D01*
X114899420Y-110251920D01*
X114910600Y-110142700D01*
X114974100Y-110142700D01*
X114985270Y-110240750D01*
X115016260Y-110304760D01*
X115063000Y-110340320D01*
X115121420Y-110350980D01*
X115171710Y-110341840D01*
X115210320Y-110315930D01*
X115235710Y-110274780D01*
X115245870Y-110221440D01*
X115238760Y-110177250D01*
X115223020Y-110136100D01*
X115199650Y-110098000D01*
X115169680Y-110063960D01*
X115225560Y-110018240D01*
X115259590Y-110061930D01*
X115287020Y-110109680D01*
X115305310Y-110163020D01*
X115311920Y-110223980D01*
X115299720Y-110308310D01*
X115264160Y-110375370D01*
X115206760Y-110419060D01*
X115129030Y-110434800D01*
X115065030Y-110425150D01*
X115013720Y-110398230D01*
X114974600Y-110356570D01*
X114946160Y-110302720D01*
X114943620Y-110302720D01*
X114919740Y-110363680D01*
X114878590Y-110413980D01*
X114822710Y-110447500D01*
X114753120Y-110460200D01*
X114706380Y-110455630D01*
X114664210Y-110441920D01*
X114628150Y-110420580D01*
X114598180Y-110392130D01*
X114574300Y-110357590D01*
X114556520Y-110317460D01*
X114545850Y-110273770D01*
X114542300Y-110226520D01*
X114550420Y-110148290D01*
X114573280Y-110083780D01*
X114605290Y-110031450D01*
X114643900Y-109990300D01*
X114697240Y-110033480D01*
G37*
G36*
X115299210Y-112192480D02*
G01*
X115228100Y-112192480D01*
X115228100Y-111966420D01*
X114555000Y-111966420D01*
X114555000Y-111880060D01*
X115228100Y-111880060D01*
X115228100Y-111654000D01*
X115299210Y-111654000D01*
X115299210Y-112192480D01*
G37*
G36*
X114938530Y-112438860D02*
G01*
X115299210Y-112233120D01*
X115299210Y-112327100D01*
X114994420Y-112492200D01*
X114994420Y-112497280D01*
X115076710Y-112536400D01*
X115299210Y-112654760D01*
X115299210Y-112743660D01*
X114936000Y-112537920D01*
X114555000Y-112756360D01*
X114555000Y-112664920D01*
X114882660Y-112484580D01*
X114882660Y-112482040D01*
X114555000Y-112306780D01*
X114555000Y-112220420D01*
X114938530Y-112438860D01*
G37*
G36*
X115299210Y-114364180D02*
G01*
X115296680Y-114419050D01*
X115288550Y-114468830D01*
X115274320Y-114513030D01*
X115253500Y-114551130D01*
X115225560Y-114581610D01*
X115190000Y-114603960D01*
X115146310Y-114618180D01*
X115093480Y-114623260D01*
X115014740Y-114611070D01*
X114954280Y-114576020D01*
X114911100Y-114521660D01*
X114885190Y-114450540D01*
X114555000Y-114641040D01*
X114555000Y-114547060D01*
X114875030Y-114361640D01*
X114875030Y-114351480D01*
X114946160Y-114351480D01*
X114954790Y-114430730D01*
X114981710Y-114489150D01*
X115027440Y-114524710D01*
X115093480Y-114536900D01*
X115157990Y-114524710D01*
X115200160Y-114489150D01*
X115223520Y-114430730D01*
X115230640Y-114351480D01*
X115230640Y-114221940D01*
X114946160Y-114221940D01*
X114946160Y-114351480D01*
X114875030Y-114351480D01*
X114875030Y-114221940D01*
X114555000Y-114221940D01*
X114555000Y-114138120D01*
X115299210Y-114138120D01*
X115299210Y-114364180D01*
G37*
G36*
X114938530Y-114902660D02*
G01*
X115299210Y-114699460D01*
X115299210Y-114790900D01*
X114994420Y-114956000D01*
X114994420Y-114961080D01*
X115076710Y-115001220D01*
X115299210Y-115121100D01*
X115299210Y-115207460D01*
X114936000Y-115004260D01*
X114555000Y-115222700D01*
X114555000Y-115128720D01*
X114882660Y-114950920D01*
X114882660Y-114945840D01*
X114555000Y-114773120D01*
X114555000Y-114684220D01*
X114938530Y-114902660D01*
G37*
G36*
X115299210Y-116523180D02*
G01*
X115296680Y-116578050D01*
X115288550Y-116627830D01*
X115274320Y-116672030D01*
X115253500Y-116710130D01*
X115225560Y-116740610D01*
X115190000Y-116762960D01*
X115146310Y-116777180D01*
X115093480Y-116782260D01*
X115014740Y-116770070D01*
X114954280Y-116735020D01*
X114911100Y-116680660D01*
X114885190Y-116609540D01*
X114555000Y-116800040D01*
X114555000Y-116706060D01*
X114875030Y-116520640D01*
X114875030Y-116510480D01*
X114946160Y-116510480D01*
X114954790Y-116589730D01*
X114981710Y-116648150D01*
X115027440Y-116683710D01*
X115093480Y-116695900D01*
X115157990Y-116683710D01*
X115200160Y-116648150D01*
X115223520Y-116589730D01*
X115230640Y-116510480D01*
X115230640Y-116380940D01*
X114946160Y-116380940D01*
X114946160Y-116510480D01*
X114875030Y-116510480D01*
X114875030Y-116380940D01*
X114555000Y-116380940D01*
X114555000Y-116297120D01*
X115299210Y-116297120D01*
X115299210Y-116523180D01*
G37*
G36*
X114709940Y-116914340D02*
G01*
X114670820Y-116958540D01*
X114640850Y-117008830D01*
X114622560Y-117064200D01*
X114615960Y-117122620D01*
X114625100Y-117190700D01*
X114651010Y-117242000D01*
X114691140Y-117274010D01*
X114742960Y-117285180D01*
X114794260Y-117275530D01*
X114830840Y-117248610D01*
X114857260Y-117207970D01*
X114928370Y-117051500D01*
X114955810Y-116998670D01*
X114993910Y-116949400D01*
X115047250Y-116913330D01*
X115118870Y-116899100D01*
X115196090Y-116916880D01*
X115257560Y-116965140D01*
X115297690Y-117038300D01*
X115311920Y-117130240D01*
X115305310Y-117194250D01*
X115286010Y-117252670D01*
X115257050Y-117303470D01*
X115220480Y-117346140D01*
X115167140Y-117300420D01*
X115196600Y-117264360D01*
X115218950Y-117224730D01*
X115233180Y-117180540D01*
X115238260Y-117130240D01*
X115230640Y-117071320D01*
X115207780Y-117025600D01*
X115171710Y-116996130D01*
X115123960Y-116985460D01*
X115075190Y-116996640D01*
X115040140Y-117025600D01*
X115014740Y-117065730D01*
X114948690Y-117216600D01*
X114917200Y-117277060D01*
X114876050Y-117326330D01*
X114822200Y-117359350D01*
X114750580Y-117371540D01*
X114707900Y-117366970D01*
X114668790Y-117354270D01*
X114633230Y-117332940D01*
X114602750Y-117303980D01*
X114577350Y-117268420D01*
X114558550Y-117225750D01*
X114546360Y-117176980D01*
X114542300Y-117122620D01*
X114549920Y-117045920D01*
X114572270Y-116976830D01*
X114606810Y-116915870D01*
X114651520Y-116863540D01*
X114709940Y-116914340D01*
G37*
G36*
X115299210Y-117965900D02*
G01*
X115228100Y-117965900D01*
X115228100Y-117737300D01*
X114555000Y-117737300D01*
X114555000Y-117653480D01*
X115228100Y-117653480D01*
X115228100Y-117427420D01*
X115299210Y-117427420D01*
X115299210Y-117965900D01*
G37*
G36*
X114983750Y-118923990D02*
G01*
X115037090Y-118932120D01*
X115086870Y-118945840D01*
X115132080Y-118964630D01*
X115172720Y-118987490D01*
X115208280Y-119015430D01*
X115239270Y-119046930D01*
X115264670Y-119082490D01*
X115284990Y-119121100D01*
X115299720Y-119163260D01*
X115308870Y-119208470D01*
X115311920Y-119256220D01*
X115304300Y-119327340D01*
X115283470Y-119385760D01*
X115254000Y-119432500D01*
X115220480Y-119469580D01*
X115167140Y-119423860D01*
X115194570Y-119392880D01*
X115216920Y-119356300D01*
X115232670Y-119312610D01*
X115238260Y-119258760D01*
X115232670Y-119203390D01*
X115216410Y-119154120D01*
X115190500Y-119110940D01*
X115154940Y-119074870D01*
X115110240Y-119045910D01*
X115057410Y-119024580D01*
X114996450Y-119011880D01*
X114928370Y-119007300D01*
X114860300Y-119011370D01*
X114799340Y-119024070D01*
X114746000Y-119044900D01*
X114700790Y-119072840D01*
X114664720Y-119108900D01*
X114637800Y-119152080D01*
X114621540Y-119201870D01*
X114615960Y-119258760D01*
X114619000Y-119300420D01*
X114628150Y-119339540D01*
X114642880Y-119373570D01*
X114661680Y-119401000D01*
X114864870Y-119401000D01*
X114864870Y-119238440D01*
X114936000Y-119238440D01*
X114936000Y-119479740D01*
X114626120Y-119479740D01*
X114592590Y-119437580D01*
X114566170Y-119384240D01*
X114548390Y-119321760D01*
X114542300Y-119251140D01*
X114548900Y-119181550D01*
X114568710Y-119118050D01*
X114600710Y-119061660D01*
X114644400Y-119013910D01*
X114699780Y-118974280D01*
X114765310Y-118945330D01*
X114841000Y-118927040D01*
X114925840Y-118920940D01*
X114983750Y-118923990D01*
G37*
G36*
X115299210Y-119743900D02*
G01*
X114816620Y-120025840D01*
X114664210Y-120107120D01*
X114664210Y-120112200D01*
X114779020Y-120104080D01*
X114895360Y-120099500D01*
X115299210Y-120099500D01*
X115299210Y-120180780D01*
X114555000Y-120180780D01*
X114555000Y-120094420D01*
X115037600Y-119815020D01*
X115190000Y-119733740D01*
X115190000Y-119728660D01*
X115019820Y-119737810D01*
X114555000Y-119738820D01*
X114555000Y-119657540D01*
X115299210Y-119657540D01*
X115299210Y-119743900D01*
G37*
G36*
X115299210Y-120571940D02*
G01*
X115296680Y-120626810D01*
X115288040Y-120677100D01*
X115274320Y-120722310D01*
X115255530Y-120762950D01*
X115231650Y-120799020D01*
X115202690Y-120830520D01*
X115168660Y-120856930D01*
X115130050Y-120878780D01*
X115086870Y-120895540D01*
X115039120Y-120907730D01*
X114987300Y-120914840D01*
X114930920Y-120917380D01*
X114874530Y-120914840D01*
X114821690Y-120907730D01*
X114773440Y-120895540D01*
X114729750Y-120878780D01*
X114690120Y-120856930D01*
X114655070Y-120830520D01*
X114625610Y-120799530D01*
X114600710Y-120763970D01*
X114580900Y-120723330D01*
X114566680Y-120678620D01*
X114558040Y-120628840D01*
X114555000Y-120574480D01*
X114555000Y-120564320D01*
X114623580Y-120564320D01*
X114629160Y-120627320D01*
X114644910Y-120682180D01*
X114670820Y-120727900D01*
X114705870Y-120765490D01*
X114750070Y-120793940D01*
X114802390Y-120814770D01*
X114862840Y-120826960D01*
X114930920Y-120831020D01*
X114997970Y-120826960D01*
X115056900Y-120814770D01*
X115108210Y-120793940D01*
X115151390Y-120765490D01*
X115185420Y-120727900D01*
X115210320Y-120682180D01*
X115225560Y-120627320D01*
X115230640Y-120564320D01*
X115230640Y-120472880D01*
X114623580Y-120472880D01*
X114623580Y-120564320D01*
X114555000Y-120564320D01*
X114555000Y-120472880D01*
X114555000Y-120389060D01*
X115299210Y-120389060D01*
X115299210Y-120571940D01*
G37*
G36*
X117956060Y-127622980D02*
G01*
X117867160Y-127622980D01*
X117790960Y-127389300D01*
X117514100Y-127389300D01*
X117437900Y-127622980D01*
X117354080Y-127622980D01*
X117456370Y-127323260D01*
X117536960Y-127323260D01*
X117770640Y-127323260D01*
X117653800Y-126949880D01*
X117651260Y-126949880D01*
X117595380Y-127139370D01*
X117536960Y-127323260D01*
X117456370Y-127323260D01*
X117608080Y-126878760D01*
X117699520Y-126878760D01*
X117956060Y-127622980D01*
G37*
G36*
X118469140Y-126929560D02*
G01*
X118427990Y-126984940D01*
X118392940Y-127039290D01*
X118362460Y-127092630D01*
X118336550Y-127145470D01*
X118315210Y-127198800D01*
X118297940Y-127252650D01*
X118283210Y-127307520D01*
X118272030Y-127364920D01*
X118256790Y-127486840D01*
X118248160Y-127622980D01*
X118161800Y-127622980D01*
X118165860Y-127553390D01*
X118179580Y-127425370D01*
X118190240Y-127365940D01*
X118202940Y-127309550D01*
X118218180Y-127255190D01*
X118235960Y-127202360D01*
X118257300Y-127151050D01*
X118281680Y-127100250D01*
X118309120Y-127050470D01*
X118340100Y-127000180D01*
X118375160Y-126949880D01*
X118009400Y-126949880D01*
X118009400Y-126878760D01*
X118469140Y-126878760D01*
X118469140Y-126929560D01*
G37*
G36*
X120754630Y-126744650D02*
G01*
X120800350Y-126759890D01*
X120838960Y-126782750D01*
X120871980Y-126812720D01*
X120826260Y-126866060D01*
X120800860Y-126842190D01*
X120771390Y-126823390D01*
X120739390Y-126811710D01*
X120706880Y-126807640D01*
X120667760Y-126811710D01*
X120631690Y-126823900D01*
X120598670Y-126845740D01*
X120569720Y-126877750D01*
X120545330Y-126920930D01*
X120527040Y-126975790D01*
X120514340Y-127043860D01*
X120508760Y-127125140D01*
X120546350Y-127087550D01*
X120589530Y-127059610D01*
X120635250Y-127042340D01*
X120681480Y-127036240D01*
X120726180Y-127039800D01*
X120765800Y-127050980D01*
X120800350Y-127069260D01*
X120829810Y-127094660D01*
X120853180Y-127127180D01*
X120870450Y-127166800D01*
X120881120Y-127213540D01*
X120884680Y-127267380D01*
X120880100Y-127319200D01*
X120867910Y-127365940D01*
X120848100Y-127407590D01*
X120822700Y-127442140D01*
X120791200Y-127470580D01*
X120756150Y-127491410D01*
X120717540Y-127504110D01*
X120676400Y-127508690D01*
X120625090Y-127503100D01*
X120577840Y-127485320D01*
X120535680Y-127456360D01*
X120499610Y-127416230D01*
X120470660Y-127364920D01*
X120448300Y-127301930D01*
X120434590Y-127227760D01*
X120432890Y-127196260D01*
X120511300Y-127196260D01*
X120527550Y-127301420D01*
X120560570Y-127378640D01*
X120610360Y-127426390D01*
X120676400Y-127442640D01*
X120728210Y-127429940D01*
X120769870Y-127393880D01*
X120798320Y-127338500D01*
X120808480Y-127267380D01*
X120799840Y-127197790D01*
X120773420Y-127143940D01*
X120729230Y-127109400D01*
X120666240Y-127097200D01*
X120629660Y-127102790D01*
X120590540Y-127120060D01*
X120550410Y-127150540D01*
X120511300Y-127196260D01*
X120432890Y-127196260D01*
X120430020Y-127142920D01*
X120436110Y-127040820D01*
X120452370Y-126955470D01*
X120478280Y-126885880D01*
X120512310Y-126830500D01*
X120553460Y-126789360D01*
X120599180Y-126760910D01*
X120649470Y-126744140D01*
X120701800Y-126739060D01*
X120754630Y-126744650D01*
G37*
G36*
X120369060Y-127495980D02*
G01*
X120280160Y-127495980D01*
X120203960Y-127262300D01*
X119927100Y-127262300D01*
X119850900Y-127495980D01*
X119767080Y-127495980D01*
X119869370Y-127196260D01*
X119949960Y-127196260D01*
X120183640Y-127196260D01*
X120066800Y-126822880D01*
X120064260Y-126822880D01*
X120008380Y-127012370D01*
X119949960Y-127196260D01*
X119869370Y-127196260D01*
X120021080Y-126751760D01*
X120112520Y-126751760D01*
X120369060Y-127495980D01*
G37*
G36*
X122909060Y-127495980D02*
G01*
X122820160Y-127495980D01*
X122743960Y-127262300D01*
X122467100Y-127262300D01*
X122390890Y-127495980D01*
X122307070Y-127495980D01*
X122409370Y-127196260D01*
X122489960Y-127196260D01*
X122723640Y-127196260D01*
X122606800Y-126822880D01*
X122604250Y-126822880D01*
X122548380Y-127012370D01*
X122489960Y-127196260D01*
X122409370Y-127196260D01*
X122561070Y-126751760D01*
X122652520Y-126751760D01*
X122909060Y-127495980D01*
G37*
G36*
X123378960Y-126822880D02*
G01*
X123097020Y-126822880D01*
X123076700Y-127048940D01*
X123103110Y-127035740D01*
X123130540Y-127026080D01*
X123160010Y-127020500D01*
X123193540Y-127018460D01*
X123238240Y-127022020D01*
X123279390Y-127032180D01*
X123316980Y-127049450D01*
X123350000Y-127074850D01*
X123376920Y-127107360D01*
X123397240Y-127148000D01*
X123409940Y-127197280D01*
X123414520Y-127254690D01*
X123409430Y-127312090D01*
X123394200Y-127362890D01*
X123371340Y-127406580D01*
X123340860Y-127442640D01*
X123304790Y-127471090D01*
X123264660Y-127491920D01*
X123220970Y-127504620D01*
X123175750Y-127508690D01*
X123096510Y-127500560D01*
X123033010Y-127478200D01*
X122982720Y-127446710D01*
X122942070Y-127409620D01*
X122982720Y-127356280D01*
X123017260Y-127387780D01*
X123058410Y-127414200D01*
X123107680Y-127432990D01*
X123168140Y-127440110D01*
X123231640Y-127427400D01*
X123283960Y-127390830D01*
X123320030Y-127332920D01*
X123333240Y-127257220D01*
X123321550Y-127183560D01*
X123289550Y-127128700D01*
X123238750Y-127094160D01*
X123173220Y-127081970D01*
X123138160Y-127085010D01*
X123106670Y-127093140D01*
X123077200Y-127106860D01*
X123046220Y-127125140D01*
X123000500Y-127097200D01*
X123023360Y-126751760D01*
X123378960Y-126751760D01*
X123378960Y-126822880D01*
G37*
G36*
X125449060Y-127495980D02*
G01*
X125360160Y-127495980D01*
X125283960Y-127262300D01*
X125007100Y-127262300D01*
X124930890Y-127495980D01*
X124847070Y-127495980D01*
X124949370Y-127196260D01*
X125029960Y-127196260D01*
X125263640Y-127196260D01*
X125146800Y-126822880D01*
X125144250Y-126822880D01*
X125088380Y-127012370D01*
X125029960Y-127196260D01*
X124949370Y-127196260D01*
X125101070Y-126751760D01*
X125192520Y-126751760D01*
X125449060Y-127495980D01*
G37*
G36*
X125875780Y-127221660D02*
G01*
X125977380Y-127221660D01*
X125977380Y-127287700D01*
X125875780Y-127287700D01*
X125875780Y-127495980D01*
X125797040Y-127495980D01*
X125797040Y-127287700D01*
X125471920Y-127287700D01*
X125471920Y-127234360D01*
X125480200Y-127221660D01*
X125560820Y-127221660D01*
X125797040Y-127221660D01*
X125797040Y-126980360D01*
X125804660Y-126848280D01*
X125799570Y-126848280D01*
X125741160Y-126957500D01*
X125560820Y-127221660D01*
X125480200Y-127221660D01*
X125786880Y-126751760D01*
X125875780Y-126751760D01*
X125875780Y-127221660D01*
G37*
G36*
X127976360Y-127427400D02*
G01*
X128126220Y-127427400D01*
X128126220Y-127495980D01*
X127727440Y-127495980D01*
X127727440Y-127427400D01*
X127892540Y-127427400D01*
X127892540Y-126855900D01*
X127763000Y-126855900D01*
X127763000Y-126802560D01*
X127807700Y-126793420D01*
X127847320Y-126781740D01*
X127882380Y-126768020D01*
X127912860Y-126751760D01*
X127976360Y-126751760D01*
X127976360Y-127427400D01*
G37*
G36*
X128532620Y-127427400D02*
G01*
X128685020Y-127427400D01*
X128685020Y-127495980D01*
X128283700Y-127495980D01*
X128283700Y-127427400D01*
X128451340Y-127427400D01*
X128451340Y-126855900D01*
X128319260Y-126855900D01*
X128319260Y-126802560D01*
X128363960Y-126793420D01*
X128403580Y-126781740D01*
X128438640Y-126768020D01*
X128469120Y-126751760D01*
X128532620Y-126751760D01*
X128532620Y-127427400D01*
G37*
G36*
X131063470Y-126745160D02*
G01*
X131107160Y-126762430D01*
X131145770Y-126791900D01*
X131178790Y-126833550D01*
X131204700Y-126886890D01*
X131224000Y-126952420D01*
X131236190Y-127030150D01*
X131240260Y-127120060D01*
X131236190Y-127212010D01*
X131224000Y-127291260D01*
X131204700Y-127357810D01*
X131178790Y-127412670D01*
X131145770Y-127454840D01*
X131107160Y-127484810D01*
X131063470Y-127502590D01*
X131014200Y-127508690D01*
X130963400Y-127502590D01*
X130918690Y-127484810D01*
X130879580Y-127454840D01*
X130846560Y-127412670D01*
X130820650Y-127357810D01*
X130801340Y-127291260D01*
X130789660Y-127212010D01*
X130785600Y-127120060D01*
X130864340Y-127120060D01*
X130866880Y-127198300D01*
X130875000Y-127264840D01*
X130888210Y-127320220D01*
X130905990Y-127365430D01*
X130927840Y-127399470D01*
X130953240Y-127423850D01*
X130982190Y-127438070D01*
X131014200Y-127442640D01*
X131045180Y-127438070D01*
X131073120Y-127423850D01*
X131098020Y-127399470D01*
X131118840Y-127365430D01*
X131136120Y-127320220D01*
X131148310Y-127264840D01*
X131156440Y-127198300D01*
X131158980Y-127120060D01*
X131156440Y-127044370D01*
X131148310Y-126979860D01*
X131136120Y-126925500D01*
X131118840Y-126881810D01*
X131098020Y-126847780D01*
X131073120Y-126823900D01*
X131045180Y-126809680D01*
X131014200Y-126805100D01*
X130982190Y-126809680D01*
X130953240Y-126823900D01*
X130927840Y-126847780D01*
X130905990Y-126881810D01*
X130888210Y-126925500D01*
X130875000Y-126979860D01*
X130866880Y-127044370D01*
X130864340Y-127120060D01*
X130785600Y-127120060D01*
X130789660Y-127030150D01*
X130801340Y-126952420D01*
X130820650Y-126886890D01*
X130846560Y-126833550D01*
X130879580Y-126791900D01*
X130918690Y-126762430D01*
X130963400Y-126745160D01*
X131014200Y-126739060D01*
X131063470Y-126745160D01*
G37*
G36*
X130516360Y-127427400D02*
G01*
X130666220Y-127427400D01*
X130666220Y-127495980D01*
X130267440Y-127495980D01*
X130267440Y-127427400D01*
X130432540Y-127427400D01*
X130432540Y-126855900D01*
X130303000Y-126855900D01*
X130303000Y-126802560D01*
X130347700Y-126793420D01*
X130387320Y-126781740D01*
X130422380Y-126768020D01*
X130452860Y-126751760D01*
X130516360Y-126751760D01*
X130516360Y-127427400D01*
G37*
G36*
X133226540Y-126802560D02*
G01*
X133185390Y-126857940D01*
X133150340Y-126912290D01*
X133119860Y-126965630D01*
X133093950Y-127018460D01*
X133072610Y-127071800D01*
X133055340Y-127125650D01*
X133040610Y-127180520D01*
X133029430Y-127237920D01*
X133014190Y-127359840D01*
X133005560Y-127495980D01*
X132919200Y-127495980D01*
X132923260Y-127426390D01*
X132936980Y-127298370D01*
X132947140Y-127238940D01*
X132959840Y-127182550D01*
X132975080Y-127128190D01*
X132992860Y-127075360D01*
X133013680Y-127024050D01*
X133037560Y-126973250D01*
X133095470Y-126873180D01*
X133130020Y-126822880D01*
X132766800Y-126822880D01*
X132766800Y-126751760D01*
X133226540Y-126751760D01*
X133226540Y-126802560D01*
G37*
G36*
X135893030Y-126871650D02*
G01*
X135938750Y-126886890D01*
X135977360Y-126909750D01*
X136010380Y-126939720D01*
X135962120Y-126993060D01*
X135937220Y-126969190D01*
X135908270Y-126950390D01*
X135876260Y-126938710D01*
X135842740Y-126934640D01*
X135804640Y-126938710D01*
X135768570Y-126950900D01*
X135735550Y-126972740D01*
X135706590Y-127004750D01*
X135682720Y-127047930D01*
X135663920Y-127102790D01*
X135652240Y-127170860D01*
X135647160Y-127252140D01*
X135684750Y-127214550D01*
X135727420Y-127186610D01*
X135772630Y-127169340D01*
X135817340Y-127163240D01*
X135862550Y-127166800D01*
X135903190Y-127177980D01*
X135938240Y-127196260D01*
X135967700Y-127221660D01*
X135991580Y-127254180D01*
X136008850Y-127293800D01*
X136019520Y-127340540D01*
X136023080Y-127394380D01*
X136018500Y-127446200D01*
X136006310Y-127492940D01*
X135986500Y-127534590D01*
X135961100Y-127569140D01*
X135929600Y-127597580D01*
X135894550Y-127618410D01*
X135855940Y-127631110D01*
X135814800Y-127635690D01*
X135762470Y-127630100D01*
X135715230Y-127612320D01*
X135673060Y-127583360D01*
X135637500Y-127543230D01*
X135608040Y-127491920D01*
X135586700Y-127428930D01*
X135572990Y-127354760D01*
X135571290Y-127323260D01*
X135647160Y-127323260D01*
X135663920Y-127428420D01*
X135697450Y-127505640D01*
X135748250Y-127553390D01*
X135814800Y-127569640D01*
X135866100Y-127556940D01*
X135907250Y-127520880D01*
X135934680Y-127465500D01*
X135944340Y-127394380D01*
X135936210Y-127324790D01*
X135910810Y-127270940D01*
X135867120Y-127236400D01*
X135804640Y-127224200D01*
X135768060Y-127229790D01*
X135727930Y-127247060D01*
X135686780Y-127277540D01*
X135647160Y-127323260D01*
X135571290Y-127323260D01*
X135568420Y-127269920D01*
X135574510Y-127167820D01*
X135590770Y-127082470D01*
X135616680Y-127012880D01*
X135651220Y-126957500D01*
X135691860Y-126916360D01*
X135737580Y-126887910D01*
X135787870Y-126871140D01*
X135840200Y-126866060D01*
X135893030Y-126871650D01*
G37*
G36*
X135577050Y-98787890D02*
G01*
X135638010Y-98807700D01*
X135692880Y-98839700D01*
X135739610Y-98883390D01*
X135777710Y-98938760D01*
X135806160Y-99004300D01*
X135823940Y-99079990D01*
X135830040Y-99164820D01*
X135823940Y-99250170D01*
X135805650Y-99325860D01*
X135776700Y-99391900D01*
X135738090Y-99447270D01*
X135690340Y-99491470D01*
X135634960Y-99523980D01*
X135572990Y-99544300D01*
X135504920Y-99550900D01*
X135440910Y-99543280D01*
X135385030Y-99523470D01*
X135338800Y-99494010D01*
X135301720Y-99459460D01*
X135349980Y-99406120D01*
X135380960Y-99435590D01*
X135417030Y-99457940D01*
X135458180Y-99472170D01*
X135504920Y-99477240D01*
X135556730Y-99471660D01*
X135603470Y-99455400D01*
X135644110Y-99429490D01*
X135678650Y-99393930D01*
X135706080Y-99349230D01*
X135726910Y-99296400D01*
X135739100Y-99235440D01*
X135743680Y-99167360D01*
X135739610Y-99099290D01*
X135726910Y-99038330D01*
X135707100Y-98984990D01*
X135679670Y-98939780D01*
X135645630Y-98903710D01*
X135605500Y-98876790D01*
X135559270Y-98860530D01*
X135507460Y-98854950D01*
X135455640Y-98860530D01*
X135410430Y-98877300D01*
X135369790Y-98904220D01*
X135332200Y-98941300D01*
X135283940Y-98887960D01*
X135330160Y-98842240D01*
X135382490Y-98808720D01*
X135441920Y-98788400D01*
X135510000Y-98781280D01*
X135577050Y-98787890D01*
G37*
G36*
X135156940Y-98862560D02*
G01*
X134989300Y-98862560D01*
X134989300Y-99434060D01*
X135121380Y-99434060D01*
X135121380Y-99487400D01*
X135076670Y-99496550D01*
X135037050Y-99508230D01*
X135002000Y-99521950D01*
X134971520Y-99538200D01*
X134908020Y-99538200D01*
X134908020Y-98862560D01*
X134755620Y-98862560D01*
X134755620Y-98793980D01*
X135156940Y-98793980D01*
X135156940Y-98862560D01*
G37*
G36*
X141673050Y-98660890D02*
G01*
X141734010Y-98680700D01*
X141788870Y-98712700D01*
X141835610Y-98756390D01*
X141873710Y-98811760D01*
X141902160Y-98877300D01*
X141919940Y-98952990D01*
X141926040Y-99037820D01*
X141919940Y-99123170D01*
X141901650Y-99198860D01*
X141872700Y-99264900D01*
X141834090Y-99320270D01*
X141786340Y-99364470D01*
X141730960Y-99396980D01*
X141668990Y-99417300D01*
X141600920Y-99423900D01*
X141536910Y-99416280D01*
X141481030Y-99396470D01*
X141434800Y-99367010D01*
X141397720Y-99332460D01*
X141445980Y-99279120D01*
X141476960Y-99308590D01*
X141513030Y-99330940D01*
X141554180Y-99345170D01*
X141600920Y-99350240D01*
X141652730Y-99344660D01*
X141699470Y-99328400D01*
X141740110Y-99302490D01*
X141774650Y-99266930D01*
X141802080Y-99222230D01*
X141822910Y-99169400D01*
X141835100Y-99108440D01*
X141839680Y-99040360D01*
X141835610Y-98972290D01*
X141822910Y-98911330D01*
X141803100Y-98857990D01*
X141775670Y-98812780D01*
X141741630Y-98776710D01*
X141701500Y-98749790D01*
X141655270Y-98733530D01*
X141603460Y-98727950D01*
X141551640Y-98733530D01*
X141506430Y-98750300D01*
X141465790Y-98777220D01*
X141428200Y-98814300D01*
X141379940Y-98760960D01*
X141426160Y-98715240D01*
X141478490Y-98681720D01*
X141537920Y-98661400D01*
X141606000Y-98654280D01*
X141673050Y-98660890D01*
G37*
G36*
X141296120Y-98717780D02*
G01*
X141213310Y-98792460D01*
X141142700Y-98862060D01*
X141083770Y-98927590D01*
X141036020Y-98989060D01*
X140999440Y-99046970D01*
X140973540Y-99101320D01*
X140958290Y-99153140D01*
X140953220Y-99202920D01*
X140961850Y-99264390D01*
X140988270Y-99313670D01*
X141032460Y-99346180D01*
X141095460Y-99357860D01*
X141139650Y-99350750D01*
X141180800Y-99331450D01*
X141218900Y-99303000D01*
X141252940Y-99268960D01*
X141301200Y-99314680D01*
X141255980Y-99359390D01*
X141206710Y-99393930D01*
X141150320Y-99416280D01*
X141085290Y-99423900D01*
X141038050Y-99419840D01*
X140996400Y-99408160D01*
X140959820Y-99389360D01*
X140929340Y-99364470D01*
X140904450Y-99332460D01*
X140886670Y-99295380D01*
X140875490Y-99252710D01*
X140871940Y-99205460D01*
X140877520Y-99149080D01*
X140893270Y-99092180D01*
X140919180Y-99034780D01*
X140954230Y-98976860D01*
X140997410Y-98917940D01*
X141048720Y-98857480D01*
X141107140Y-98796020D01*
X141171650Y-98733020D01*
X141079710Y-98737600D01*
X140836370Y-98738100D01*
X140836370Y-98666980D01*
X141296120Y-98666980D01*
X141296120Y-98717780D01*
G37*
G36*
X129735050Y-98787890D02*
G01*
X129796010Y-98807700D01*
X129850880Y-98839700D01*
X129897610Y-98883390D01*
X129935710Y-98938760D01*
X129964160Y-99004300D01*
X129981940Y-99079990D01*
X129988040Y-99164820D01*
X129981940Y-99250170D01*
X129963650Y-99325860D01*
X129934700Y-99391900D01*
X129896090Y-99447270D01*
X129848340Y-99491470D01*
X129792960Y-99523980D01*
X129730990Y-99544300D01*
X129662920Y-99550900D01*
X129598910Y-99543280D01*
X129543030Y-99523470D01*
X129496800Y-99494010D01*
X129459720Y-99459460D01*
X129507980Y-99406120D01*
X129538960Y-99435590D01*
X129575030Y-99457940D01*
X129616180Y-99472170D01*
X129662920Y-99477240D01*
X129714730Y-99471660D01*
X129761470Y-99455400D01*
X129802110Y-99429490D01*
X129836650Y-99393930D01*
X129864080Y-99349230D01*
X129884910Y-99296400D01*
X129897100Y-99235440D01*
X129901680Y-99167360D01*
X129897610Y-99099290D01*
X129884910Y-99038330D01*
X129865100Y-98984990D01*
X129837670Y-98939780D01*
X129803630Y-98903710D01*
X129763500Y-98876790D01*
X129717270Y-98860530D01*
X129665460Y-98854950D01*
X129613640Y-98860530D01*
X129568430Y-98877300D01*
X129527790Y-98904220D01*
X129490200Y-98941300D01*
X129441940Y-98887960D01*
X129488160Y-98842240D01*
X129540490Y-98808720D01*
X129599920Y-98788400D01*
X129668000Y-98781280D01*
X129735050Y-98787890D01*
G37*
G36*
X129217910Y-98789410D02*
G01*
X129282420Y-98812270D01*
X129333730Y-98844280D01*
X129373360Y-98882890D01*
X129332720Y-98936230D01*
X129296140Y-98903200D01*
X129253980Y-98875770D01*
X129204190Y-98856980D01*
X129144760Y-98849860D01*
X129081760Y-98860020D01*
X129031470Y-98888980D01*
X128998960Y-98934700D01*
X128987280Y-98994640D01*
X128999980Y-99057640D01*
X129040620Y-99106400D01*
X129113770Y-99138410D01*
X129223500Y-99149580D01*
X129223500Y-99213080D01*
X129125450Y-99224260D01*
X129061440Y-99255250D01*
X129025880Y-99301980D01*
X129015220Y-99360400D01*
X129023850Y-99410700D01*
X129049760Y-99449300D01*
X129090400Y-99474700D01*
X129144760Y-99484860D01*
X129188950Y-99477750D01*
X129230100Y-99462000D01*
X129268200Y-99438640D01*
X129302240Y-99408670D01*
X129347960Y-99464540D01*
X129304270Y-99498580D01*
X129255500Y-99526010D01*
X129201650Y-99544300D01*
X129142220Y-99550900D01*
X129057890Y-99538710D01*
X128991340Y-99503150D01*
X128947140Y-99445750D01*
X128931400Y-99368020D01*
X128941050Y-99304020D01*
X128967970Y-99252710D01*
X129009630Y-99213590D01*
X129063480Y-99185140D01*
X129063480Y-99182600D01*
X129002520Y-99158730D01*
X128952220Y-99117580D01*
X128918700Y-99061700D01*
X128906000Y-98992100D01*
X128910570Y-98945370D01*
X128923780Y-98903200D01*
X128945110Y-98867140D01*
X128973050Y-98837170D01*
X129007600Y-98813290D01*
X129047220Y-98795510D01*
X129091920Y-98784840D01*
X129139680Y-98781280D01*
X129217910Y-98789410D01*
G37*
G36*
X172512720Y-102426180D02*
G01*
X172721000Y-102426180D01*
X172721000Y-102502390D01*
X172512720Y-102502390D01*
X172512720Y-102830040D01*
X172459380Y-102830040D01*
X171976780Y-102512540D01*
X171976780Y-102502390D01*
X172073300Y-102502390D01*
X172182520Y-102560800D01*
X172446680Y-102741140D01*
X172446680Y-102502390D01*
X172205380Y-102502390D01*
X172073300Y-102497300D01*
X172073300Y-102502390D01*
X171976780Y-102502390D01*
X171976780Y-102497300D01*
X171976780Y-102426180D01*
X172446680Y-102426180D01*
X172446680Y-102324580D01*
X172512720Y-102324580D01*
X172512720Y-102426180D01*
G37*
G36*
X172672740Y-102932150D02*
G01*
X172706260Y-102984480D01*
X172726580Y-103043910D01*
X172733700Y-103111980D01*
X172727090Y-103179040D01*
X172707280Y-103240000D01*
X172675280Y-103294860D01*
X172631590Y-103341600D01*
X172576220Y-103379700D01*
X172510680Y-103408150D01*
X172434990Y-103425930D01*
X172350160Y-103432020D01*
X172264810Y-103425930D01*
X172189120Y-103407640D01*
X172123080Y-103378680D01*
X172067710Y-103340080D01*
X172023510Y-103292320D01*
X171991000Y-103236950D01*
X171970680Y-103174980D01*
X171964080Y-103106900D01*
X171971700Y-103042900D01*
X171991510Y-102987020D01*
X172020970Y-102940790D01*
X172055520Y-102903700D01*
X172108860Y-102951960D01*
X172079390Y-102982950D01*
X172057040Y-103019020D01*
X172042810Y-103060170D01*
X172037740Y-103106900D01*
X172043320Y-103158720D01*
X172059580Y-103205460D01*
X172085490Y-103246100D01*
X172121050Y-103280640D01*
X172165750Y-103308070D01*
X172218580Y-103328900D01*
X172279540Y-103341090D01*
X172347620Y-103345670D01*
X172415690Y-103341600D01*
X172476650Y-103328900D01*
X172529990Y-103309090D01*
X172575200Y-103281660D01*
X172611270Y-103247620D01*
X172638190Y-103207490D01*
X172654450Y-103161260D01*
X172660030Y-103109450D01*
X172654450Y-103057630D01*
X172637680Y-103012420D01*
X172610760Y-102971780D01*
X172573680Y-102934180D01*
X172627020Y-102885920D01*
X172672740Y-102932150D01*
G37*
G36*
X156151050Y-83547890D02*
G01*
X156212010Y-83567700D01*
X156266880Y-83599700D01*
X156313610Y-83643390D01*
X156351710Y-83698760D01*
X156380160Y-83764300D01*
X156397940Y-83839990D01*
X156404040Y-83924820D01*
X156397940Y-84010170D01*
X156379650Y-84085860D01*
X156350700Y-84151900D01*
X156312090Y-84207270D01*
X156264340Y-84251470D01*
X156208960Y-84283980D01*
X156146990Y-84304300D01*
X156078920Y-84310900D01*
X156014910Y-84303280D01*
X155959030Y-84283470D01*
X155912800Y-84254010D01*
X155875720Y-84219460D01*
X155923980Y-84166120D01*
X155954960Y-84195590D01*
X155991030Y-84217940D01*
X156032180Y-84232160D01*
X156078920Y-84237240D01*
X156130730Y-84231660D01*
X156177470Y-84215400D01*
X156218110Y-84189490D01*
X156252650Y-84153930D01*
X156280080Y-84109230D01*
X156300910Y-84056400D01*
X156313100Y-83995440D01*
X156317680Y-83927360D01*
X156313610Y-83859290D01*
X156300910Y-83798330D01*
X156281100Y-83744990D01*
X156253670Y-83699780D01*
X156219630Y-83663710D01*
X156179500Y-83636790D01*
X156133270Y-83620530D01*
X156081460Y-83614940D01*
X156029640Y-83620530D01*
X155984430Y-83637300D01*
X155943790Y-83664220D01*
X155906200Y-83701300D01*
X155857940Y-83647960D01*
X155904160Y-83602240D01*
X155956490Y-83568720D01*
X156015920Y-83548400D01*
X156084000Y-83541280D01*
X156151050Y-83547890D01*
G37*
G36*
X155560760Y-84036580D02*
G01*
X155642040Y-84188980D01*
X155647120Y-84188980D01*
X155637970Y-84018800D01*
X155636960Y-83553980D01*
X155718240Y-83553980D01*
X155718240Y-84298200D01*
X155631880Y-84298200D01*
X155349940Y-83815600D01*
X155268660Y-83663200D01*
X155263580Y-83663200D01*
X155271700Y-83778010D01*
X155276280Y-83894340D01*
X155276280Y-84298200D01*
X155195000Y-84298200D01*
X155195000Y-83553980D01*
X155281360Y-83553980D01*
X155560760Y-84036580D01*
G37*
G36*
X155001960Y-83622560D02*
G01*
X154834320Y-83622560D01*
X154834320Y-84194060D01*
X154966400Y-84194060D01*
X154966400Y-84247400D01*
X154920680Y-84256550D01*
X154880540Y-84268230D01*
X154845490Y-84281950D01*
X154814000Y-84298200D01*
X154753040Y-84298200D01*
X154753040Y-83622560D01*
X154600640Y-83622560D01*
X154600640Y-83553980D01*
X155001960Y-83553980D01*
X155001960Y-83622560D01*
G37*
G36*
X179011050Y-83674890D02*
G01*
X179072010Y-83694700D01*
X179126880Y-83726700D01*
X179173610Y-83770390D01*
X179211710Y-83825760D01*
X179240160Y-83891300D01*
X179257940Y-83966990D01*
X179264030Y-84051820D01*
X179257940Y-84137170D01*
X179239650Y-84212860D01*
X179210700Y-84278900D01*
X179172090Y-84334270D01*
X179124340Y-84378470D01*
X179068960Y-84410980D01*
X179006990Y-84431300D01*
X178938920Y-84437900D01*
X178874910Y-84430280D01*
X178819030Y-84410470D01*
X178772800Y-84381010D01*
X178735720Y-84346460D01*
X178783980Y-84293120D01*
X178814960Y-84322590D01*
X178851030Y-84344940D01*
X178892180Y-84359160D01*
X178938920Y-84364240D01*
X178990730Y-84358660D01*
X179037470Y-84342400D01*
X179078110Y-84316490D01*
X179112650Y-84280930D01*
X179140080Y-84236230D01*
X179160910Y-84183400D01*
X179173100Y-84122440D01*
X179177680Y-84054360D01*
X179173610Y-83986290D01*
X179160910Y-83925330D01*
X179141100Y-83871990D01*
X179113670Y-83826780D01*
X179079630Y-83790710D01*
X179039500Y-83763790D01*
X178993270Y-83747530D01*
X178941460Y-83741940D01*
X178889640Y-83747530D01*
X178844430Y-83764300D01*
X178803790Y-83791220D01*
X178766200Y-83828300D01*
X178717940Y-83774960D01*
X178764160Y-83729240D01*
X178816490Y-83695720D01*
X178875920Y-83675400D01*
X178944000Y-83668280D01*
X179011050Y-83674890D01*
G37*
G36*
X178420750Y-84163580D02*
G01*
X178502030Y-84315980D01*
X178507120Y-84315980D01*
X178497970Y-84145800D01*
X178496960Y-83680980D01*
X178578240Y-83680980D01*
X178578240Y-84425200D01*
X178491880Y-84425200D01*
X178209940Y-83942600D01*
X178128660Y-83790200D01*
X178123580Y-83790200D01*
X178131700Y-83905010D01*
X178136280Y-84021340D01*
X178136280Y-84425200D01*
X178055000Y-84425200D01*
X178055000Y-83680980D01*
X178141360Y-83680980D01*
X178420750Y-84163580D01*
G37*
G36*
X177905140Y-83731780D02*
G01*
X177822330Y-83806460D01*
X177751720Y-83876060D01*
X177692790Y-83941590D01*
X177645040Y-84003060D01*
X177608460Y-84060970D01*
X177582560Y-84115320D01*
X177567310Y-84167140D01*
X177562240Y-84216920D01*
X177570870Y-84278390D01*
X177597290Y-84327670D01*
X177641480Y-84360180D01*
X177704480Y-84371860D01*
X177748670Y-84364750D01*
X177789820Y-84345450D01*
X177827920Y-84317000D01*
X177861960Y-84282960D01*
X177910220Y-84328680D01*
X177864500Y-84373390D01*
X177814710Y-84407930D01*
X177758320Y-84430280D01*
X177694310Y-84437900D01*
X177647070Y-84433840D01*
X177605420Y-84422160D01*
X177568840Y-84403360D01*
X177538360Y-84378470D01*
X177513470Y-84346460D01*
X177495690Y-84309380D01*
X177484510Y-84266710D01*
X177480960Y-84219460D01*
X177486540Y-84163080D01*
X177502290Y-84106180D01*
X177527690Y-84048780D01*
X177562240Y-83990860D01*
X177605420Y-83931940D01*
X177656720Y-83871480D01*
X177715140Y-83810020D01*
X177780680Y-83747020D01*
X177688220Y-83751600D01*
X177445400Y-83752100D01*
X177445400Y-83680980D01*
X177905140Y-83680980D01*
X177905140Y-83731780D01*
G37*
G36*
X133037050Y-83547890D02*
G01*
X133098010Y-83567700D01*
X133152880Y-83599700D01*
X133199610Y-83643390D01*
X133237710Y-83698760D01*
X133266160Y-83764300D01*
X133283940Y-83839990D01*
X133290040Y-83924820D01*
X133283940Y-84010170D01*
X133265650Y-84085860D01*
X133236700Y-84151900D01*
X133198090Y-84207270D01*
X133150340Y-84251470D01*
X133094960Y-84283980D01*
X133032990Y-84304300D01*
X132964920Y-84310900D01*
X132900910Y-84303280D01*
X132845030Y-84283470D01*
X132798800Y-84254010D01*
X132761720Y-84219460D01*
X132809980Y-84166120D01*
X132840960Y-84195590D01*
X132877030Y-84217940D01*
X132918180Y-84232160D01*
X132964920Y-84237240D01*
X133016730Y-84231660D01*
X133063470Y-84215400D01*
X133104110Y-84189490D01*
X133138650Y-84153930D01*
X133166080Y-84109230D01*
X133186910Y-84056400D01*
X133199100Y-83995440D01*
X133203680Y-83927360D01*
X133199610Y-83859290D01*
X133186910Y-83798330D01*
X133167100Y-83744990D01*
X133139670Y-83699780D01*
X133105630Y-83663710D01*
X133065500Y-83636790D01*
X133019270Y-83620530D01*
X132967460Y-83614940D01*
X132915640Y-83620530D01*
X132870430Y-83637300D01*
X132829790Y-83664220D01*
X132792200Y-83701300D01*
X132743940Y-83647960D01*
X132790160Y-83602240D01*
X132842490Y-83568720D01*
X132901920Y-83548400D01*
X132970000Y-83541280D01*
X133037050Y-83547890D01*
G37*
G36*
X131789400Y-83549410D02*
G01*
X131853920Y-83572270D01*
X131905740Y-83604280D01*
X131946380Y-83642880D01*
X131903200Y-83696220D01*
X131868140Y-83663200D01*
X131826490Y-83635770D01*
X131776200Y-83616980D01*
X131715240Y-83609860D01*
X131653770Y-83620020D01*
X131604490Y-83648980D01*
X131571980Y-83694700D01*
X131560300Y-83754640D01*
X131573000Y-83817640D01*
X131613640Y-83866400D01*
X131686790Y-83898410D01*
X131796520Y-83909580D01*
X131796520Y-83973080D01*
X131698470Y-83984260D01*
X131634460Y-84015250D01*
X131598900Y-84061980D01*
X131588240Y-84120400D01*
X131596870Y-84170700D01*
X131622270Y-84209300D01*
X131663420Y-84234700D01*
X131717780Y-84244860D01*
X131761970Y-84237750D01*
X131803120Y-84222000D01*
X131839700Y-84198640D01*
X131872720Y-84168660D01*
X131918440Y-84224540D01*
X131875760Y-84258580D01*
X131828520Y-84286010D01*
X131774670Y-84304300D01*
X131715240Y-84310900D01*
X131630400Y-84298710D01*
X131562840Y-84263150D01*
X131518130Y-84205750D01*
X131501880Y-84128020D01*
X131512040Y-84064020D01*
X131539470Y-84012710D01*
X131582140Y-83973590D01*
X131636500Y-83945140D01*
X131636500Y-83942600D01*
X131574010Y-83918730D01*
X131523210Y-83877580D01*
X131489180Y-83821700D01*
X131476480Y-83752100D01*
X131481050Y-83705370D01*
X131494760Y-83663200D01*
X131516100Y-83627140D01*
X131544550Y-83597160D01*
X131579090Y-83573290D01*
X131619220Y-83555510D01*
X131662910Y-83544840D01*
X131710160Y-83541280D01*
X131789400Y-83549410D01*
G37*
G36*
X132446760Y-84036580D02*
G01*
X132528040Y-84188980D01*
X132533120Y-84188980D01*
X132523970Y-84018800D01*
X132522960Y-83553980D01*
X132604240Y-83553980D01*
X132604240Y-84298200D01*
X132517880Y-84298200D01*
X132235940Y-83815600D01*
X132154660Y-83663200D01*
X132149580Y-83663200D01*
X132157700Y-83778010D01*
X132162280Y-83894340D01*
X132162280Y-84298200D01*
X132081000Y-84298200D01*
X132081000Y-83553980D01*
X132167360Y-83553980D01*
X132446760Y-84036580D01*
G37*
G36*
X182119000Y-107115020D02*
G01*
X182050420Y-107115020D01*
X182050420Y-106947380D01*
X181478920Y-106947380D01*
X181478920Y-107079460D01*
X181425580Y-107079460D01*
X181416430Y-107033740D01*
X181404750Y-106993610D01*
X181391030Y-106958560D01*
X181374780Y-106927060D01*
X181374780Y-106866100D01*
X182050420Y-106866100D01*
X182050420Y-106713700D01*
X182119000Y-106713700D01*
X182119000Y-107115020D01*
G37*
G36*
X182119000Y-107391880D02*
G01*
X181763400Y-107391880D01*
X181763400Y-107750020D01*
X182119000Y-107750020D01*
X182119000Y-107833840D01*
X181374780Y-107833840D01*
X181374780Y-107750020D01*
X181689740Y-107750020D01*
X181689740Y-107391880D01*
X181374780Y-107391880D01*
X181374780Y-107308060D01*
X182119000Y-107308060D01*
X182119000Y-107391880D01*
G37*
G36*
X118707900Y-99530580D02*
G01*
X119066040Y-99530580D01*
X119066040Y-99174980D01*
X119149860Y-99174980D01*
X119149860Y-99919200D01*
X119066040Y-99919200D01*
X119066040Y-99604240D01*
X118707900Y-99604240D01*
X118707900Y-99919200D01*
X118624080Y-99919200D01*
X118624080Y-99174980D01*
X118707900Y-99174980D01*
X118707900Y-99530580D01*
G37*
G36*
X118474220Y-99225780D02*
G01*
X118391410Y-99300460D01*
X118320800Y-99370060D01*
X118261870Y-99435590D01*
X118214120Y-99497060D01*
X118177540Y-99554970D01*
X118151640Y-99609320D01*
X118136400Y-99661140D01*
X118131320Y-99710920D01*
X118139950Y-99772390D01*
X118166370Y-99821670D01*
X118210560Y-99854180D01*
X118273560Y-99865860D01*
X118317750Y-99858750D01*
X118358900Y-99839450D01*
X118397000Y-99811000D01*
X118431040Y-99776960D01*
X118479300Y-99822680D01*
X118433580Y-99867390D01*
X118383790Y-99901930D01*
X118327400Y-99924280D01*
X118263400Y-99931900D01*
X118216150Y-99927840D01*
X118174500Y-99916160D01*
X118137920Y-99897360D01*
X118106930Y-99872470D01*
X118082550Y-99840460D01*
X118064770Y-99803380D01*
X118053590Y-99760710D01*
X118050040Y-99713460D01*
X118055620Y-99657080D01*
X118071370Y-99600180D01*
X118096770Y-99542780D01*
X118131320Y-99484860D01*
X118174500Y-99425940D01*
X118225800Y-99365480D01*
X118284220Y-99304020D01*
X118349760Y-99241020D01*
X118257300Y-99245600D01*
X118014480Y-99246100D01*
X118014480Y-99174980D01*
X118474220Y-99174980D01*
X118474220Y-99225780D01*
G37*
G36*
X138406610Y-124742120D02*
G01*
X138448780Y-124755830D01*
X138484840Y-124777170D01*
X138514820Y-124805620D01*
X138538690Y-124840160D01*
X138556470Y-124880290D01*
X138567140Y-124923980D01*
X138570700Y-124971220D01*
X138562570Y-125050470D01*
X138539710Y-125114990D01*
X138507700Y-125166800D01*
X138469100Y-125207440D01*
X138415760Y-125164260D01*
X138448780Y-125129210D01*
X138476210Y-125087560D01*
X138495000Y-125037260D01*
X138502120Y-124976300D01*
X138491960Y-124914840D01*
X138463000Y-124865560D01*
X138417280Y-124833050D01*
X138357340Y-124821360D01*
X138294340Y-124834060D01*
X138245580Y-124874700D01*
X138213570Y-124947860D01*
X138202400Y-125057580D01*
X138138900Y-125057580D01*
X138127720Y-124959540D01*
X138096730Y-124895530D01*
X138050000Y-124859970D01*
X137991580Y-124849300D01*
X137941280Y-124857940D01*
X137902680Y-124883850D01*
X137877280Y-124924490D01*
X137867120Y-124978840D01*
X137874230Y-125023040D01*
X137889980Y-125063680D01*
X137913340Y-125100760D01*
X137943320Y-125133780D01*
X137887440Y-125179500D01*
X137853400Y-125136830D01*
X137825970Y-125089590D01*
X137807680Y-125035740D01*
X137801080Y-124976300D01*
X137813270Y-124891470D01*
X137848830Y-124823900D01*
X137906230Y-124779200D01*
X137983960Y-124762940D01*
X138047960Y-124773100D01*
X138099270Y-124800540D01*
X138138390Y-124843210D01*
X138166840Y-124897560D01*
X138169380Y-124897560D01*
X138193250Y-124835080D01*
X138234400Y-124784280D01*
X138290280Y-124750240D01*
X138359880Y-124737540D01*
X138406610Y-124742120D01*
G37*
G36*
X138558000Y-125425880D02*
G01*
X138202400Y-125425880D01*
X138202400Y-125784020D01*
X138558000Y-125784020D01*
X138558000Y-125867840D01*
X137813780Y-125867840D01*
X137813780Y-125784020D01*
X138128740Y-125784020D01*
X138128740Y-125425880D01*
X137813780Y-125425880D01*
X137813780Y-125342060D01*
X138558000Y-125342060D01*
X138558000Y-125425880D01*
G37*
G36*
X164593000Y-102476980D02*
G01*
X164524420Y-102476980D01*
X164524420Y-102309340D01*
X163952920Y-102309340D01*
X163952920Y-102441420D01*
X163899580Y-102441420D01*
X163890430Y-102396720D01*
X163878750Y-102357100D01*
X163865030Y-102322040D01*
X163848780Y-102291560D01*
X163848780Y-102228060D01*
X164524420Y-102228060D01*
X164524420Y-102075670D01*
X164593000Y-102075670D01*
X164593000Y-102476980D01*
G37*
G36*
X164593000Y-103007840D02*
G01*
X163848780Y-103007840D01*
X163848780Y-102924020D01*
X164521880Y-102924020D01*
X164521880Y-102593820D01*
X164593000Y-102593820D01*
X164593000Y-103007840D01*
G37*
G36*
X151057340Y-102416020D02*
G01*
X151197040Y-102416020D01*
X151197040Y-102095980D01*
X151280860Y-102095980D01*
X151280860Y-102840200D01*
X151054800Y-102840200D01*
X150999930Y-102837670D01*
X150950150Y-102829540D01*
X150905950Y-102815310D01*
X150868360Y-102794480D01*
X150837370Y-102766540D01*
X150815020Y-102730980D01*
X150800800Y-102687300D01*
X150795720Y-102634460D01*
X150882080Y-102634460D01*
X150894270Y-102698980D01*
X150929830Y-102741140D01*
X150988250Y-102764510D01*
X151067500Y-102771620D01*
X151197040Y-102771620D01*
X151197040Y-102487140D01*
X151067500Y-102487140D01*
X150988250Y-102495780D01*
X150929830Y-102522700D01*
X150894270Y-102568420D01*
X150882080Y-102634460D01*
X150795720Y-102634460D01*
X150807910Y-102555730D01*
X150842960Y-102495270D01*
X150897320Y-102452090D01*
X150968440Y-102426180D01*
X150777940Y-102095980D01*
X150871920Y-102095980D01*
X151057340Y-102416020D01*
G37*
G36*
X150658560Y-102164560D02*
G01*
X150490920Y-102164560D01*
X150490920Y-102736060D01*
X150623000Y-102736060D01*
X150623000Y-102789400D01*
X150577280Y-102798550D01*
X150537140Y-102810230D01*
X150502090Y-102823950D01*
X150470600Y-102840200D01*
X150409640Y-102840200D01*
X150409640Y-102164560D01*
X150257240Y-102164560D01*
X150257240Y-102095980D01*
X150658560Y-102095980D01*
X150658560Y-102164560D01*
G37*
G36*
X181992000Y-126424100D02*
G01*
X181923420Y-126424100D01*
X181923420Y-126256460D01*
X181351920Y-126256460D01*
X181351920Y-126388540D01*
X181298580Y-126388540D01*
X181289430Y-126343840D01*
X181277750Y-126304220D01*
X181264030Y-126269160D01*
X181247780Y-126238680D01*
X181247780Y-126175180D01*
X181923420Y-126175180D01*
X181923420Y-126022780D01*
X181992000Y-126022780D01*
X181992000Y-126424100D01*
G37*
G36*
X181771020Y-126619680D02*
G01*
X181838580Y-126634920D01*
X181893440Y-126659310D01*
X181935610Y-126691310D01*
X181967100Y-126730430D01*
X181988950Y-126775130D01*
X182000630Y-126824920D01*
X182004700Y-126878760D01*
X182000630Y-126931600D01*
X181988950Y-126980870D01*
X181967100Y-127025070D01*
X181935610Y-127063680D01*
X181893440Y-127095680D01*
X181838580Y-127120060D01*
X181771020Y-127135300D01*
X181689740Y-127140380D01*
X181247780Y-127140380D01*
X181247780Y-127056560D01*
X181692280Y-127056560D01*
X181806580Y-127042850D01*
X181880240Y-127004750D01*
X181919350Y-126948360D01*
X181931030Y-126878760D01*
X181928500Y-126841680D01*
X181919350Y-126807140D01*
X181903600Y-126776150D01*
X181880240Y-126749220D01*
X181848230Y-126726870D01*
X181806580Y-126710110D01*
X181755270Y-126699440D01*
X181692280Y-126695880D01*
X181247780Y-126695880D01*
X181247780Y-126614600D01*
X181689740Y-126614600D01*
X181771020Y-126619680D01*
G37*
G36*
X174238390Y-117693620D02*
G01*
X174291220Y-117700220D01*
X174342020Y-117711400D01*
X174390790Y-117726640D01*
X174437530Y-117745940D01*
X174481720Y-117769310D01*
X174524400Y-117796230D01*
X174564020Y-117827730D01*
X174601100Y-117862270D01*
X174635650Y-117900880D01*
X174667650Y-117943040D01*
X174696610Y-117988260D01*
X174722520Y-118037530D01*
X174745380Y-118089350D01*
X174765190Y-118144720D01*
X174781440Y-118203140D01*
X174794650Y-118264610D01*
X174803800Y-118329120D01*
X174809380Y-118396180D01*
X174811420Y-118466280D01*
X174809380Y-118535880D01*
X174803800Y-118602940D01*
X174794650Y-118666940D01*
X174781440Y-118728410D01*
X174765190Y-118786320D01*
X174745380Y-118840680D01*
X174722520Y-118892500D01*
X174696610Y-118940760D01*
X174667650Y-118985460D01*
X174635650Y-119026610D01*
X174601100Y-119064200D01*
X174564020Y-119098740D01*
X174524400Y-119128720D01*
X174481720Y-119155640D01*
X174437530Y-119177990D01*
X174390790Y-119196790D01*
X174342020Y-119211520D01*
X174291220Y-119222190D01*
X174238390Y-119228790D01*
X174184030Y-119230820D01*
X174129170Y-119228790D01*
X174076340Y-119222190D01*
X174025030Y-119211520D01*
X173976260Y-119196790D01*
X173929020Y-119177990D01*
X173884310Y-119155640D01*
X173842150Y-119128720D01*
X173802020Y-119098740D01*
X173764940Y-119064200D01*
X173729880Y-119026610D01*
X173697880Y-118985460D01*
X173668920Y-118940760D01*
X173643020Y-118892500D01*
X173620160Y-118840680D01*
X173600340Y-118786320D01*
X173584090Y-118728410D01*
X173570880Y-118666940D01*
X173561740Y-118602940D01*
X173556150Y-118535880D01*
X173554120Y-118466280D01*
X173726840Y-118466280D01*
X173728870Y-118535880D01*
X173734960Y-118602430D01*
X173745120Y-118664910D01*
X173759350Y-118723330D01*
X173777130Y-118778200D01*
X173798460Y-118829000D01*
X173823360Y-118875730D01*
X173851800Y-118917900D01*
X173883300Y-118955490D01*
X173917840Y-118988510D01*
X173955440Y-119016960D01*
X173995570Y-119040830D01*
X174039250Y-119059120D01*
X174084980Y-119072840D01*
X174133240Y-119080960D01*
X174184030Y-119083500D01*
X174234330Y-119080960D01*
X174282080Y-119072840D01*
X174327800Y-119059120D01*
X174370980Y-119040830D01*
X174411110Y-119016960D01*
X174448200Y-118988510D01*
X174482740Y-118955490D01*
X174514240Y-118917900D01*
X174542180Y-118875730D01*
X174567070Y-118829000D01*
X174588400Y-118778200D01*
X174606180Y-118723330D01*
X174620410Y-118664910D01*
X174630570Y-118602430D01*
X174636660Y-118535880D01*
X174638700Y-118466280D01*
X174636660Y-118396690D01*
X174630570Y-118330140D01*
X174620410Y-118267150D01*
X174606180Y-118207710D01*
X174588400Y-118151830D01*
X174567070Y-118100520D01*
X174542180Y-118052770D01*
X174514240Y-118009590D01*
X174482740Y-117970980D01*
X174448200Y-117936950D01*
X174411110Y-117907480D01*
X174370980Y-117883610D01*
X174327800Y-117864300D01*
X174282080Y-117850080D01*
X174234330Y-117841950D01*
X174184030Y-117838900D01*
X174133240Y-117841950D01*
X174084980Y-117850080D01*
X174039250Y-117864300D01*
X173995570Y-117883610D01*
X173955440Y-117907480D01*
X173917840Y-117936950D01*
X173883300Y-117970980D01*
X173851800Y-118009590D01*
X173823360Y-118052770D01*
X173798460Y-118100520D01*
X173777130Y-118151830D01*
X173759350Y-118207710D01*
X173745120Y-118267150D01*
X173734960Y-118330140D01*
X173728870Y-118396690D01*
X173726840Y-118466280D01*
X173554120Y-118466280D01*
X173556150Y-118396180D01*
X173561740Y-118329120D01*
X173570880Y-118264610D01*
X173584090Y-118203140D01*
X173600340Y-118144720D01*
X173620160Y-118089350D01*
X173643020Y-118037530D01*
X173668920Y-117988260D01*
X173697880Y-117943040D01*
X173729880Y-117900880D01*
X173764940Y-117862270D01*
X173802020Y-117827730D01*
X173842150Y-117796230D01*
X173884310Y-117769310D01*
X173929020Y-117745940D01*
X173976260Y-117726640D01*
X174025030Y-117711400D01*
X174076340Y-117700220D01*
X174129170Y-117693620D01*
X174184030Y-117691580D01*
X174238390Y-117693620D01*
G37*
G36*
X178552840Y-118679640D02*
G01*
X178715400Y-118984440D01*
X178725560Y-118984440D01*
X178712350Y-118761430D01*
X178705740Y-118590240D01*
X178705240Y-117716980D01*
X178862720Y-117716980D01*
X178862720Y-119205420D01*
X178690000Y-119205420D01*
X178128660Y-118240220D01*
X177968640Y-117935420D01*
X177958480Y-117935420D01*
X177975240Y-118225490D01*
X177978290Y-118342840D01*
X177978800Y-119205420D01*
X177818780Y-119205420D01*
X177818780Y-117716980D01*
X177994030Y-117716980D01*
X178552840Y-118679640D01*
G37*
G36*
X176726580Y-118186880D02*
G01*
X177280300Y-118186880D01*
X177432700Y-117716980D01*
X177602880Y-117716980D01*
X177094880Y-119205420D01*
X176909460Y-119205420D01*
X176605400Y-118318960D01*
X176769750Y-118318960D01*
X176925200Y-118809690D01*
X177000900Y-119063180D01*
X177008520Y-119063180D01*
X177081670Y-118808680D01*
X177237120Y-118318960D01*
X176769750Y-118318960D01*
X176605400Y-118318960D01*
X176398920Y-117716980D01*
X176576720Y-117716980D01*
X176726580Y-118186880D01*
G37*
G36*
X175873140Y-118679640D02*
G01*
X176035700Y-118984440D01*
X176045860Y-118984440D01*
X176032650Y-118761430D01*
X176026040Y-118590240D01*
X176025530Y-117716980D01*
X176183020Y-117716980D01*
X176183020Y-119205420D01*
X176010300Y-119205420D01*
X175448960Y-118240220D01*
X175286400Y-117935420D01*
X175276240Y-117935420D01*
X175287920Y-118108140D01*
X175298590Y-118342840D01*
X175299090Y-119205420D01*
X175139080Y-119205420D01*
X175139080Y-117716980D01*
X175314340Y-117716980D01*
X175873140Y-118679640D01*
G37*
G36*
X158624000Y-91671820D02*
G01*
X158573200Y-91671820D01*
X158498520Y-91588510D01*
X158428920Y-91516890D01*
X158363390Y-91457450D01*
X158301920Y-91409700D01*
X158244010Y-91372610D01*
X158189660Y-91346700D01*
X158137840Y-91331460D01*
X158088060Y-91326390D01*
X158026590Y-91335020D01*
X157977310Y-91361440D01*
X157944800Y-91405630D01*
X157933120Y-91468620D01*
X157940230Y-91513330D01*
X157959530Y-91554980D01*
X157987980Y-91593080D01*
X158022020Y-91626100D01*
X157976300Y-91676900D01*
X157931590Y-91630170D01*
X157897050Y-91579880D01*
X157874700Y-91523490D01*
X157867080Y-91458460D01*
X157871140Y-91411220D01*
X157882820Y-91369560D01*
X157901620Y-91332990D01*
X157927020Y-91302000D01*
X157958520Y-91277620D01*
X157995600Y-91259840D01*
X158038270Y-91248660D01*
X158085520Y-91245100D01*
X158141900Y-91250690D01*
X158198800Y-91266440D01*
X158256200Y-91292350D01*
X158314120Y-91327400D01*
X158373040Y-91370580D01*
X158433500Y-91421890D01*
X158494960Y-91480310D01*
X158557960Y-91544820D01*
X158553380Y-91452880D01*
X158552880Y-91209540D01*
X158624000Y-91209540D01*
X158624000Y-91671820D01*
G37*
G36*
X158403020Y-91821680D02*
G01*
X158470580Y-91836920D01*
X158525440Y-91861310D01*
X158567610Y-91893310D01*
X158599100Y-91932430D01*
X158620950Y-91977130D01*
X158632630Y-92026920D01*
X158636700Y-92080760D01*
X158632630Y-92133600D01*
X158620950Y-92182870D01*
X158599100Y-92227070D01*
X158567610Y-92265680D01*
X158525440Y-92297680D01*
X158470580Y-92322060D01*
X158403020Y-92337300D01*
X158321740Y-92342390D01*
X157879780Y-92342390D01*
X157879780Y-92258560D01*
X158324280Y-92258560D01*
X158438580Y-92244850D01*
X158512240Y-92206750D01*
X158551350Y-92150360D01*
X158563040Y-92080760D01*
X158560500Y-92043680D01*
X158551350Y-92009140D01*
X158535600Y-91978150D01*
X158512240Y-91951230D01*
X158480230Y-91928870D01*
X158438580Y-91912110D01*
X158387270Y-91901440D01*
X158324280Y-91897890D01*
X157879780Y-91897890D01*
X157879780Y-91816600D01*
X158321740Y-91816600D01*
X158403020Y-91821680D01*
G37*
G36*
X181840610Y-91094740D02*
G01*
X181882780Y-91108450D01*
X181918840Y-91129790D01*
X181948810Y-91158240D01*
X181972690Y-91192780D01*
X181990470Y-91232910D01*
X182001140Y-91276600D01*
X182004700Y-91323840D01*
X181996570Y-91402080D01*
X181973710Y-91466590D01*
X181941700Y-91518920D01*
X181903090Y-91560060D01*
X181849750Y-91516890D01*
X181882780Y-91481830D01*
X181910210Y-91440180D01*
X181929000Y-91389890D01*
X181936120Y-91328920D01*
X181925960Y-91265930D01*
X181897000Y-91217170D01*
X181851280Y-91185160D01*
X181791340Y-91173980D01*
X181728340Y-91186180D01*
X181679580Y-91225800D01*
X181647570Y-91298450D01*
X181636400Y-91407670D01*
X181572900Y-91407670D01*
X181561720Y-91309620D01*
X181530730Y-91245610D01*
X181484000Y-91210050D01*
X181425580Y-91199390D01*
X181375280Y-91208530D01*
X181336680Y-91234440D01*
X181311280Y-91275580D01*
X181301120Y-91328920D01*
X181308230Y-91373120D01*
X181323980Y-91414270D01*
X181347340Y-91452370D01*
X181377310Y-91486400D01*
X181321440Y-91532120D01*
X181287400Y-91488440D01*
X181259970Y-91440680D01*
X181241680Y-91387340D01*
X181235080Y-91326390D01*
X181247270Y-91242060D01*
X181282830Y-91175510D01*
X181340230Y-91131310D01*
X181417960Y-91115560D01*
X181481960Y-91125220D01*
X181533270Y-91152140D01*
X181572390Y-91193800D01*
X181600840Y-91247640D01*
X181603380Y-91247640D01*
X181627250Y-91186680D01*
X181668400Y-91136390D01*
X181724280Y-91102860D01*
X181793880Y-91090170D01*
X181840610Y-91094740D01*
G37*
G36*
X181771020Y-91694680D02*
G01*
X181838580Y-91709920D01*
X181893440Y-91734310D01*
X181935610Y-91766310D01*
X181967100Y-91805430D01*
X181988950Y-91850130D01*
X182000630Y-91899920D01*
X182004700Y-91953760D01*
X182000630Y-92006600D01*
X181988950Y-92055870D01*
X181967100Y-92100070D01*
X181935610Y-92138680D01*
X181893440Y-92170680D01*
X181838580Y-92195060D01*
X181771020Y-92210300D01*
X181689740Y-92215390D01*
X181247780Y-92215390D01*
X181247780Y-92131560D01*
X181692280Y-92131560D01*
X181806580Y-92117850D01*
X181880240Y-92079750D01*
X181919350Y-92023360D01*
X181931030Y-91953760D01*
X181928500Y-91916680D01*
X181919350Y-91882140D01*
X181903600Y-91851150D01*
X181880240Y-91824230D01*
X181848230Y-91801870D01*
X181806580Y-91785110D01*
X181755270Y-91774440D01*
X181692280Y-91770890D01*
X181247780Y-91770890D01*
X181247780Y-91689600D01*
X181689740Y-91689600D01*
X181771020Y-91694680D01*
G37*
G36*
X135682720Y-91420360D02*
G01*
X135891000Y-91420360D01*
X135891000Y-91499100D01*
X135682720Y-91499100D01*
X135682720Y-91824230D01*
X135629380Y-91824230D01*
X135146780Y-91509260D01*
X135146780Y-91496560D01*
X135243300Y-91496560D01*
X135352520Y-91554980D01*
X135616680Y-91735320D01*
X135616680Y-91499100D01*
X135375380Y-91499100D01*
X135243300Y-91491480D01*
X135243300Y-91496560D01*
X135146780Y-91496560D01*
X135146780Y-91491480D01*
X135146780Y-91420360D01*
X135616680Y-91420360D01*
X135616680Y-91318760D01*
X135682720Y-91318760D01*
X135682720Y-91420360D01*
G37*
G36*
X135670020Y-91948680D02*
G01*
X135737580Y-91963920D01*
X135792440Y-91988310D01*
X135834610Y-92020310D01*
X135866100Y-92059430D01*
X135887950Y-92104130D01*
X135899630Y-92153920D01*
X135903700Y-92207760D01*
X135899630Y-92260600D01*
X135887950Y-92309870D01*
X135866100Y-92354070D01*
X135834610Y-92392680D01*
X135792440Y-92424680D01*
X135737580Y-92449060D01*
X135670020Y-92464300D01*
X135588740Y-92469390D01*
X135146780Y-92469390D01*
X135146780Y-92385560D01*
X135591280Y-92385560D01*
X135705580Y-92371850D01*
X135779240Y-92333750D01*
X135818350Y-92277360D01*
X135830040Y-92207760D01*
X135827500Y-92170680D01*
X135818350Y-92136140D01*
X135802600Y-92105150D01*
X135779240Y-92078230D01*
X135747230Y-92055870D01*
X135705580Y-92039110D01*
X135654270Y-92028440D01*
X135591280Y-92024890D01*
X135146780Y-92024890D01*
X135146780Y-91943600D01*
X135588740Y-91943600D01*
X135670020Y-91948680D01*
G37*
G36*
X170757580Y-99978130D02*
G01*
X170893720Y-99986260D01*
X171029360Y-100002520D01*
X171163980Y-100026900D01*
X171296560Y-100059410D01*
X171427120Y-100099540D01*
X171555140Y-100147800D01*
X171680100Y-100203180D01*
X171801520Y-100266170D01*
X171918860Y-100336270D01*
X172031640Y-100413490D01*
X172139840Y-100497310D01*
X172242460Y-100587230D01*
X172340000Y-100682730D01*
X169038000Y-100682730D01*
X169135530Y-100587230D01*
X169238150Y-100497310D01*
X169346350Y-100413490D01*
X169459130Y-100336270D01*
X169576480Y-100266170D01*
X169697890Y-100203180D01*
X169822860Y-100147800D01*
X169950870Y-100099540D01*
X170015900Y-100078720D01*
X170147470Y-100042140D01*
X170281070Y-100013690D01*
X170416200Y-99993370D01*
X170552340Y-99981180D01*
X170689000Y-99977120D01*
X170757580Y-99978130D01*
G37*
D11*
X132800860Y-105397980D02*
X132142010Y-105397980D01*
X132142010Y-105397980D02*
X132142010Y-100327990D01*
X134663130Y-100317980D02*
X135321980Y-100317980D01*
X135321980Y-100317980D02*
X135321980Y-105397980D01*
X135321980Y-105397980D02*
X134663130Y-105397980D01*
X132142010Y-100317980D02*
X132800860Y-100317980D01*
X133732000Y-104381980D02*
X133732000Y-103365980D01*
X133732000Y-103365980D02*
X132716000Y-103365980D01*
X133732000Y-103365980D02*
X134748000Y-103365980D01*
X133732000Y-101333980D02*
X133732000Y-102349980D01*
X132716000Y-102349980D02*
X134748000Y-102349980D01*
X139023860Y-105270980D02*
X138365010Y-105270980D01*
X138365010Y-105270980D02*
X138365010Y-100200990D01*
X140886130Y-100190980D02*
X141544980Y-100190980D01*
X141544980Y-100190980D02*
X141544980Y-105270980D01*
X141544980Y-105270980D02*
X140886130Y-105270980D01*
X138365010Y-100190980D02*
X139023860Y-100190980D01*
X139955000Y-104254980D02*
X139955000Y-103238980D01*
X139955000Y-103238980D02*
X138939000Y-103238980D01*
X139955000Y-103238980D02*
X140971000Y-103238980D01*
X139955000Y-101206980D02*
X139955000Y-102222980D01*
X138939000Y-102222980D02*
X140971000Y-102222980D01*
X127085860Y-105397980D02*
X126427010Y-105397980D01*
X126427010Y-105397980D02*
X126427010Y-100327990D01*
X128948130Y-100317980D02*
X129606980Y-100317980D01*
X129606980Y-100317980D02*
X129606980Y-105397980D01*
X129606980Y-105397980D02*
X128948130Y-105397980D01*
X126427010Y-100317980D02*
X127085860Y-100317980D01*
X128017000Y-104381980D02*
X128017000Y-103365980D01*
X128017000Y-103365980D02*
X127001000Y-103365980D01*
X128017000Y-103365980D02*
X129033000Y-103365980D01*
X128017000Y-101333980D02*
X128017000Y-102349980D01*
X127001000Y-102349980D02*
X129033000Y-102349980D01*
X169189130Y-103993110D02*
X169189130Y-102977110D01*
X168689000Y-103476980D02*
X169705000Y-103476980D01*
X156889960Y-79171980D02*
X142070000Y-79171980D01*
X142070030Y-79171980D02*
X142070000Y-84921950D01*
X142070000Y-84921950D02*
X156889960Y-84921950D01*
X156889960Y-84921980D02*
X156889960Y-79171980D01*
X154814000Y-79235980D02*
X154814000Y-79743980D01*
X154814000Y-79743980D02*
X144146000Y-79743980D01*
X144146000Y-79743980D02*
X144146000Y-79235980D01*
X144146000Y-79235980D02*
X144146000Y-79235980D01*
X179622960Y-79171980D02*
X164803000Y-79171980D01*
X164803030Y-79171980D02*
X164803000Y-84921950D01*
X164803000Y-84921950D02*
X179622960Y-84921950D01*
X179622960Y-84921980D02*
X179622960Y-79171980D01*
X177547000Y-79235980D02*
X177547000Y-79743980D01*
X177547000Y-79743980D02*
X166879000Y-79743980D01*
X166879000Y-79743980D02*
X166879000Y-79235980D01*
X166879000Y-79235980D02*
X166879000Y-79235980D01*
X134029960Y-79171980D02*
X119210000Y-79171980D01*
X119210030Y-79171980D02*
X119210000Y-84921950D01*
X119210000Y-84921950D02*
X134029960Y-84921950D01*
X134029960Y-84921980D02*
X134029960Y-79171980D01*
X131954000Y-79235980D02*
X131954000Y-79743980D01*
X131954000Y-79743980D02*
X121286000Y-79743980D01*
X121286000Y-79743980D02*
X121286000Y-79235980D01*
X121286000Y-79235980D02*
X121286000Y-79235980D01*
X175044000Y-98112000D02*
X184044010Y-98112000D01*
X175044000Y-108112000D02*
X175044000Y-98112000D01*
X182463320Y-108112000D02*
X182463320Y-98112000D01*
X177154720Y-108112000D02*
X177154720Y-98112000D01*
X184043980Y-108112000D02*
X184043980Y-98112000D01*
X175044000Y-108112000D02*
X184044010Y-108112000D01*
X119127000Y-103111980D02*
X116841000Y-103111980D01*
X119183890Y-100331950D02*
X119183890Y-121132020D01*
X119183890Y-121132020D02*
X116783850Y-121132020D01*
X116783850Y-121132020D02*
X116783850Y-100331950D01*
X116783850Y-100331950D02*
X119183890Y-100331950D01*
X134494000Y-125717980D02*
X134494000Y-123431980D01*
X137274020Y-125774880D02*
X116473960Y-125774880D01*
X116473960Y-125774880D02*
X116473960Y-123374840D01*
X116473960Y-123374840D02*
X137274020Y-123374840D01*
X137274020Y-123374840D02*
X137274020Y-125774880D01*
X164339000Y-99809980D02*
X160529000Y-99809980D01*
X160910000Y-103569190D02*
X160910000Y-102807190D01*
X161291000Y-103188190D02*
X160529000Y-103188190D01*
X146431210Y-102349980D02*
X147499990Y-102349980D01*
X154000000Y-102354020D02*
X155068780Y-102354020D01*
X147499990Y-103500000D02*
X147499990Y-101199970D01*
X147499990Y-101199970D02*
X154000000Y-101199970D01*
X154000000Y-101230000D02*
X154000000Y-103469970D01*
X154000000Y-103500000D02*
X147499990Y-103500000D01*
X139701000Y-127622980D02*
X139701000Y-109461980D01*
X139701000Y-109461980D02*
X182373000Y-109461980D01*
X182373000Y-109461980D02*
X182373000Y-127622980D01*
X182373000Y-127622980D02*
X139701000Y-127622980D01*
X180214000Y-123685980D02*
X180214000Y-113398980D01*
X180214000Y-113398980D02*
X184024000Y-113398980D01*
X184024000Y-113398980D02*
X184024000Y-123685980D01*
X184024000Y-123685980D02*
X180214000Y-123685980D01*
X159580000Y-94601000D02*
X159580000Y-88000990D01*
X139379960Y-94601000D02*
X139379960Y-92062980D01*
X139379960Y-88000970D02*
X139379960Y-90538980D01*
X139379960Y-88000970D02*
X139644020Y-88000970D01*
X141535970Y-88000970D02*
X142184020Y-88000970D01*
X144075970Y-88000970D02*
X144724020Y-88000970D01*
X146615970Y-88000970D02*
X147264020Y-88000970D01*
X149155970Y-88000970D02*
X149804020Y-88000970D01*
X151695970Y-88000970D02*
X152344020Y-88000970D01*
X154235970Y-88000970D02*
X154884020Y-88000970D01*
X156775970Y-88000970D02*
X157424020Y-88000970D01*
X159315970Y-88000970D02*
X159580000Y-88000970D01*
X159580000Y-94601000D02*
X159315970Y-94601000D01*
X157424020Y-94601000D02*
X156775970Y-94601000D01*
X154884020Y-94601000D02*
X154235970Y-94601000D01*
X152344020Y-94601000D02*
X151695970Y-94601000D01*
X149804020Y-94601000D02*
X149155970Y-94601000D01*
X147264020Y-94601000D02*
X146615970Y-94601000D01*
X144724020Y-94601000D02*
X144075970Y-94601000D01*
X142184020Y-94601000D02*
X141571150Y-94601000D01*
X139608840Y-94601000D02*
X139379960Y-94601000D01*
X182567000Y-94474000D02*
X182567000Y-87873990D01*
X162366960Y-94474000D02*
X162366960Y-91935980D01*
X162366960Y-87873970D02*
X162366960Y-90411980D01*
X162366960Y-87873970D02*
X162631020Y-87873970D01*
X164522970Y-87873970D02*
X165171020Y-87873970D01*
X167062970Y-87873970D02*
X167711020Y-87873970D01*
X169602970Y-87873970D02*
X170251020Y-87873970D01*
X172142970Y-87873970D02*
X172791020Y-87873970D01*
X174682970Y-87873970D02*
X175331020Y-87873970D01*
X177222970Y-87873970D02*
X177871020Y-87873970D01*
X179762970Y-87873970D02*
X180411020Y-87873970D01*
X182302970Y-87873970D02*
X182567000Y-87873970D01*
X182567000Y-94474000D02*
X182302970Y-94474000D01*
X180411020Y-94474000D02*
X179762970Y-94474000D01*
X177871020Y-94474000D02*
X177222970Y-94474000D01*
X175331020Y-94474000D02*
X174682970Y-94474000D01*
X172791020Y-94474000D02*
X172142970Y-94474000D01*
X170251020Y-94474000D02*
X169602970Y-94474000D01*
X167711020Y-94474000D02*
X167062970Y-94474000D01*
X165171020Y-94474000D02*
X164558150Y-94474000D01*
X162595840Y-94474000D02*
X162366960Y-94474000D01*
X136720000Y-94601000D02*
X136720000Y-88000990D01*
X116519960Y-94601000D02*
X116519960Y-92062980D01*
X116519960Y-88000970D02*
X116519960Y-90538980D01*
X116519960Y-88000970D02*
X116784020Y-88000970D01*
X118675970Y-88000970D02*
X119324020Y-88000970D01*
X121215970Y-88000970D02*
X121864020Y-88000970D01*
X123755970Y-88000970D02*
X124404020Y-88000970D01*
X126295970Y-88000970D02*
X126944020Y-88000970D01*
X128835970Y-88000970D02*
X129484020Y-88000970D01*
X131375970Y-88000970D02*
X132024020Y-88000970D01*
X133915970Y-88000970D02*
X134564020Y-88000970D01*
X136455970Y-88000970D02*
X136720000Y-88000970D01*
X136720000Y-94601000D02*
X136455970Y-94601000D01*
X134564020Y-94601000D02*
X133915970Y-94601000D01*
X132024020Y-94601000D02*
X131375970Y-94601000D01*
X129484020Y-94601000D02*
X128835970Y-94601000D01*
X126944020Y-94601000D02*
X126295970Y-94601000D01*
X124404020Y-94601000D02*
X123755970Y-94601000D01*
X121864020Y-94601000D02*
X121215970Y-94601000D01*
X119324020Y-94601000D02*
X118711150Y-94601000D01*
X116748840Y-94601000D02*
X116519960Y-94601000D01*
X164339000Y-99809980D02*
G75*
G02*
X160529000Y-99809980I-1905000J-2540000D01*
G01*
D12*
X139165060Y-95108440D02*
G75*
G02*
X139165061Y-95110980I125040J-1240D01*
G01*
D11*
X139379970Y-90538980D02*
G75*
G02*
X139380960Y-92062980I490J-762000D01*
G01*
D12*
X162152060Y-94981440D02*
G75*
G02*
X162152061Y-94983980I125040J-1240D01*
G01*
D11*
X162366970Y-90411980D02*
G75*
G02*
X162367960Y-91935980I530J-762000D01*
G01*
D12*
X116305060Y-95108440D02*
G75*
G02*
X116305061Y-95110980I125040J-1240D01*
G01*
D11*
X116519970Y-90538980D02*
G75*
G02*
X116520960Y-92062980I490J-762000D01*
G01*
D13*
X173189120Y-102476980D02*
G75*
G02*
X168188880Y-102476980I-2500120J0D01*
G01*
X168188880Y-102476980D02*
G75*
G02*
X173189120Y-102476980I2500120J0D01*
G01*
D11*
X164974000Y-102349980D02*
G75*
G02*
X159894000Y-102349980I-2540000J0D01*
G01*
X159894000Y-102349980D02*
G75*
G02*
X164974000Y-102349980I2540000J0D01*
G01*
M02*
